<?xml version="1.0" encoding="UTF-8"?>
<svg id="Camada_2" data-name="Camada 2" xmlns="http://www.w3.org/2000/svg" viewBox="0 0 202.7 187.17">
  <defs>
    <style>
      .cls-1 {
        fill: #140e1d;
      }

      .cls-1, .cls-2, .cls-3, .cls-4, .cls-5, .cls-6, .cls-7, .cls-8, .cls-9, .cls-10, .cls-11, .cls-12, .cls-13, .cls-14, .cls-15, .cls-16, .cls-17, .cls-18, .cls-19, .cls-20, .cls-21, .cls-22, .cls-23, .cls-24, .cls-25, .cls-26, .cls-27, .cls-28, .cls-29, .cls-30, .cls-31, .cls-32, .cls-33, .cls-34, .cls-35, .cls-36, .cls-37, .cls-38, .cls-39, .cls-40, .cls-41, .cls-42, .cls-43, .cls-44, .cls-45, .cls-46, .cls-47 {
        stroke-width: 0px;
      }

      .cls-2 {
        fill: #4d769b;
      }

      .cls-3 {
        fill: #92635b;
      }

      .cls-4 {
        fill: #a6b8dc;
      }

      .cls-5 {
        fill: #f2dbbb;
      }

      .cls-6 {
        fill: #ab94a5;
      }

      .cls-7 {
        fill: #74b8e1;
      }

      .cls-8 {
        fill: #3b435c;
      }

      .cls-9 {
        fill: #466588;
      }

      .cls-10 {
        fill: #eead6d;
      }

      .cls-11 {
        fill: #9e9faa;
      }

      .cls-12 {
        fill: #fdfefd;
      }

      .cls-13 {
        fill: #eb8a5e;
      }

      .cls-14 {
        fill: #120d1c;
      }

      .cls-15 {
        fill: #c2b8c3;
      }

      .cls-16 {
        fill: #bd7562;
      }

      .cls-17 {
        fill: #ea605f;
      }

      .cls-18 {
        fill: #f9b258;
      }

      .cls-19 {
        fill: #bb958d;
      }

      .cls-20 {
        fill: #fefefe;
      }

      .cls-21 {
        fill: #3b0f19;
      }

      .cls-22 {
        fill: #f5f7f9;
      }

      .cls-23 {
        fill: #fcdd80;
      }

      .cls-24 {
        fill: #1d1b2d;
      }

      .cls-25 {
        fill: #110d18;
      }

      .cls-26 {
        fill: #c6a9a5;
      }

      .cls-27 {
        fill: #ac5c62;
      }

      .cls-28 {
        fill: #5c292a;
      }

      .cls-29 {
        fill: #cd9169;
      }

      .cls-30 {
        fill: #486b8f;
      }

      .cls-31 {
        fill: #7d3743;
      }

      .cls-32 {
        fill: #292845;
      }

      .cls-33 {
        fill: #fccc6c;
      }

      .cls-34 {
        fill: #666f7f;
      }

      .cls-35 {
        fill: #944b4a;
      }

      .cls-36 {
        fill: #914447;
      }

      .cls-37 {
        fill: #a7534d;
      }

      .cls-38 {
        fill: #4c7498;
      }

      .cls-39 {
        fill: #5f2c40;
      }

      .cls-40 {
        fill: #adbddf;
      }

      .cls-41 {
        fill: #3a405a;
      }

      .cls-42 {
        fill: #141318;
      }

      .cls-43 {
        fill: #456589;
      }

      .cls-44 {
        fill: #faedc5;
      }

      .cls-45 {
        fill: #fbcea3;
      }

      .cls-46 {
        fill: #446488;
      }

      .cls-47 {
        fill: #485169;
      }
    </style>
  </defs>
  <g id="Camada_1-2" data-name="Camada 1">
    <g>
      <g>
        <path class="cls-28" d="M90.31,167.79c.43,2.58,3,6.93-1.5,3.55.12,5.19-2.65-2.02-3.41.14,1.56.62-.93,2.44-1.09-.68.71.26.68-2.09,1.09-3.68.95-3.63,2.31-7.23,3.55-10.78,3.06-1.45-.08,2.74,1.36,11.46Z"/>
        <path class="cls-26" d="M84.31,170.79c-.06-1.11,1-4.58,1.36-6,.43-1.7,2.1-7.6,3.27-8.46-1.24,3.54-2.6,7.15-3.55,10.78-.41,1.59-.38,3.94-1.09,3.68Z"/>
        <g>
          <path class="cls-28" d="M126.87,169.16c.39,1.69,1.45,3.52.68,3.82-11.31-4.2-8.64,1.73-9.41,3.41-.79,1.74-4.88-.59-5.32,8.32-1.69-.38-1.94-2.43-2.05-3.82-.03-.44-.02-.92,0-1.36,2.27-1.7,2.62-2.68,2.46-3.27-.28-1-2.07-.97-2.32-2.17-.17-.84,1-1.99,1-2h0c.56-.58,1.55-1.44,3-2,2.76-1.06,5.25-.27,6,0l-4.68,2.63c-6.75,4.96,3.47-.72,4.64-3.41,1.04-2.4,1.56-10.6,1.64-13.78,3.42-.63,2.37,5.02,4.37,13.64Z"/>
          <path class="cls-15" d="M122.5,155.51c-.08,3.18-.6,11.38-1.64,13.78-1.16,2.69-11.39,8.37-4.64,3.41,1.27-.93,3.31-1.86,4.09-3.41.58-1.15.87-3.94,1.09-5.32.17-1.02.64-8.37,1.09-8.46Z"/>
          <path class="cls-28" d="M114.91,177.08c-.18.36-.76,1.39-2,2-.9.44-1.72.46-2.14.45-.18-.66-.58-2.42.14-4.45.55-1.55,1.49-2.54,2-3,.22.89.53,1.91,1,3,.32.75.66,1.41,1,2Z"/>
        </g>
        <g>
          <path class="cls-28" d="M71.75,178.43c-.12-.25-1.26-2.8.16-5.35,1.58-2.85,4.85-3,5-3,3.76-1.82,7.21-.8,8,1,.71,1.61-.78,3.71-1,4-2.98-1.15-6.04-1.75-7.81-.28-2.9,2.4-.93,9.18-1.75,9.37-1,.23-2.47-4.86-2.59-5.73Z"/>
          <g>
            <path class="cls-42" d="M121.41,163.97c-.22,1.38-.51,4.17-1.09,5.32-.78,1.55-2.82,2.48-4.09,3.41,1.23-.88,2.46-1.75,3.68-2.63-.49-.05-1.18-.08-2,0-1.09.1-3.17.3-4.96,1.81-2.43,2.04-2.63,5.05-2.66,5.6-.1,1.49.23,2.7.48,3.4.1,1.39.36,3.43,2.05,3.82.44-8.91,4.53-6.58,5.32-8.32.77-1.68-1.89-7.61,9.41-3.41.77-.3-.29-2.13-.68-3.82.3-.28.55-.34.72-.34,1.06-.02,1.32,2.03,3.32,4.26,1.04,1.15,1.32,1,2,2,.74,1.09,1.72,3.2,1,4-.99,1.11-4.22-1.43-6,0-.63.5-.81,1.28-1.04,2.22-.49,2,.31,3.03-.43,4.25-.31.51-.81.97-1.62,1.34-5.38-.84-2.46-8.45-5.73-7.91-.36.51-3.62,1.84-3.68,2.05-.35,1.18.59,6.28-3.68,6.14-3.81-3.02-2.55-9.23-3-9.55-6.62.24-1.37,6.32-5.46,9-3.88-.39-5.33-7.33-5.73-7.64-1.41-1.12-9.59-.15-10.23,1.77-.39,1.17,1.2,6.3-3.41,6.14-3.88-3.23-2.85-9.25-3.27-9.55-7.41-.83-1.22,6.37-6.28,8.73-.37-.17-.92-.47-1.44-.99-.58-.58-.73-1.04-1-1-.38.05-.31,1-1,2-.34.49-.73.81-1,1-.87-1.01-2.09-2.66-2.96-4.96-.76-2.01-.98-3.79-1.04-5.04-.05-.31-.37-2.3,1-4,1.08-1.34,2.53-1.66,2.94-1.74,1.38-.52,2.59-.36,3.07.25.13.17.21.4.21.71,0,.62-2.02,1.64-1.36,6.14.41,2.83,1.88,5.89,2.59,5.73,1-.23-1.2-6.5,1.56-9.08,2.08-1.95,6.11-1,9,0,1.12-1.48,1.27-2.4,1-3-.81-1.81-5.8-1.45-11.15-.47-.62.16-1.23.31-1.85.47-.89-.5-1.03-.81-1-1,.07-.45,1.13-.49,3-1,1.42-.39,1.14-.45,3-1,2.71-.8,3.48-.72,4.08-.47.64.27.74.63,1.09.55.35-.08,1.77-4.22,2.05-4.91q.27.27.55.55c-.36,1.42-1.42,4.9-1.36,6,.16,3.12,2.65,1.3,1.09.68.76-2.15,3.53,5.06,3.41-.14,4.5,3.39,1.93-.97,1.5-3.55,1.95-1.05.31,2.5,3.55,3.27,1.26.3,1.99.06,2.78.14.85.08,2.01.66,3.28,2.87.05-.27.37-1.96,2-3,1.61-1.03,3.27-.63,3.54-.56.8-.4,1.47-.51,1.91-.55.76-.06,1.43.1,2.71.31.82.13,1.27.25,1.39.24.18-.02,1.68-1,2.18-1.09,5.91-1.06,6,.38,7.23-7.37q.27.95.55,1.91Z"/>
            <g>
              <path class="cls-28" d="M97.95,172.7c1.41.49,1.38,3.38.14,3.82-1.25.44-15.1-2.74-12.69,7.5-1.19,1.81-2.81-1.3-3-3.14.25-.73.51-1.71.58-2.89.04-.72,0-1.37-.07-1.92.33-1.67.67-3.33,1-5h2c1.05,1.03,1.65,1.13,2,1,.45-.16.48-.67,1-1,.6-.38,1.39-.22,2,0,2.35.54,4.69,1.08,7.04,1.63Z"/>
              <path class="cls-20" d="M84.91,173.06c-1.98,2.11-1.83,5.1-2.5,7.83-.47-5.03,2.05-11.25,2.5-7.83Z"/>
              <path class="cls-6" d="M97.95,172.7l-3.55-.27c1.41-.31,2.29-.54,3.55.27Z"/>
              <g>
                <g>
                  <path class="cls-28" d="M69.57,174.61c-.64.54-.52,3.33.27,3.27.11,2.26.96,10.38-1.36,3.14-.59-1.84-1.34-5.9,1.09-6.41Z"/>
                  <path class="cls-20" d="M69.85,177.89c-.8.05-.91-2.73-.27-3.27,1.17-.75.16,1.12.27,3.27Z"/>
                </g>
                <g>
                  <path class="cls-28" d="M100.4,178.71c.49-3.3,3.17-5.63,5.73-7.37.25-.05.55.02.82,0,1.15-.07,2.19.21,2.18-.27.26.09.72-.19,1.09.41-1.82,4.93-2.18,2.66-4.77,3.96-4.25,2.12-1.45,9.09-2.73,9.28-1.82-1.84-2.7-3.42-2.32-6Z"/>
                  <path class="cls-15" d="M106.13,171.34c-2.56,1.74-5.24,4.07-5.73,7.37-1.57-.31,2.3-6.67,5.73-7.37Z"/>
                  <path class="cls-12" d="M109.13,171.07c.01.48-1.03.21-2.18.27-.03-1.02,1.49-.51,2.18-.27Z"/>
                </g>
              </g>
              <g>
                <path class="cls-12" d="M111.86,174.89c-1.07,1.66-1.01,2.86-1.09,4.64-.02.44-.03.92,0,1.36-1.12-2.1-.29-4.7.41-6.82.82.05.65.78.68.82Z"/>
                <path class="cls-20" d="M116.23,171.07c-.62.17-1.98.11-3.27.82.48-2.4,6.82-1.81,3.27-.82Z"/>
                <path class="cls-15" d="M121.14,174.34l-.55,2.46c-.08-.16-.69.25-.55-.95.1-.85.73-1.04,1.09-1.5Z"/>
              </g>
            </g>
          </g>
          <g>
            <path class="cls-20" d="M61.39,173.79c-.16.29-1.45,1-1.91,1.09.51-.92.94-2.12,1.91-1.09Z"/>
            <path class="cls-20" d="M66.16,171.07c.99-.24,2.94,1.72-.27.55l.27-.55Z"/>
            <path class="cls-20" d="M63.16,171.88l.68.41c-.28,1.43-1.25-.09-.68-.41Z"/>
          </g>
        </g>
      </g>
      <g>
        <path class="cls-41" d="M92.49,150.06c-4.9-2.27-7.17-4.29-10.91-7.91-.22-.21-.94-.64-1.09-.82-.42-.5-.03-1.24-.82-1.09.06-.02.46-.66,1.23-.55.89.13,15.31,7.98,15.82,8.73.68.99.46,2.18.27,3.27-1.03-1.57-2.85-1.26-4.5-1.64Z"/>
        <g>
          <path class="cls-14" d="M61.93,142.96c3.9,5.37-.14-4.01-.27-6.41-.09-1.67.57-.63.82-.68,1.8.89,1.46,1.7,2.46,2.86,1.27,1.47,2.92,2.66,4.09,4.23-.13-.1-.39.29-.41.27-1.12-.88-1.93-2.18-3.14-3-3.17-2.15,1.08,2.91-1.77,6.82-1.76.51-6.8-10.38-7.78-12.28l.55-.82c.77,1.56,4.4,7.55,5.46,9Z"/>
          <path class="cls-39" d="M69.03,142.96c-1.17-1.57-2.82-2.76-4.09-4.23-1-1.16-.65-1.97-2.46-2.86.04,0,.24-.63.55-.55.05.03.29.6.68.82.08.05.51-.5,1.91.27,4.3,2.38,9.19,5.06,7.91,10.64-1.37-1.55-2.87-2.82-4.5-4.09Z"/>
          <path class="cls-39" d="M63.02,135.32c-.31-.08-.51.54-.55.55-.25.05-.91-.99-.82.68.13,2.4,4.17,11.78.27,6.41.79-1.46-2.12-4.87-3-6.41-1.27-2.24-1.17-4.49-3-4.23-.63-1.43-2.9-3.55-1.5-6.82,2.66,8.14,3.3,6.94,8.59,9.82Z"/>
          <path class="cls-35" d="M61.93,142.96c-1.05-1.45-4.69-7.44-5.46-9-.18-.37-.37-1.24-.55-1.64,1.83-.26,1.73,1.99,3,4.23.88,1.54,3.79,4.95,3,6.41Z"/>
        </g>
        <g>
          <path class="cls-14" d="M177.89,87.85l-.27-1.36c3.79-1.85,16.43-7.69,18.28-10.5,1.4-2.13,1.71-5.14-1.36-5.05-2.26.07-6.16,2.26-8.46,3.27v-.82c2.74-.84,9.26-5.94,12-2.32,5.05,6.67-13.4,13.45-20.19,16.78Z"/>
          <path class="cls-41" d="M177.61,86.49c-1.04.51-6.03,3.66-6.96,3-.43-.31.95-.95-2.59-1.5,2.09-3.61-1.54-4.73,0-6.14,1.59,2.26,2.84-.69,4.23,3.55,3.13-.21,17.41-8.21,18.42-8.18.55.01,1.6,2.3,4.64-1.23.18-2.41-2.05-3.1-3.82-1.77v-.82c.6-.38,2.59-1.86,3-2.46,3.07-.09,2.76,2.92,1.36,5.05-1.85,2.82-14.49,8.66-18.28,10.5Z"/>
          <path class="cls-41" d="M191.53,74.21c-.96.72-1.24,1.99-.82,3-1.01-.03-15.29,7.97-18.42,8.18-1.39-4.24-2.63-1.28-4.23-3.55.3-.27.71-.22.82-.27,4.55.06,18.87-5.78,22.65-8.18v.82Z"/>
          <path class="cls-46" d="M194.53,70.94c-.41.59-2.4,2.07-3,2.46-3.77,2.4-18.09,8.25-22.65,8.18,3.85-1.9,8.23-2.93,12.14-4.64,2.13-.93,4.76-2.6,5.05-2.73,2.3-1.01,6.19-3.21,8.46-3.27Z"/>
          <path class="cls-14" d="M190.71,77.21c-.42-1.01-.14-2.28.82-3,1.77-1.32,4-.64,3.82,1.77-3.04,3.53-4.09,1.24-4.64,1.23Z"/>
        </g>
        <g>
          <path class="cls-14" d="M186.07,73.39v.82c-.29.13-2.92,1.8-5.05,2.73-3.91,1.71-8.29,2.74-12.14,4.64-.11.05-.52,0-.82.27-1.54,1.41,2.09,2.53,0,6.14,3.54.56,2.16,1.2,2.59,1.5.92.66,5.91-2.49,6.96-3q.14.68.27,1.36c-1.13.56-2.3,1.05-3.41,1.64,5.78.53,20.92-.71,23.74-.27,6.51,1.01,6.98,10.45-5.59,11.32,8.7,1.11,9.64,8.76,3.96,11.05-4.26,1.71-11.1.28-15.69.14,4.07,2.26,14.47,1.42,13.91,7.91-.8,9.41-24.78-2.43-26.33-2.32-.91.07-.48,1.92-4.77.41.56.85.05,2.23.68,3.14.94,1.33,20.39,8.84,21.14,13.51,1.99,12.26-25.42-5.42-28.78-7.23,3.55,14.06.68,6.95-8.32,2.18-.19-.1.02-1.55-1.5,1.09-.13-1.04-4.42-6.18-5.18-5.73.09,2.12,3.92,6.29,3.96,6.68,0,.08-.47.31-.55.68-.02.08-.54-.59-.55,1.23,0,4.69,4.51,6.89-2.05,4.77-3.44,4.25-5.53,11.7-5.46,6.28-2.9,3.07-3.64,5.15-2.86,9.41-2.88-4.04-.63,3-.82,3.27-.67.99-4.4-3.39-4.77-3.96-3.7,2.68-1.39,14.05.41,17.73-2.08-.05-.53-3-2.18-1.64-2-8.63-.94-14.27-4.37-13.64-.46.08-.93,7.44-1.09,8.46q-.27-.95-.55-1.91c.21-1.31,1.17-8.06.14-8.46-3.79,3.39-1.23-4.22-6.28-4.37-.8,5.61-3.38.15-6.96-.14,2.23,3.26-2.99.9-6.41-1.5-.46.2,1.1,4.38-.27,4.37-1.95.13-.46-5.26-3.96,6.68-1.42,1.77-2.99-3.14-3.41-3.14-2.81,3.6-3.71,13.01.14,15.55-3.24-.77-1.6-4.33-3.55-3.27-1.45-8.72,1.7-12.91-1.36-11.46-1.17.86-2.84,6.76-3.27,8.46q-.27-.27-.55-.55c.48-1.21,3.08-8.28,3-8.87-.31-2.42-2.16-1.19-2.32-1.23-1.03-.25-1.18-3.38-1.5-3.96-.83-1.51-2.5.71-3.82-8.87.15.18.87.61,1.09.82,1.6,1.71,2.85,5.23,3.41,5.73,1.41,1.25,5.63,1.76,7.5,2.18,1.65.37,3.47.07,4.5,1.64.19-1.09.4-2.29-.27-3.27-.51-.75-14.93-8.6-15.82-8.73-.77-.12-1.16.53-1.23.55-.44.13-.84.82-.95.82-.15,0-1.77-1.91-1.91-1.91-.53,0,.11,1.62-3.14.95,5.42,15.21-3.39,5.97-8.18.14,1.21.82,2.02,2.12,3.14,3,.02.02.28-.38.41-.27,1.63,1.28,3.13,2.54,4.5,4.09,1.28-5.58-3.61-8.26-7.91-10.64-1.4-.77-1.83-.23-1.91-.27-.39-.22-.64-.79-.68-.82-5.3-2.88-5.93-1.68-8.59-9.82-1.4,3.27.87,5.39,1.5,6.82.18.4.36,1.27.55,1.64q-.27.41-.55.82c-.98-1.9-1.99-3.77-2.86-5.73-.89-.11-.5,3.95-2.18,5.18-5.55-6.57-3.74-15.06-6.28-8.73-1.48.46-3.51-9.55-3.68-10.78-1.84-13.39,2.3-16.24-4.5-9.69-1.45-10.19,8.53-20.64.82-13.37,1.29-2.5,3.12-5.5,5.67-8.59,2.14-2.6,4.3-4.67,6.2-6.28q.27-.14.55-.27c-4.45-16.06,1.76-7.33,9.69-.95,1.23-1.61,1.2-12.75.41-13.51-.6-.58-1.35,2.7-1.36-4.09-19.18-4.6-38.68-7.67-58.39-8.73,12.01-14.53,31.99-20.27,50.34-19.51.97-6.14,5.56-5.72,8.18-7.64C62.56,19.14,75.44.71,94.26,0q-4.3,4.3-8.59,8.59.2.2.41.41c7.84-3.68.4,2.41-1.77,4.5,4.25-2.02,7.42-6.62,12.69-5.59q-4.37,3.96-8.73,7.91c9.96-1.6,3.45,1.01,4.37,1.64,10.83-.14,28.7,4.13,13.1,3-.96.55,11.02,2.96,15.14,8.32q-.48.07-.95.14c-10.77-6.7,1.06,2.06,3.68,5.87-.58,1.07-5.88-4.91-6-3.55-.13,1.39,18.15,25.15,4.5,9.69,1.12,5.15,7.35,13.94,2.46,9.55q-.2.34-.41.68,1.98,6.75,3.96,13.51c7.25-2.86,14.77-6.57,7.23,2.59q.07.48.14.95c2.71.05,5.08,1.67,7.64,2.18,5.12,1.03,15.4.22,5.59,2.86,2.27,2.48,5.34,5.88,9.14,5.05.73-.16,6.49-6.47,10.91-10.09,4.66-3.82,20.7-18.43,25.51-9.41,3.18,5.96-5.35,11.36-9.28,14.73.36-.05.73-.09,1.09-.14Z"/>
          <g>
            <path class="cls-14" d="M148.42,129.32c-2.03,1.83-.46,5.38-3.27,2.73.08-.37.55-.6.55-.68-.04-.39-3.87-4.56-3.96-6.68.77-.46,5.05,4.69,5.18,5.73,1.52-2.64,1.31-1.19,1.5-1.09Z"/>
            <path class="cls-41" d="M117.59,45.02c1.81,6.17,1.81,12.5,2.73,18.83-.58.15-3.95,2.96-4.5,2.73-1.27-2.24-.85-5.55-1.77-5.46.12-.29.18-.53.27-.82.02-.06.83-.7.41-1.09-.61.36-.34.98-.41,1.09-2.18,3.4-4.85,7.08-6.28,10.64-.57.94-1.61,1.92-1.64,2.05-.13.72.97,2.66.82,3.68-2.58,1.41-6.23,3.3-8.18.41,1.36-6.16-.99,2.24-.95-2.05-2.8,3.92-2.22,1.69-1.23-1.5-.06-1.36-.2-.14-.55-.14-1.51-.61-3.66,1.8-5.05,2.46-1.27.6-2.57.31-5.05,2.18-2.91,2.19-3.23,5.83-2.73-1.5-1.61-1.17-1.36,7.73-2.05,7.78-2.32-3.31-1.8-2.04-4.91.82q-.14-1.64-.27-3.27c-3.76,3.88-2.43,2.25-2.86,1.91,1.13-4.98-1.23-1.29-2.86.55.12-7.06-4.28,4.47-3.55-2.73-.8,4.31-3.96,1.09-5.73,2.46-.29.22-1.59,6.22-1.77,7.09l-1.09-.27c.78-4.32,2.3-8.54,3.27-12.82.09-.12,1.92-2.1,2.05-2.18.81-.5,11.24-3.05,16.78-8.73.04.85.22,2.67,1.23,2.18,8.12-2.05,16.93-5.33,21.55-12.82.46,5.02,1.86-.16,2.59-2.73h.55c-1.91,6.81,6.98-2.31,5.18-4.09-.01-.01-.3.06-.27-.27.19-.27,1.33-3.36,1.36-3.55.61-3.13-.07-9.79-1.09-12.82,2.25,2.5,5.07,8.85,6,12Z"/>
            <path class="cls-2" d="M67.66,93.85c.29.24.93.3,1.09.68,1.45,3.52-3.54,12.87,15.01,34.38,1.54,1.78,3.13,2.01,2.73,3.68-6.78-4.29-13.92-8.4-19.1-14.73-2.36-2.89-4.37-7.22-4.91-10.91-1.54-10.51,2.46-12.35,2.73-13.91-.43-.96,2.34.72,2.46.82Z"/>
            <path class="cls-46" d="M103.13,81.03c-.22,1.81-.42,3.63-.55,5.46-2.61.11-.91.99-2.46,2.18,0-1.43-.24-2.88.41-4.37-2.74.81-5.52.48-8.32.82-.18.02-.37-.02-.55,0-6.27.81-14.8,4.95-20.19,5.18-4.04.17-4.03-2.46-5.46-1.36-.59-2.96-1.86-2.58-.82-.27-2.39,1.14.79,1.49-3.27,1.91-1.89-.38-1.26-.76-.41-5.18,7.94,1.09,6.97-1.47,7.37-1.36.34.09.29,3.38,3.41,0,.07,2.48.11,2.79,2.86.27q.14.95.27,1.91c4.74.52,3.52-3.24,6.82.82,1.28-7.39,2.93-2.49,9-4.64,2.4-.85,2.81-4.03,6.28-3.27.49.11,1.02,2.36,5.59,1.91Z"/>
            <path class="cls-9" d="M71.48,90.31c.04.18.17.4.27.55-2.65,10.15,1.9,21.92,8.18,29.88,4.72,5.98,7.49,4.95,10.64,14.73-.83.51-1.04-.39-1.09-.41.65-.42-1.67-1.62-3-2.46.4-1.67-1.19-1.9-2.73-3.68-18.55-21.51-13.56-30.86-15.01-34.38-.16-.38-.81-.44-1.09-.68-1.71-3.9-1.66-2.72-2.73-3-.23-.06-.57.05-.82,0-.77-.15-1.48-.13-2.18-.27,4.06-.42.89-.77,3.27-1.91.46,1.01,1.2,2.17.82.27,1.43-1.1,1.42,1.54,5.46,1.36Z"/>
            <path class="cls-41" d="M59.48,91.13c-.16.76-.46,1.88-.55,2.46-.88,6.1-.29,13.52,2.18,19.23,1.65,3.82,2.97,3.55,3.55,4.37,2.71,3.8.42,10.43,3.96,6.14,3.46,4.15,7.8,7.39,11.87,10.91l-2.59-.55.41.82c-.37-.02-.33.51-.27.82-6.1-3.9-13.07-10.52-16.64-16.78-1.55-2.72-2.58-6.28-4.09-8.59-.12-.85.16-3.09,0-3.41-.12-.25-.54-.11-.55-.14.35-5.24.7-10.38,1.64-15.55l1.09.27Z"/>
            <path class="cls-41" d="M120.32,63.84c1.12-.29,2.22.38,3.27.55.11.51.12,1.58.55,1.91-12.78,3.77-11.67,7.5-16.92,10.37.15-1.03-.95-2.96-.82-3.68.02-.13,1.06-1.1,1.64-2.05,2.1-3.45,4.41-5.91,6-9.82.92-.09.5,3.22,1.77,5.46.55.23,3.92-2.58,4.5-2.73Z"/>
            <g>
              <path class="cls-41" d="M188.8,118.41c-2.46,2.04,5.16,4.65-4.5,2.73-1.37-.27-14.64-4.96-15.28-5.46-.82-.64.02-1.32-.41-2.86-.19-.67-1.6-1.81-.82-2.32,7.51,6.25,17.77,6.21,20.87,7.37.21.08.14.36.14.55Z"/>
              <path class="cls-41" d="M188.8,118.41c0-.18.08-.47-.14-.55-3.1-1.16-13.36-1.12-20.87-7.37-.72-.6-2.04-1.5-1.23-1.64,4.99,2.41,31.48,6,25.65,11.73.52-2.6-1.28-3.66-3.41-2.18Z"/>
            </g>
            <g>
              <path class="cls-41" d="M164.52,124.68c.78,1.68,11.9,6.51,14.19,7.64-2.71,2.47.63,3.6-.68,3.82-5.31-1.85-16.62-7.23-20.46-10.64-8.92-9.04,2.42-.51,6.96-.82Z"/>
              <path class="cls-41" d="M178.71,132.32c-2.29-1.13-13.41-5.96-14.19-7.64-.16-.35-.51-1.98.14-2.18,4.1,3.2,23.32,9.32,18.28,14.19-5.46.96,2.23-1.6-2.73-4.64l-1.5.27Z"/>
            </g>
            <path class="cls-41" d="M102.59,86.49c0,.09,0,.18,0,.27-.56,8.6-.7,17.25.82,25.78l-3.27-1.77c.02-.19,1.01-2.8,1.09-3.68.24-2.61-1.13-10.79-1.09-18.42,1.55-1.2-.16-2.07,2.46-2.18Z"/>
            <path class="cls-14" d="M73.39,83.76c-.83-.65-1.13-1.07-1.09.27-3.12,3.38-3.07.09-3.41,0-.39-.11.57,2.45-7.37,1.36-.85,4.43-1.48,4.8.41,5.18.7.14,1.41.13,2.18.27-1.29,5.19-3.23-.73-4.09,2.18l-1.09.55c.08-.58.39-1.69.55-2.46.18-.87,1.48-6.87,1.77-7.09,1.77-1.36,4.93,1.85,5.73-2.46-.73,7.19,3.66-4.34,3.55,2.73,1.63-1.83,4-5.53,2.86-.55Z"/>
            <path class="cls-41" d="M96.31,73.39c-5.25,10.8-8.69,6.14-9.41,6.28-.35.07-.57,1.56-1.64,1.36q.48-1.5.95-3c2.48-1.87,3.78-1.58,5.05-2.18,1.39-.66,3.54-3.07,5.05-2.46Z"/>
            <path class="cls-46" d="M64.93,90.85c-.19,2.08.29,2.07.27,2.18-.27,1.57-4.27,3.4-2.73,13.91-1.63-2.8-3.31-11.03-2.46-13.91.86-2.91,2.8,3,4.09-2.18.25.05.59-.06.82,0Z"/>
            <path class="cls-15" d="M78.03,135.32c0,.05.83.97-.14,1.09-8.9-5.43-19.1-15.76-20.6-26.46,1.51,2.32,2.54,5.88,4.09,8.59,3.57,6.26,10.55,12.88,16.64,16.78Z"/>
            <path class="cls-20" d="M86.49,132.6c1.33.84,3.65,2.03,3,2.46-7.99-3.03-18.33-9.22-22.1-17.19,5.17,6.33,12.31,10.45,19.1,14.73Z"/>
            <g>
              <path class="cls-37" d="M115.95,103.13c.85,1.53,7.43,11.13,8.05,11.46.15.08,2.81.42,3.41.55,5.46,6.97,10.26,14.47,16.1,21.14-11.26-6.41-25.46-15.75-30.83-28.24,2.47,2.45,4.11,6.43,6.55,9.14,1.26,1.4,5.37,5.27,6.55,4.5l.82-.14c-4.87-5.43-8.04-11.93-11.46-18.28.05-1.52.75-.17.82-.14Z"/>
              <path class="cls-37" d="M125.78,121.68c-1.18.76-5.29-3.1-6.55-4.5-2.44-2.71-4.08-6.69-6.55-9.14-.43-1-2.61-6.11-2.46-6.68,3.83-3.72,3.84,3.28,7.91,10.37,2.09,3.63,5.02,6.72,7.64,9.96Z"/>
              <path class="cls-36" d="M127.41,115.14c-.6-.13-3.26-.47-3.41-.55-.62-.32-7.2-9.93-8.05-11.46,4.78,2.23,8.35,8.04,11.46,12Z"/>
            </g>
            <g>
              <path class="cls-41" d="M104.77,133.69c3.62,2.41,4.56,3.24,6.55,7.37l-.95,1.09c-6.85-5.86-.97.13-1.23,4.37-7.35-5.26-10.34-7.66-3,.14-1.96.78-21.51-8.64-18.42-10.5q3.14,1.5,6.28,3l-1.64-6c1.05.98,9.76,5.49,9.96,4.5-1.98-6.85-4.78-8.78,2.46-3.96Z"/>
              <path class="cls-32" d="M111.32,141.05c.24.5.85,1.15,1.09,1.91,2.87,8.95-.23,5.73-3.27,3.55.25-4.23-5.62-10.22,1.23-4.37l.95-1.09Z"/>
              <path class="cls-1" d="M112.41,142.96c-.24-.76-.85-1.41-1.09-1.91-1.99-4.12-2.93-4.96-6.55-7.37.89-.55,8.22,1.94,8.46,2.32.19.31-.21,6.66-.82,6.96Z"/>
            </g>
            <g>
              <path class="cls-22" d="M81.58,32.19c6.66,7.31-.35,18.19-9.55,12.28-4.04-5.79,1.64-12.26-.82-6.82-.69,8.3,13.72,9.23,10.37-1.64-.6-1.96-1.87-3.63-3.82-4.5,1.32-.43,2.63.14,3.82.68Z"/>
              <path class="cls-7" d="M72.03,44.47c9.2,5.92,16.21-4.97,9.55-12.28,3.46,1.56,4.33,5.71,3.55,9.14-1.34,5.85-9.56,8.21-13.1,3.14Z"/>
              <path class="cls-38" d="M71.21,37.65c.74-.17.55,1.96,2.59,3.27,4.29,2.76,8.85.54,7.78-4.91,3.35,10.86-11.06,9.94-10.37,1.64Z"/>
            </g>
            <path class="cls-11" d="M119.77,45.56c.83,3.03,5.54,18.78,5.18,20.33-.05.22-.54.5-.82.41-.42-.33-.43-1.4-.55-1.91-1.5-6.68-3.07-12.95-5.46-19.37-.03-.08-.38-1.39,0-1.36.22.41,1.22,1.87,1.64,1.91Z"/>
            <path class="cls-25" d="M85.53,2.46c4.07-.73-2.14,1.9-4.37,3.27-2.67,1.64-5.43,3.54-7.91,5.46-5.84,4.5-10.25,10.58-16.51,14.32,5.09-4.26,9.44-9.3,14.6-13.51,2.07-1.69,12.4-9.23,14.19-9.55Z"/>
            <g>
              <path class="cls-36" d="M147.06,88.67c3.32,4.34,13.57,8.58,19.1,12.55-1.15.99-13.8-5-15.69-6.28-2.75-1.87-4.21-3.05-4.23-6.68.51-.48.78.39.82.41Z"/>
              <path class="cls-17" d="M166.16,101.22c-5.53-3.97-15.77-8.21-19.1-12.55,2.16.72,17.02,9.86,18.69,11.46.56.54.8.57.41,1.09Z"/>
            </g>
            <g>
              <path class="cls-41" d="M162.06,79.94c9.58-5.29,18.31-11.67,26.19-19.23.17-1.39-.89-1.57-1.91-2.05-.25-.12-.52-.23-.55-.55,4.74-1.14,9.35.01,6.82,5.87-2.17,5.03-23.51,16.58-25.78,16.78-.29.03-.14-.82-1.09-.82-.29,0-1.99,1.44-2.46,1.36-.26-.04-.99-1.18-1.23-1.36Z"/>
              <path class="cls-41" d="M162.06,79.94c-.43-.34-1.63-.7-1.91-1.77,2.46-2.25,4.77-4.59,7.37-6.68.1-.08,1.28-.37,1.5-.55,5.57-4.41,10.97-9.02,17.32-12.28,1.02.48,2.08.65,1.91,2.05-7.89,7.56-16.62,13.94-26.19,19.23Z"/>
              <path class="cls-40" d="M185.8,58.11c.03.32.3.43.55.55-6.36,3.26-11.75,7.87-17.32,12.28-.22.17-1.4.47-1.5.55,4.76-3.92,12.4-11.96,18.28-13.37Z"/>
            </g>
            <path class="cls-15" d="M58.39,90.85c-.94,5.17-1.29,10.31-1.64,15.55,0-.03-.42.11-.55-.14-.86-1.74,2.04-23.71,5.46-28.24-.97,4.28-2.49,8.5-3.27,12.82Z"/>
            <path class="cls-1" d="M102.59,86.76c0-.09,0-.18,0-.27.13-1.82.32-3.64.55-5.46,1.48-.15,4.11-1.71,3.82-.95-2.49,3.85-.45,7.1-4.37,6.68Z"/>
            <g>
              <path class="cls-36" d="M169.43,92.76c-2.5,1.53-12.56.84-11.32-2.46,2.03,1.13,4.88.39,3.14,0v-1.64c2.72,1.37,5.59,2.46,8.18,4.09Z"/>
              <path class="cls-31" d="M155.51,85.67c1.79,1.06,3.86,2.06,5.73,3v1.64c-5.66-.11-5.79-3.66-9.82-6.96.27-1.25,1.4.72,4.09,2.32Z"/>
              <path class="cls-17" d="M169.43,92.76c-2.59-1.63-5.46-2.72-8.18-4.09-1.87-.94-3.94-1.94-5.73-3,3.28.33,16.91,6.52,13.91,7.09Z"/>
            </g>
            <g>
              <path class="cls-41" d="M155.24,100.95q5.46,6.55,10.91,13.1c-1.45,4.57-6.55-4.19-11.19-7.5-.45-7.28-3.46-9.09.27-5.59Z"/>
              <path class="cls-34" d="M166.16,114.04q-5.46-6.55-10.91-13.1c1.86,1.75,11.58,11,10.91,13.1Z"/>
            </g>
            <path class="cls-7" d="M92.49,150.06c-1.87-.43-6.1-.94-7.5-2.18-.56-.5-1.81-4.02-3.41-5.73,3.75,3.62,6.02,5.65,10.91,7.91Z"/>
            <g>
              <path class="cls-18" d="M132.87,69.85c.17.97,3.55,1.13,5.05,1.64,2.17.74,5,2.75,7.23,3,.37.28.55.59.82.82l.14.82c-6.23-1.72,3.04,1.03.68,3-2.17,3.41-20.97,5.58-25.37,6-3.5.34-7.12.57-10.64.55,1.29-4.08,3.38-7.71,6.55-10.64,4.04-3.74,5.96-3.61,6.28-3.82l-.14.55c2.01-.9,3.74-2.44,5.59-3.68q-.61-.61-1.23-1.23c11.67-5.05,9.91-4.02,1.5,3.96.27.57,1.77-.78,3.55-.95Z"/>
              <path class="cls-10" d="M121.41,85.12c0,.5.51.74.82,1.09-3.04-1.7-.24,10.02-1.23,10.09l-5.73-4.91c-1.01.2,1.77,13.72-1.77,5.18-.77-1.86-.98-6.84-3.82-6,.31-2.48.35-2.56,1.09-4.91,3.52.02,7.14-.21,10.64-.55Z"/>
              <path class="cls-29" d="M144.87,83.49c-.59-.36-1.17-.75-1.77-1.09-.44.69.12,1.14.14,1.36-2.63,2.06-6.15,1.54-9.28,1.64-1.09-.58-2.25-1.58-2.18-.27-1.56,2.52-6.03,1.36-9,1.64-.17-.19-.36-.33-.55-.55-.31-.35-.81-.59-.82-1.09,4.4-.43,23.21-2.59,25.37-6,2.01,2.6-.18,3.01-1.91,4.37Z"/>
              <path class="cls-5" d="M117.32,75.03c-3.17,2.93-5.26,6.56-6.55,10.64-.74,2.35-.78,2.44-1.09,4.91-.43,3.4-.75,4.72,0,8.46l-.55-.14c-1.21-8.28-1.83-14.41,3.27-21.42,2.55-.51,3.21-3.83,4.91-2.46Z"/>
              <path class="cls-10" d="M143.24,83.76c.11,1.19,1.37,8.41.95,8.73-3.24-2.43-6.65-5.2-10.23-7.09,3.13-.09,6.65.42,9.28-1.64Z"/>
              <path class="cls-18" d="M131.78,85.12q-.2,4.23-.41,8.46c-3.13-2.18-5.98-4.02-8.59-6.82,2.97-.28,7.44.89,9-1.64Z"/>
              <path class="cls-18" d="M145.97,75.3c8.98,7.57,2.23,3.79,1.91,4.5.83.79,2.46,3.5,2.73,4.37,2.18,6.89-1.35,1.95-5.73-.68,1.73-1.36,3.92-1.77,1.91-4.37,2.36-1.97-6.91-4.73-.68-3l-.14-.82Z"/>
              <path class="cls-23" d="M123.59,71.21c-.31.21-2.24.08-6.28,3.82-1.7-1.37-2.37,1.95-4.91,2.46,3.51-4.82,8.4-7.81,14.05-9.55.82.46-2.32,2.91-2.86,3.27Z"/>
              <path class="cls-29" d="M113.5,96.58c-3.96-8.01-.68-.49-3.82,2.46-.75-3.74-.43-5.06,0-8.46,2.84-.84,3.05,4.14,3.82,6Z"/>
              <path class="cls-23" d="M145.15,74.48c-2.23-.25-5.06-2.26-7.23-3-1.5-.51-4.88-.66-5.05-1.64,4.79-.48,8.6,1.82,12.28,4.64Z"/>
            </g>
            <path class="cls-47" d="M154.29,78.85c5.56-.26,4.44.62,8.05,4.5-.36.66-4.92-3.13-8.05-3.96v-.55Z"/>
            <path class="cls-20" d="M75.98,33.01c6.01,1.38-2.09,7.06-1.23.95l1.23-.95Z"/>
            <path class="cls-34" d="M80.49,134.23c8.19,7.1,4.73,5.03-2.18.27l-.41-.82,2.59.55Z"/>
            <g>
              <path class="cls-17" d="M145.42,101.22c1.45,1.76,3.13,3.47,4.64,5.18.16.32.43.49.55.82-1.83,1.01-3.34-.88-6.14-1.64-1.34-.36-8.69-2.1-9.41-1.91-2.32.57,1.37,10.4-.68,10.37-2.86-2.63-10.49-8.19-12.41-10.64-4.73-6.02,1.12-2.08,2.18-3.41.72-.89-.04-5.09.27-6.41q2.11,1.5,4.23,3c.88-.09-.21-1.31,1.23-1.64.41.22,2.76,1.53,3,1.23.31-2.33.24-4.62.55-6.96,3.62,3.42,8.07,10.33,12,12Z"/>
              <path class="cls-17" d="M135.05,103.68c.72-.19,8.07,1.55,9.41,1.91,2.8.76,4.31,2.65,6.14,1.64,1.86-1.47-3.45-9.93-3.82-12.28,5.18,3.72,5.66,11.74,6.55,13.23.56.94,4.33,2.73,4.5,4.5-3.31-1.47-8.73-4.65-11.73-5.73-3.61-1.3-7.87-1.47-11.05-3.27Z"/>
              <path class="cls-36" d="M146.78,94.95c.37,2.34,5.68,10.81,3.82,12.28-.11-.33-.39-.5-.55-.82-2.61-5.29-8.15-9.46-10.91-14.73,5.36,3.55,7.68,6.55,6.82,3.68l.82-.41Z"/>
              <path class="cls-36" d="M138.33,91.13c-.35.4.07.95.27,1.23,2.13,2.98,4.49,6.03,6.82,8.87-3.93-1.67-8.38-8.58-12-12,0-.07-.79-.61.14-1.36,1.46,1.26,3.15,2.25,4.77,3.27Z"/>
              <path class="cls-36" d="M125.78,92.49c-.85-.11-1.17.28-1.36,1.09-.32,1.33.44,5.52-.27,6.41-1.07,1.33-6.91-2.61-2.18,3.41-2.05-.6-5.55-6.07-3.96-6.55,6.87,5.56,5.68-.14,5.32-5.87.46-.76,1.88,1.15,2.46,1.5Z"/>
              <path class="cls-21" d="M139.14,91.67c2.76,5.27,8.31,9.44,10.91,14.73-1.51-1.72-3.19-3.42-4.64-5.18-2.33-2.83-4.69-5.89-6.82-8.87-.2-.28-.62-.83-.27-1.23.28.18.54.36.82.55Z"/>
              <path class="cls-17" d="M125.78,92.49c1.18.7,3.08,1.92,4.09,2.46-1.44.32-.35,1.54-1.23,1.64q-2.11-1.5-4.23-3c.19-.82.52-1.2,1.36-1.09Z"/>
            </g>
            <path class="cls-1" d="M165.75,84.03c1.39-.05,1.38,5.16-2.05,2.32q1.02-1.16,2.05-2.32Z"/>
            <g>
              <path class="cls-41" d="M159.61,115.41q1.36,2.46,2.73,4.91c0,.41.69,1.92-1.23,1.36-2.14-.62-10.44-7.24-12.69-9.41-.17-1.56,9.96,3.27,10.5,3.41.35.09.4-.27.68-.27Z"/>
              <path class="cls-30" d="M162.34,120.32q-1.36-2.46-2.73-4.91c-.07-2.7,2.7,1.38,2.73,4.91Z"/>
            </g>
            <path class="cls-21" d="M88.26,150.88c4.48.27,1.32,4.49-.41,1.23l.41-1.23Z"/>
            <path class="cls-19" d="M153.2,87.03c4.22,4.92,2.44,6.41-.41.41l.41-.41Z"/>
            <path class="cls-39" d="M94.54,153.06c2.29-.52,2.32,6.86-.41.41l.41-.41Z"/>
            <g>
              <path class="cls-17" d="M145.97,119.77l.82-1.64c.16.16,3.45,2.36,3.82,1.91,2.45,3.94,4.59,7.98,6,12.41l-.41.41c-6.27-5.79-13.7-10.24-18.96-17.05.24-.7,6.16,4.27,8.73,3.96Z"/>
              <path class="cls-36" d="M146.78,118.14l-.82,1.64c-1.96-1.86-14.22-9.11-5.87-5.73.79-.45-2.17-1.46,2.32-3.82.64,1.47,4.04,7.58,4.37,7.91Z"/>
              <path class="cls-17" d="M150.6,120.05c-.37.45-3.66-1.75-3.82-1.91-.32-.33-3.72-6.44-4.37-7.91l.68-.27c2.64,3.25,5.28,6.53,7.5,10.09Z"/>
              <path class="cls-39" d="M140.78,110.5c-2.13,2.05-3.69-.88-2.46-1.64l2.46,1.64Z"/>
              <path class="cls-17" d="M140.78,110.5l-2.46-1.64c1.04-.64,4.55-.38,2.46,1.64Z"/>
            </g>
            <path class="cls-46" d="M66.84,29.74c-4.97.28-3.58.65-2.18-1.36l2.18,1.36Z"/>
            <path class="cls-27" d="M92.35,153.33c1.03.12-1.26,3.96-.95.95l.95-.95Z"/>
            <g>
              <path class="cls-33" d="M103.13,21.28c-.53,1.27.1.75.27,1.64-7.54-2.21-20.28.62-28.1,2.18-4.98,1-10.09,2.69-10.64,2.73-1.4.11-2.04.08-2.18-1.5.52-2.04,24.34-11.09,40.65-5.05Z"/>
              <path class="cls-13" d="M119.77,45.56c-.42-.04-1.41-1.5-1.64-1.91-3.31-6.06-6.72-15.75-12.82-19.64-.21-.13-.36-.64-1.91-1.09-.17-.88-.8-.37-.27-1.64,3.31,1.22,6.56,2.98,8.73,5.87,1.58,2.1,7.83,14.65,8.46,17.19.27,1.09-.56,1.16-.55,1.23Z"/>
              <path class="cls-24" d="M118.14,43.65c-.38-.03-.03,1.28,0,1.36h-.55c-.93-3.16-3.75-9.5-6-12-1.16-3.44-3.96-6.33-6.28-9,6.11,3.89,9.52,13.59,12.82,19.64Z"/>
            </g>
            <path class="cls-41" d="M111.59,49.66c-.41,2.41-4.79,2.69-5.18,4.09h-.55c.34-1.18.23-1.95.27-2.05.31-.7,1.23-.26,1.64-.41,1.21-.45,2.74-.77,3.55-1.91-.03.33.26.26.27.27Z"/>
            <g>
              <path class="cls-46" d="M75.3,25.1c.08,3.25,1.02,1.29,2.46,3.27-3.64.27-7.23,1.16-10.91,1.36l-2.18-1.36s-.02-.32,0-.55c.55-.04,5.66-1.73,10.64-2.73Z"/>
              <g>
                <path class="cls-2" d="M103.4,22.92c1.55.45,1.7.96,1.91,1.09,2.31,2.67,5.12,5.57,6.28,9,1.02,3.03,1.7,9.69,1.09,12.82q-1.36-3.62-2.73-7.23c-.98-1.1-.33.72-.55,2.59-.17,1.46-.19,2.97-1.09,4.23q.95-.34,1.91-.68c0,.14.74.43.27,2.59-.35,1.62-1.89,2.66-2.73,3.96-.4.15-1.33-.29-1.64.41-.04.09.06.87-.27,2.05-.73,2.57-2.13,7.75-2.59,2.73-4.63,7.49-13.44,10.77-21.55,12.82-1.01.48-1.19-1.33-1.23-2.18-.18-4.28.96-.27,1.23-.27,1.25-4.79,2.4-4.22,3.14-5.59,1.63-3.03.78-4.92.82-5.18.05-.33,3.5-2.06-1.91-4.91,6.98-2.22,2.14-4.18,2.18-4.64.07-.67,3.27-.62,2.18-4.09,6.39-1.1,2.22-5.31,2.18-5.73-.16-1.82,3.22.68-2.18-4.91-.09-.09.27-.62-.41-1.23-.07-.06-1.3.14-1.77-.41-.56-.65.86-1.55-3.14-2.05-1.69-.21-3.38.15-5.05.27-1.44-1.98-2.38-.02-2.46-3.27,7.82-1.56,20.56-4.39,28.1-2.18Z"/>
                <g>
                  <path class="cls-46" d="M112.68,45.84c-.04.19-1.17,3.27-1.36,3.55-.81,1.14-2.34,1.46-3.55,1.91.84-1.3,2.38-2.33,2.73-3.96.47-2.17-.26-2.45-.27-2.59-.11-1.89.44-3.65-.82-3.55.22-1.87-.44-3.69.55-2.59q1.36,3.62,2.73,7.23Z"/>
                  <path class="cls-8" d="M110.22,44.74q-.95.34-1.91.68c.9-1.26.92-2.77,1.09-4.23,1.26-.1.71,1.65.82,3.55Z"/>
                  <path class="cls-20" d="M94.54,49.11c2.24.95.13,3.25-.95.95l.95-.95Z"/>
                  <path class="cls-20" d="M93.72,43.65c2.52,1.06-1.01,3.44-.68.41l.68-.41Z"/>
                  <path class="cls-20" d="M99.99,31.92l.95.68c.36,1.76-3.13.85-.95-.68Z"/>
                  <path class="cls-20" d="M93.45,51.57c2.32-.21.85,2.73-.41.95l.41-.95Z"/>
                  <path class="cls-4" d="M107.91,47.75c1.68.4.4,2.58-.68.95l.68-.95Z"/>
                </g>
              </g>
            </g>
            <path class="cls-41" d="M118.14,45.02c2.38,6.42,3.96,12.69,5.46,19.37-1.06-.16-2.15-.83-3.27-.55-.92-6.33-.92-12.66-2.73-18.83h.55Z"/>
            <path class="cls-46" d="M106.4,53.75c.39-1.4,4.77-1.69,5.18-4.09,1.79,1.78-7.09,10.9-5.18,4.09Z"/>
            <path class="cls-2" d="M114.04,61.11c-1.59,3.92-3.9,6.37-6,9.82,1.43-3.56,4.09-7.24,6.28-10.64-.09.29-.16.53-.27.82Z"/>
            <path class="cls-9" d="M114.32,60.3c.07-.11-.2-.73.41-1.09.42.39-.39,1.04-.41,1.09Z"/>
            <g>
              <path class="cls-3" d="M30.97,48.56c2.93-.07,23.03-.18,24.01.55.05.17.13.41.23.71.29.95.48,1.64.51,1.72.18.64.93,1.84,3.22,4.25-8.94-1.24-17.67-3.77-26.6-5.05-14.72-2.1-25.71-1.62-1.36-2.18Z"/>
              <path class="cls-44" d="M37.92,33.29c-12.34,1.94-24.38,7.25-34.38,14.73l-.82-.14c6.96-7.16,22.13-14.54,31.78-15.69,5.34-.63,3.24.5,3.41,1.09Z"/>
              <path class="cls-44" d="M50.2,33.29c-3.27-.66-6.56-.03-9.82.27,0-.08-.47-.23-.27-1.5.27-.42,7.72-.63,8.59-.41.91.23,1.42,1.56,1.5,1.64Z"/>
              <g>
                <path class="cls-3" d="M50.2,33.29c3.8,3.38,6.34,9.69,8.05,14.46-18.2-1.29-36.48-.18-54.7.27,9.99-7.48,22.04-12.8,34.38-14.73,2.81,9.64,6.85,11.79,6.55,9.14-2.07-2.58-4.1-5.44-4.09-8.87,3.26-.31,6.55-.94,9.82-.27Z"/>
                <path class="cls-14" d="M45.15,35.74c13.32,1.56.95,11.62-.68.68l.68-.68Z"/>
              </g>
            </g>
            <path class="cls-14" d="M67.66,93.85c-.12-.1-2.88-1.78-2.46-.82.02-.11-.46-.1-.27-2.18,1.07.28,1.02-.9,2.73,3Z"/>
            <path class="cls-40" d="M66.03,88.94c.38,1.9-.36.74-.82-.27-1.05-2.3.23-2.68.82.27Z"/>
            <g>
              <path class="cls-41" d="M171.34,100.68c2.44,2.79-2.28,3.67-.95,4.37,6.99,1,14.03,2.74,21.14,1.91,3.3,2.91,6.85-1.34,2.73-3.82.25-.05.52-.28.55-.55,2.11.66,4.58,2.89,3.55,5.32-4.02,6.97-34.75-.75-36.42-3.41v-.82c2.78.83,9.62-.2,6.68-4.37.41.24,1.91.43,2.73,1.36Z"/>
              <path class="cls-41" d="M186.89,101.49c2.5.4,5.55.35,7.91,1.09-.03.26-.29.5-.55.55-2.34.43-3.53.84-2.73,3.82-7.11.83-14.16-.91-21.14-1.91-1.32-.7,3.4-1.57.95-4.37.6-.95,3.07.35,4.23.55,3.71.63,7.64.86,11.32,1.23v-.95Z"/>
              <path class="cls-41" d="M186.89,101.49v.95c-3.69-.37-7.62-.59-11.32-1.23-1.15-.2-3.63-1.49-4.23-.55-.81-.93-2.32-1.13-2.73-1.36-1.02-.6-2.5-1.34-.95-1.36,6.29,1.89,12.81,2.52,19.23,3.55Z"/>
              <path class="cls-14" d="M194.26,103.13c4.12,2.48.57,6.73-2.73,3.82-.8-2.98.39-3.39,2.73-3.82Z"/>
            </g>
            <g>
              <path class="cls-41" d="M114.04,126.87c.66.12,3.81,2.84,4.09,3.82-2.22.59-3.96,1.43-8.05-.27-4.64-1.94-4.87-9.18-5.18-13.64,2.97,4.74,1.75-2.15,1.23-8.73,1.41,3.58,2.77,6.99,4.64,10.37,2.92,5.28,2.2,5.76,5.73,4.37,1.44,2.02-.7,2.92-2.46,3.82"/>
              <path class="cls-1" d="M114.59,118.41h-3.82c-1.87-3.38-3.23-6.79-4.64-10.37-.52-6.52-1.62-12.92-.82-19.51l.55.27c.13,10.68,1.4,21.31,8.73,29.6Z"/>
              <path class="cls-41" d="M118.41,121.96c1.53,1.45,6.97,5.44,6.82,5.87-2.33.98-4.63,2.21-7.09,2.86-.28-.98-3.43-3.7-4.09-3.82v-.27c1.76-.9,3.89-1.8,2.46-3.82.52-.2,1.04-.99,1.91-.82Z"/>
              <path class="cls-41" d="M114.59,118.41c.17.2,2.93,2.71,3.82,3.55-.87-.17-1.39.61-1.91.82-3.53,1.39-2.81.91-5.73-4.37h3.82Z"/>
            </g>
            <g>
              <path class="cls-41" d="M174.07,92.76c3.34,2.06,15.57,2.22,19.92,1.36,1.28,5.4,8.47-.63,2.73-2.73l-.27-1.09c1.56.18,3.96.77,4.37,2.59,2.09,9.38-25.6,4.7-30.42,3.14-1.17-.63,3.72-.15,3.68-3.27Z"/>
              <path class="cls-41" d="M196.44,90.31l.27,1.09c-1.54-.16-2.89,1.19-2.73,2.73-4.35.86-16.58.7-19.92-1.36-.12-.07-1.68-1.79-1.77-2.18,6.17.52,20.98-.64,24.15-.27Z"/>
              <path class="cls-14" d="M196.71,91.4c5.74,2.1-1.45,8.13-2.73,2.73-.16-1.54,1.19-2.89,2.73-2.73Z"/>
            </g>
            <g>
              <path class="cls-43" d="M91.67,85.12c-.3.56-.8,1.07-1.09,1.64-1.53,1.22-3.15,2.86-4.37,4.37-3.7-1.47-1.79-.1-2.18,2.46-.01.09-1.36,1.64-.82,1.64-.86.5-1.32,1.53-2.46,1.64-2.46-3.66-5.97-2.46-6.68-2.73-.19-.07-2-2.81-2.32-3.27-.1-.14-.23-.37-.27-.55,5.39-.23,13.92-4.37,20.19-5.18Z"/>
              <path class="cls-46" d="M80.49,96.86c-.28,1.31-3.48,2.36-4.91,2.46.18-3.97-1.32,2.18-2.18,1.64-.16-1.34-.31-2.74-.27-4.09l1.64-1.36c1.02.78.99-.01,2.32.27.91.19,2.81,1.06,3.41,1.09Z"/>
              <path class="cls-2" d="M74.76,95.49l-1.64,1.36c.02-.99-.24-2.02.41-2.46,1.76.71,1.15,1.03,1.23,1.09Z"/>
              <path class="cls-46" d="M90.58,86.76c-.12.23-1.19,2.63-.95,2.73,2.39-1.78,2.67-4.05,5.32-1.36-4.13,2-7.77,4.8-11.73,7.09-.54,0,.8-1.54.82-1.64,1.18.16,2.06-2.3,2.18-2.46,1.22-1.5,2.83-3.15,4.37-4.37Z"/>
              <g>
                <path class="cls-2" d="M100.13,88.67c-.04,7.63,1.33,15.81,1.09,18.42-.08.88-1.07,3.49-1.09,3.68-.26,2.79.01,7.61.27,10.5.8,8.93,3.66,9.2-4.23,3.68-.72.46,2.09,5.96,1.5,6.82-1.21-1.28-18.9-11.09-22.37-26.33-1.06-4.64.2-4.39.27-6.14,1.43-.1,4.63-1.15,4.91-2.46.09,0,.19,0,.27,0,1.14-.11,1.59-1.14,2.46-1.64,3.96-2.3,7.6-5.1,11.73-7.09.33.34-.23.83.14.82.77-.03-.24-1.88,2.46,1.09.09-4.65,0-5.9-2.18-2.73-2.24-1.34-.31-1.59-3.14-2.18,2.8-.34,5.58-.01,8.32-.82-.65,1.49-.4,2.94-.41,4.37Z"/>
                <path class="cls-20" d="M75.57,99.31c-.08,1.74-1.33,1.5-.27,6.14,3.47,15.24,21.16,25.05,22.37,26.33,4.46,4.71-3.98-1.01-8.05-3.82-8.05-6.65-14.97-16.42-16.23-27.01.86.55,2.36-5.61,2.18-1.64Z"/>
                <path class="cls-14" d="M92.22,85.12c2.83.59.9.84,3.14,2.18,2.19-3.18,2.28-1.92,2.18,2.73-2.69-2.97-1.69-1.12-2.46-1.09-.37.02.2-.48-.14-.82-2.65-2.68-2.93-.42-5.32,1.36-.24-.1.83-2.49.95-2.73.29-.57.79-1.07,1.09-1.64.18-.02.37.02.55,0Z"/>
                <path class="cls-40" d="M89.08,112.13c6.82,8.56,6.54,10.95-.41.68l.41-.68Z"/>
                <path class="cls-14" d="M98.63,86.22c1.1-.09,1.91,4.41-.68,1.77l.68-1.77Z"/>
              </g>
              <path class="cls-14" d="M86.22,91.13c-.13.16-1,2.62-2.18,2.46.39-2.56-1.52-3.92,2.18-2.46Z"/>
            </g>
            <g>
              <path class="cls-37" d="M53.07,105.04c.45,8.43,4.01,14.23-1.36,21.83-4.08-9.64-.51-12.66,1.36-21.83Z"/>
              <path class="cls-39" d="M59.75,123.59c.51,1.19.71,2.33,1.36,3.55.29,2.27,2.64,5.9,1.77,6-6.18-2.39-4.67-11.37-6.96-17.6.91-1.55,2.93,5.97,3.82,8.05Z"/>
              <path class="cls-39" d="M61.11,127.14c-.65-1.21-.85-2.36-1.36-3.55.65-.64,2.54,2.76,4.09,4.5,2.79,3.13,7.78,6.14,6.68,9.41-1.1.1-8.63-8.91-9.41-10.37Z"/>
              <g>
                <path class="cls-18" d="M55.11,84.03c-4.81,6.67-3.54,8.05-10.64,12.82-1.66,1.12-3.42,2.1-5.05,3.27-.47-1.88.12-2.07.14-2.18,2.71-6.97,6.53-13.38,12-18.55,1.24,1.5,2.57,2.93,3.55,4.64Z"/>
                <path class="cls-16" d="M44.47,96.86c7.1-4.77,5.83-6.15,10.64-12.82.06.1,1.09.79,1.09,1.77,0,.47-1.99,6.07-2.46,9-1.03,6.48,1.01,12.24-4.23,1.23-2.45,1.32-6.46,8.27-5.05.82Z"/>
                <path class="cls-45" d="M51.29,70.94c.37,3.06,1.9,6.23,4.09,8.18.7,1.29,2.44,3.04.68,4.09-4.11-3.95-6.25-7.71-6.68-13.51.33-1.05,1.54.87,1.91,1.23Z"/>
                <path class="cls-44" d="M51.57,79.39c-5.48,5.17-9.3,11.58-12,18.55.65-5.98,3.52-8.65,3.55-9.14.02-.39-.82-1.17-.82-1.36,0-.65,8.77-10.23,9.28-8.05Z"/>
                <path class="cls-10" d="M55.39,79.12c-2.2-1.96-3.72-5.12-4.09-8.18.88.85,7.08,7.51,7.09,8.05,0,.11-.82,1.14-.95,2.05-1.25-2.01-1.94-1.82-2.05-1.91Z"/>
              </g>
              <path class="cls-39" d="M47.34,120.86c.49,1.48,3.93,9.16,3.96,9.69.2,3.84-4.77-3.68-3.96-9.69Z"/>
              <g>
                <path class="cls-36" d="M48.84,106.13s-.69.12-.82.55c-.02-1.61-.11-3.22,1.09-4.5-3.12,1.52-2.27,6.66-2.46,8.87-.15,1.82.63,5.16-2.18,7.5-1.71-7.27.09-14.26,0-15.01-.02-.2-.38-.14-.55-.14,1.3-.57,5.63-4.04,6.55-1.77.38.95-1.02,3.61-1.64,4.5Z"/>
                <path class="cls-17" d="M43.93,103.4c.17,0,.52-.06.55.14.09.75-1.71,7.73,0,15.01,2.82-2.35,2.03-5.68,2.18-7.5q.34-1.36.68-2.73c.42,1.51.48,3.74,1.23,3.55-.07,1.01-.75,3.74-1.09,4.64-.67,1.76-2.11,3.24-2.73,5.05-1.02.71-2.68-12-2.73-13.1-.32-7.13.48-4.42,1.91-5.05Z"/>
                <path class="cls-37" d="M47.47,116.5c.35-.9,1.03-3.63,1.09-4.64.23-3.56-.54-4.88-.55-5.18.13-.42.79-.51.82-.55,1.06,2.32.99.86,2.86-.27,1.12.88-2.87,9.51-4.23,10.64Z"/>
                <path class="cls-14" d="M48.02,106.68c0,.31.78,1.63.55,5.18-.75.2-.8-2.03-1.23-3.55q-.34,1.36-.68,2.73c.18-2.21-.66-7.34,2.46-8.87-1.2,1.28-1.11,2.89-1.09,4.5Z"/>
              </g>
            </g>
            <g>
              <path class="cls-41" d="M126.87,134.23c.77,4.19,5.96,4.99,9.28,6.55-3.86,4.29-3.87,7.49-4.09,7.91-1.61-1.36-.35-2.83-.55-3.14-.1-.16-1.83.36-1.91.41v-.27c3.74-4.07,2.28-4.06-2.73-6.82,2.06-1.53.14-2.31-1.09.27-1.88.73-3.27,1.25-5.46,1.09-3.26-.24-2.22-.62-1.36-5.18.4-.4,4.51-2.44,4.77-2.46,1.32-.08,2.09,1.19,3.14,1.64Z"/>
              <path class="cls-46" d="M129.6,145.69v.27c-.74.43-2.29,2.33-2.46,3.27-.29.01-.84.32-2.46.27-2.76-2.62-6.87-4.02-7.09-8.46.12-1.99.05-4.69,1.36-6-.86,4.57-1.89,4.95,1.36,5.18.5.77,1.27,1.27,1.91,1.91"/>
              <path class="cls-1" d="M136.14,140.78c-3.31-1.56-8.51-2.36-9.28-6.55,2.64,1.13,5.3,2.42,8.05,3.27,5.49,1.7,4.63-.51,1.23,3.27Z"/>
              <path class="cls-2" d="M124.68,149.51c-1.12-.03-7.05-1.54-7.37-2.59-.08-.28.22-5.07.27-5.87.22,4.44,4.33,5.84,7.09,8.46Z"/>
              <path class="cls-41" d="M132.05,148.69c-.62,1.17-.9-.26-3.96,0-.05,0-.69.54-.95.55.17-.95,1.72-2.84,2.46-3.27.08-.05,1.81-.57,1.91-.41.19.31-1.06,1.78.55,3.14Z"/>
              <path class="cls-21" d="M122.64,151.15q1.77.27,3.55.55c.48,5.59-5.13-.14-3.55-.55Z"/>
              <path class="cls-21" d="M128.64,150.6c3.75-.96,4.51,6.71-.41.41l.41-.41Z"/>
              <path class="cls-41" d="M129.6,145.69c-1.67-1.01-5.66-1.63-6.82-2.46-.05-.04.03-.52-.55-1.09-.64-.63-1.41-1.14-1.91-1.91,2.18.16,5.71-2.42,7.59-3.16.22-.09-.08,2.8,1,2,5.01,2.76,4.43,2.55.69,6.61Z"/>
            </g>
          </g>
        </g>
      </g>
    </g>
    <path class="cls-14" d="M187.62,59.85c1.77-1.32,4-.64,3.82,1.77-3.04,3.53-4.09,1.24-4.64,1.23"/>
    <path class="cls-28" d="M122.91,183.08c-1.17-2.02-1.05-4.17-1-5,.11-1.74.58-2.06.32-3-.42-1.54-2.01-2.46-3.32-3,.67-.31,1.7-.72,3-1,1.97-.42,3.62-.77,5,0,1.44.81.88,1.9,3,4,1.09,1.09,2.15,1.7,2,2-.12.25-.89-.06-2,0-1.31.07-2.45.59-3,1-2.39,1.77-.85,6.69-2,7-.73.2-1.81-1.67-2-2Z"/>
  </g>
</svg>