<?xml version="1.0" encoding="UTF-8"?>
<svg id="Camada_2" data-name="Camada 2" xmlns="http://www.w3.org/2000/svg" xmlns:xlink="http://www.w3.org/1999/xlink" viewBox="0 0 48 48">
  <defs>
    <style>
      .cls-1 {
        fill: #975d53;
      }

      .cls-1, .cls-2, .cls-3, .cls-4, .cls-5, .cls-6, .cls-7, .cls-8, .cls-9, .cls-10, .cls-11, .cls-12, .cls-13, .cls-14, .cls-15, .cls-16, .cls-17, .cls-18, .cls-19, .cls-20, .cls-21, .cls-22, .cls-23, .cls-24, .cls-25, .cls-26, .cls-27, .cls-28, .cls-29, .cls-30, .cls-31, .cls-32, .cls-33, .cls-34, .cls-35, .cls-36, .cls-37, .cls-38, .cls-39, .cls-40, .cls-41, .cls-42, .cls-43, .cls-44, .cls-45, .cls-46, .cls-47, .cls-48, .cls-49, .cls-50, .cls-51, .cls-52, .cls-53, .cls-54, .cls-55, .cls-56, .cls-57, .cls-58, .cls-59, .cls-60, .cls-61, .cls-62, .cls-63, .cls-64, .cls-65, .cls-66, .cls-67, .cls-68, .cls-69, .cls-70, .cls-71, .cls-72, .cls-73, .cls-74, .cls-75, .cls-76, .cls-77, .cls-78, .cls-79, .cls-80, .cls-81, .cls-82, .cls-83, .cls-84, .cls-85, .cls-86, .cls-87, .cls-88, .cls-89, .cls-90, .cls-91, .cls-92, .cls-93, .cls-94, .cls-95, .cls-96, .cls-97, .cls-98, .cls-99, .cls-100, .cls-101, .cls-102, .cls-103, .cls-104, .cls-105, .cls-106, .cls-107, .cls-108, .cls-109, .cls-110, .cls-111, .cls-112, .cls-113, .cls-114, .cls-115, .cls-116, .cls-117, .cls-118, .cls-119, .cls-120, .cls-121, .cls-122, .cls-123, .cls-124, .cls-125, .cls-126, .cls-127, .cls-128, .cls-129, .cls-130, .cls-131, .cls-132, .cls-133, .cls-134, .cls-135, .cls-136, .cls-137, .cls-138, .cls-139, .cls-140, .cls-141, .cls-142, .cls-143, .cls-144, .cls-145, .cls-146, .cls-147, .cls-148, .cls-149, .cls-150, .cls-151, .cls-152, .cls-153 {
        stroke-width: 0px;
      }

      .cls-2 {
        fill: #e3e0e5;
      }

      .cls-3 {
        fill: #fafafb;
      }

      .cls-4 {
        fill: #826e89;
      }

      .cls-5 {
        fill: #99cbe8;
      }

      .cls-6 {
        fill: #f2d5ae;
      }

      .cls-7 {
        fill: #a86b4b;
      }

      .cls-8 {
        fill: #9791a6;
      }

      .cls-9 {
        fill: #882c54;
      }

      .cls-10 {
        fill: #a894b6;
      }

      .cls-11 {
        fill: #3e3244;
      }

      .cls-12 {
        fill: #f6e6c1;
      }

      .cls-13 {
        fill: #af566a;
      }

      .cls-14 {
        fill: #2b2745;
      }

      .cls-15 {
        fill: #cb7150;
      }

      .cls-16 {
        fill: #ecddeb;
      }

      .cls-154 {
        letter-spacing: -.24em;
      }

      .cls-17 {
        fill: #8a364d;
      }

      .cls-18 {
        fill: #eae6f2;
      }

      .cls-19 {
        fill: #f1daba;
      }

      .cls-20 {
        fill: #9d8ba3;
      }

      .cls-21 {
        fill: #b6a5b2;
      }

      .cls-22 {
        fill: #8a2e54;
      }

      .cls-23 {
        fill: #2d151f;
      }

      .cls-24 {
        fill: #edeeeb;
      }

      .cls-25, .cls-155, .cls-156, .cls-157, .cls-158 {
        fill: #dddfe8;
      }

      .cls-26 {
        fill: #50263d;
      }

      .cls-27 {
        fill: #541219;
      }

      .cls-28 {
        fill: #c06348;
      }

      .cls-29 {
        fill: #e8e7f0;
      }

      .cls-30 {
        fill: #3b435c;
      }

      .cls-31 {
        fill: #fbfbfb;
      }

      .cls-32 {
        fill: #f0e1c0;
      }

      .cls-33 {
        fill: #4a66a5;
      }

      .cls-34 {
        fill: #b59ba9;
      }

      .cls-35 {
        fill: #8e4349;
      }

      .cls-36 {
        fill: #49526c;
      }

      .cls-37 {
        fill: #fbfdfd;
      }

      .cls-38 {
        fill: #5b94c5;
      }

      .cls-39 {
        fill: #666f7e;
      }

      .cls-40 {
        fill: #b5a0a6;
      }

      .cls-41 {
        fill: #7071a2;
      }

      .cls-42 {
        fill: #170f20;
      }

      .cls-43 {
        fill: #733c44;
      }

      .cls-44 {
        fill: #aa94a4;
      }

      .cls-45 {
        fill: #a299aa;
      }

      .cls-155 {
        stroke: #08060e;
      }

      .cls-155, .cls-156, .cls-157, .cls-158 {
        font-family: Anthrope-Regular, Anthrope;
        font-size: 7.5px;
        glyph-orientation-vertical: 0deg;
        text-orientation: upright;
        writing-mode: tb;
      }

      .cls-155, .cls-158 {
        stroke-miterlimit: 10;
        stroke-width: .1px;
      }

      .cls-46 {
        fill: #c2b9c7;
      }

      .cls-47 {
        fill: #8b4b5f;
      }

      .cls-48 {
        fill: #f6f3eb;
      }

      .cls-49 {
        fill: #a992a0;
      }

      .cls-50 {
        fill: #bf9fb4;
      }

      .cls-51 {
        fill: #85485f;
      }

      .cls-52 {
        fill: #b7acb9;
      }

      .cls-53 {
        fill: #ed6e5e;
      }

      .cls-54 {
        fill: #9a88a4;
      }

      .cls-55 {
        fill: #885177;
      }

      .cls-56 {
        fill: #eff5f6;
      }

      .cls-57 {
        fill: none;
      }

      .cls-58 {
        fill: #666e7d;
      }

      .cls-59 {
        fill: #af556a;
      }

      .cls-60 {
        fill: #a18da5;
      }

      .cls-61 {
        fill: #c8e7ef;
      }

      .cls-62 {
        fill: #f0edf0;
      }

      .cls-63 {
        fill: #e6ecf3;
      }

      .cls-64 {
        fill: #f2dbb1;
      }

      .cls-65 {
        fill: #ba6a5a;
      }

      .cls-66 {
        fill: #803053;
      }

      .cls-67 {
        fill: #e8f0f3;
      }

      .cls-68 {
        fill: #31304e;
      }

      .cls-159 {
        clip-path: url(#clippath-1);
      }

      .cls-69 {
        fill: #150e1f;
      }

      .cls-70 {
        fill: #bcabae;
      }

      .cls-156, .cls-158 {
        letter-spacing: -.13em;
      }

      .cls-71 {
        fill: #b65c52;
      }

      .cls-72 {
        fill: #89899d;
      }

      .cls-73 {
        fill: #f0e2ca;
      }

      .cls-74 {
        fill: #ebeef4;
      }

      .cls-75 {
        fill: #a56974;
      }

      .cls-76 {
        fill: #f1dbb9;
      }

      .cls-77 {
        fill: #322e4d;
      }

      .cls-78 {
        fill: #e99e6f;
      }

      .cls-79 {
        fill: #673544;
      }

      .cls-80 {
        fill: #e79565;
      }

      .cls-81 {
        fill: #f5ede7;
      }

      .cls-82 {
        fill: #f4d5a2;
      }

      .cls-83 {
        fill: #97a7bb;
      }

      .cls-84 {
        fill: #998b95;
      }

      .cls-85 {
        fill: #30192b;
      }

      .cls-86 {
        fill: #c68f7c;
      }

      .cls-87 {
        fill: #311322;
      }

      .cls-88 {
        fill: #a8645e;
      }

      .cls-89 {
        fill: #af6c6a;
      }

      .cls-90 {
        fill: #c9a29a;
      }

      .cls-91 {
        fill: #95576e;
      }

      .cls-92 {
        fill: #63c4de;
      }

      .cls-93 {
        fill: #9fabd0;
      }

      .cls-94 {
        fill: #6e3944;
      }

      .cls-95 {
        fill: #def0f7;
      }

      .cls-96 {
        fill: #160e1f;
      }

      .cls-97 {
        fill: #875176;
      }

      .cls-98 {
        fill: #b34f68;
      }

      .cls-99 {
        fill: #e9665d;
      }

      .cls-160 {
        letter-spacing: -.2em;
      }

      .cls-100 {
        fill: #6974a4;
      }

      .cls-101 {
        fill: #a5b7db;
      }

      .cls-102 {
        fill: #292845;
      }

      .cls-103 {
        fill: #eedcc4;
      }

      .cls-161 {
        clip-path: url(#clippath);
      }

      .cls-104 {
        fill: #5b2a41;
      }

      .cls-105 {
        fill: #f4e7dc;
      }

      .cls-106 {
        fill: #ba9fa9;
      }

      .cls-107 {
        fill: #b0a2c0;
      }

      .cls-108 {
        fill: #b8928a;
      }

      .cls-109 {
        fill: #ecebf0;
      }

      .cls-110 {
        fill: #6e3844;
      }

      .cls-111 {
        fill: #2b2747;
      }

      .cls-112 {
        fill: #5f4c5f;
      }

      .cls-113 {
        fill: #602d4c;
      }

      .cls-114 {
        fill: #631a1d;
      }

      .cls-115 {
        fill: #a7dae8;
      }

      .cls-116 {
        fill: #6d3746;
      }

      .cls-117 {
        fill: #85708d;
      }

      .cls-118 {
        fill: #2c2747;
      }

      .cls-119 {
        fill: #acbcde;
      }

      .cls-120 {
        fill: #61241b;
      }

      .cls-121 {
        fill: #f3eeeb;
      }

      .cls-122 {
        fill: #4c2b3d;
      }

      .cls-123 {
        fill: #4e6b9a;
      }

      .cls-124 {
        fill: #c35e4d;
      }

      .cls-125 {
        fill: #e96660;
      }

      .cls-126 {
        fill: #5f2c40;
      }

      .cls-127 {
        fill: #3a405a;
      }

      .cls-128 {
        fill: #f2e6cd;
      }

      .cls-129 {
        fill: #5585be;
      }

      .cls-130 {
        fill: #1a0d1b;
      }

      .cls-131 {
        fill: #3a3a4f;
      }

      .cls-162 {
        letter-spacing: -.23em;
      }

      .cls-132 {
        fill: #bcbfd1;
      }

      .cls-133 {
        fill: #9e8eac;
      }

      .cls-134 {
        fill: #fdfdfd;
      }

      .cls-135 {
        fill: #59273b;
      }

      .cls-136 {
        fill: #facda1;
      }

      .cls-137 {
        fill: #eef1f4;
      }

      .cls-138 {
        fill: #80374c;
      }

      .cls-139 {
        fill: #fafbfc;
      }

      .cls-140 {
        fill: #200e14;
      }

      .cls-158 {
        stroke: #0c0916;
      }

      .cls-141 {
        fill: #c1e4ed;
      }

      .cls-142 {
        fill: #f1f1f1;
      }

      .cls-143 {
        fill: #7977aa;
      }

      .cls-144 {
        fill: #b98286;
      }

      .cls-145 {
        fill: #c38161;
      }

      .cls-146 {
        fill: #f3eee8;
      }

      .cls-147 {
        fill: #555f83;
      }

      .cls-148 {
        fill: #c0b7c3;
      }

      .cls-149 {
        fill: #f0e6e1;
      }

      .cls-150 {
        fill: #70719d;
      }

      .cls-151 {
        fill: #485169;
      }

      .cls-152 {
        fill: #160e20;
      }

      .cls-153 {
        fill: #77c3ec;
      }
    </style>
    <clipPath id="clippath">
      <rect class="cls-57" y="0" width="48" height="48"/>
    </clipPath>
    <clipPath id="clippath-1">
      <rect class="cls-57" y="0" width="48" height="48"/>
    </clipPath>
  </defs>
  <g id="Camada_2-2" data-name="Camada 2">
    <rect class="cls-102" width="48" height="48"/>
    <g>
      <g class="cls-161">
        <g>
          <path class="cls-25" d="M11.91,9.91c.19-.51.29-1.05.67-1.61.69-1.04,1.3-2.12,2.09-3.09.78-.97,1.68-1.82,2.57-2.67.24-.23.57-.28.88-.13.33.16.54.42.55.82.02.46-.09.89-.2,1.33-.19.82-.48,1.61-.62,2.45-.15.86-.49,1.68-.72,2.52-.28,1.01-.67,1.99-.84,3.02-.16.93.02,1.81.58,2.6.23.32.35.33.62.04.65-.69,1.31-1.36,2.14-1.87,1.01-.62,2.12-.95,3.27-1.21.13-.03.3-.03.39-.12.54-.55,1.22-.29,1.85-.34.07,0,.16.03.21.08.41.46.99.48,1.52.62,1.67.42,3.1,1.22,4.25,2.51.08.09.17.18.26.27.4.41.52.39.82-.08.33-.51.46-1.06.48-1.66.04-1.32-.3-2.58-.75-3.79-.54-1.44-.86-2.93-1.23-4.41-.12-.49-.25-.99-.39-1.48-.07-.26-.06-.52.03-.77.18-.52.63-.73,1.13-.5.32.14.61.34.86.59,1.42,1.37,2.62,2.91,3.65,4.59.86,1.41,1.51,2.92,1.88,4.53.18.78.26,1.57.21,2.38-.05.81,0,1.62-.26,2.41-.15.45-.3.89-.51,1.31-.06.18-.21.3-.29.46h0c-.09.16-.21.29-.3.45-.74.94-1.66,1.64-2.81,2.01-.38.12-.53.33-.49.71.01.12.02.26-.07.36-.3.32-.21.66-.11,1.04.24.9.42,1.81.63,2.71.03.13.09.26.14.38.15.75.71,1.3,1.47,1.44.16.03.26-.02.36-.13.25-.28.43-.6.59-.94.18-.64.64-1.08,1.09-1.53.42-.41,1.05-.32,1.64.18.36.3.55.63.4,1.11-.07.3-.26.52-.48.72-.2.2-.4.4-.54.65-.16.37-.52.54-.78.82-.19.2-.31.41-.16.69.04.38.32.65.47.97.37.77.32,1.55-.03,2.31-.14.3-.2.58-.09.9.28.8.19,1.63.24,2.45,0,.14.1.52.27,1.27.49,2.25.75,3.38.96,3.85.11.24.27.57.37,1.06.12.56.11,1.04.08,1.36.08.17.06.36.14.53.28,1.38.64,2.19.93,2.69.09.16.23.36.36.7.3.73.15.92.45,1.49.12.23.23.35.19.52-.03.16-.2.29-.5.46h0c-.25.03-.5.04-.74,0-1.38-.37-2.73-.82-4.03-1.4-.3-.13-.59-.1-.88-.05-1.06.16-2.13.23-3.21.21-.05,0-.1,0-.15,0-.28.03-.31.08-.14.31.28.38.5.78.46,1.27-.13.46-.26.57-.71.59-.25,0-.49.02-.74-.03-.28-.09-.57-.05-.86-.05-.82,0-1.65,0-2.47,0-.72,0-.99-.24-1.1-.96-.04-.25-.03-.5-.04-.75,0-.24-.14-.38-.37-.38-1.06,0-2.12-.04-3.18.02-.2.01-.4.04-.6.05-.35.02-.46.13-.49.49-.02.19,0,.38-.01.56-.05.58-.41.94-1,.96-.16,0-.32,0-.48.06-1.22.06-2.43.04-3.65,0-.33,0-.68-.07-.82-.47-.06-.51.22-.9.46-1.31.05-.08.17-.15.11-.26-.06-.1-.18-.06-.28-.06-.99-.07-1.99-.05-2.97-.26-.54-.11-1.05.02-1.53.24-1.17.55-2.42.84-3.66,1.19-.41-.03-.82-.09-1.23,0-.74.25-1.48.5-2.23.74-.06.02-.12.03-.18.05-.24.08-.44.05-.6-.15-.18-.21-.1-.43.01-.62.3-.49.59-.98.92-1.45.36-.52.51-1.14.87-1.67.28-.41.59-.75.99-1.04.17-.12.33-.26.5-.39.13-.27.25-.55.6-.6h0c.3-.14.48-.42.76-.59h0c.2-.1.35-.25.45-.45.05-.1.1-.2.15-.3.3-.87.49-1.75.42-2.68,0-.11-.03-.22.03-.33.33-.76.53-1.57.56-2.37.02-.44.28-.81.22-1.24-.05-.43.18-.86,0-1.29-.06-.15-.03-.33.07-.47.39-.57.3-1.27.5-1.89.08-.25-.13-.53-.23-.78-.39-.94-.16-1.78.35-2.59.04-.06.08-.13.12-.19.34-.54.33-.62-.13-1.08-.58-.58-1.07-1.25-1.68-1.81-.15-.14-.22-.33-.2-.54.09-.82,1.3-1.53,2.05-1.21.14.06.26.15.32.3.31.84.91,1.51,1.33,2.28.14.26.4.33.67.16.14-.09.27-.22.42-.24.62-.09.77-.56.89-1.06.25-1.03.5-2.05.72-3.08.09-.4.17-.81-.19-1.16-.14-.14-.08-.36-.06-.54.03-.28-.09-.46-.37-.52-1.28-.29-2.18-1.15-2.94-2.14-.71-.91-1.06-2-1.23-3.16-.09-.65-.12-1.29-.12-1.94,0-.34.18-.65.13-1,.17-.75.45-1.8.9-3.02Z"/>
          <path class="cls-25" d="M36.39,26.75c-.03.44-.34.74-.58,1.05-.14.17-.37.1-.56.02-.23-.1-.44-.22-.67-.33-.48-.22-.64-.62-.61-1.12.14.77.73,1.06,1.35,1.35.31.14.43-.06.58-.24.18-.23.27-.52.49-.73Z"/>
          <path class="cls-25" d="M9.8,40.48c.18,1-.09,1.94-.32,2.89-.02.06-.05.11-.13.12.04-.44.21-.85.28-1.29.08-.52.13-1.03.11-1.55,0-.06.04-.11.05-.17Z"/>
          <path class="cls-25" d="M37.57,29.38c-.26-.22-.15-.44.03-.64.28-.31.58-.59.88-.89.04.03.05.07.01.11,0,.3-.26.42-.44.56-.29.22-.52.46-.48.86Z"/>
          <path class="cls-25" d="M38.49,27.96s0-.07-.01-.11c.04-.21.19-.34.33-.48.27-.27.54-.53.72-.87.07.3-.14.48-.31.67-.23.27-.48.53-.73.79Z"/>
          <path class="cls-25" d="M8.76,44.24c-.21.25-.36.58-.76.59.22-.24.41-.51.76-.59Z"/>
          <path class="cls-25" d="M8,44.83c-.28.12-.38.42-.6.6.07-.33.14-.67.6-.6Z"/>
          <path class="cls-25" d="M9.21,43.79c-.02.28-.15.45-.45.45.13-.17.27-.33.45-.45Z"/>
          <path class="cls-25" d="M36.98,18.7c.02-.21.12-.35.29-.46.03.24-.11.36-.29.46Z"/>
          <path class="cls-25" d="M36.68,19.15c.02-.2.12-.36.3-.45.01.23-.11.36-.3.45Z"/>
          <path class="cls-25" d="M11.16,12.32c.04.22-.07.41-.14.61-.04-.22-.03-.43.14-.61Z"/>
          <path class="cls-25" d="M39.98,44.09c-.12-.16-.18-.33-.14-.53.16.15.17.33.14.53Z"/>
          <path class="cls-25" d="M30.82,27.56c.08.35.18.71-.12,1.02-.12.13-.03.25.06.37.39.52.61,1.11.68,1.76.03.44.05.87-.1,1.29-.14.38-.22.42-.59.28-.2-.08-.17.09-.21.17-.24.56-.45,1.14-.78,1.66-.33.51-.69.98-1.17,1.35-.3.23-.46.19-.55-.19-.11-.46-.23-.92-.38-1.41-.22.14-.32.35-.44.53-.48.74-1.11,1.31-1.87,1.75-.39.22-.76.26-1.18.11-1.05-.37-1.73-1.16-2.39-1.98-.11-.13-.16-.38-.35-.34-.19.04-.16.29-.21.45-.08.28-.13.56-.22.84-.13.42-.35.48-.68.18-.83-.76-1.35-1.72-1.77-2.75-.05-.13-.07-.27-.17-.4-.16.02-.25.27-.45.16-.19-.11-.26-.3-.33-.48-.17-.4-.12-.81-.07-1.22.07-.68.39-1.26.7-1.85.11-.12.15-.25.05-.4-.16-.23-.15-.48-.11-.74.15-.23.34-.13.48-.02.27.21.56.23.89.18.4-.06.8-.07,1.19.03.15.03.29.08.38.21.1.27-.11.59.12.84.64.64,1.79.82,2.56.39.47-.27.91-.24,1.38.01.79.43,1.57.23,2.34-.1.16-.07.27-.22.37-.37.14-.21.02-.44.05-.67.3-.34.69-.53,1.12-.4.52.16.98.09,1.43-.16.11-.06.21-.13.35-.09Z"/>
          <path class="cls-25" d="M16.35,10.38c-.2.9-.48,1.78-.48,2.72,0,.7.16,1.36.39,2.01-.09.25.04.46.16.66.18.29.37.59.61.85.21.23.33.52.42.82-.16.49-.31.98-.58,1.42-.1.11-.23.11-.35.09-1.98-.24-3.62-1.03-4.56-2.9-.12-.25-.43-.39-.4-.72-.25-2.37.42-4.54,1.49-6.61.21-.09.31-.29.41-.47.91-1.59,2.07-2.99,3.4-4.25.22-.21.44-.45.8-.3.06.19-.07.34-.14.49-.96,1.99-1.66,4.07-2.2,6.2-.01.04-.04.09,0,.16.16-.17.31-.36.54-.43.24-.07.45-.08.49.25Z"/>
          <path class="cls-25" d="M35.87,8.48c.81,1.62,1.45,3.29,1.58,5.12.17,1.15-.06,2.22-.76,3.14-.65.86-1.51,1.48-2.54,1.85-.38.14-.76.25-1.15.33-.31.06-.62.06-.9-.14-.26-.34-.33-.76-.53-1.12-.1-.12-.13-.27-.13-.42.08-.38.29-.67.61-.91.57-.42.78-1.05.95-1.69.01-.05-.02-.09-.05-.14.32-1.25.14-2.48-.22-3.69-.04-.14-.08-.29-.11-.43.04-.35.2-.44.48-.27.27.17.44.43.68.71-.08-.65-.24-1.23-.41-1.8-.47-1.59-1.06-3.14-1.77-4.65-.06-.14-.13-.27-.12-.43.11-.27.28-.29.5-.11.59.5,1.18,1.01,1.64,1.63.58.79,1.28,1.51,1.72,2.4.12.24.33.44.55.6Z"/>
          <path class="cls-25" d="M32.02,33.27c.13-1.03.12-2.06-.14-3.07-.04-.33.07-.49.44-.6.55-.16,1.11-.12,1.67-.05.31.04.59.17.94.19-.06-.22-.24-.27-.38-.35-.64-.36-1.36-.48-2.06-.65-.12-.03-.24-.05-.37-.08-.39-.08-.66-.28-.69-.71-.14-.5-.12-.53.41-.52.29,0,.59-.09.86.08-.23.16-.48.06-.71.07,1.47.23,2.88.68,4.09,1.61.49.37.91.82,1.29,1.3.08.1.11.26.3.24.29.59.12,1.16-.08,1.73-.08.23-.27.1-.41.11-.04.13.09.18.09.28-.07.3.06.53.25.73.12.16.04.35.07.53.06.23.02.47-.03.7-.05.26-.27.43-.54.45-.97.06-1.94.11-2.89-.15-.58-.15-1.1-.42-1.54-.81-.3-.27-.55-.58-.56-1.01Z"/>
          <path class="cls-25" d="M11.55,35.7c.02-.06.05-.11.07-.17-.3-.48-.16-1.01-.19-1.52.03-.08.14-.04.16-.17.05-.38.28-.72.25-1.12-.6-.35-.55-.95-.59-1.51,0-.07,0-.15.08-.19.39-.56.74-1.15,1.26-1.62.93-.83,2.02-1.32,3.21-1.63.22-.06.43-.12.66-.15.37,0,.73,0,1.08-.13.21.2-.07.4,0,.59-.07.47-.43.57-.82.61-.84.09-1.63.37-2.37.76-.16.09-.33.18-.44.34.5-.17,1.01-.27,1.52-.35.31-.05.62-.06.93,0,.46.09.77.45.73.82-.25.96-.28,1.94-.15,2.93.05.45-.2.76-.5,1.02-.79.67-1.72.99-2.74,1.04-.34.01-.67.01-1.01,0-.41-.02-.73.11-.94.48-.08.07-.15.05-.2-.03Z"/>
          <path class="cls-25" d="M30.82,27.56c-.4.22-.78.5-1.27.46-.09,0-.19.01-.26-.03-.52-.3-.92,0-1.33.24-.14,0-.15-.11-.2-.19-.19-.35-.44-.67-.7-.97-.68-.78-1.56-1.04-2.56-.96-.11,0-.22.05-.33.04-1.22-.07-2.01.59-2.66,1.52-.12.18-.17.42-.42.5-.5-.32-1.04-.27-1.58-.18-.34.06-.63.05-.9-.2-.11-.1-.27-.28-.41-.01-.16-.06-.08-.18-.07-.29,0-1.03,0-2.06.1-3.08.15-.25.39-.18.61-.16.27.03.53.13.79.21.23.1.32.26.28.51-.04.23.03.45.09.66.12.43.39.74.84.81.43.07.81-.11,1.09-.46.02-.03.04-.06.07-.09.44-.68.39-.85-.34-1.16-.68-.29-1.35-.59-2.02-.9-.17-.08-.34-.16-.48-.28-.07-.06-.13-.12-.11-.22.02-.1.12-.12.2-.14.1-.02.2-.02.3-.02.73,0,1.45,0,2.18,0,.14,0,.27.02.41.03.36.04.52.26.52.61,0,.04.02.09.02.13.38.76.98,1.26,1.79,1.51.05,0,.1,0,.15,0,.28-.07.48-.26.69-.44.23-.19.44-.41.68-.59.26-.2.42-.46.4-.8-.01-.23.11-.34.32-.39.17-.04.34-.07.52-.07.75,0,1.5,0,2.24,0,.06,0,.12,0,.19,0,.1.02.21.02.24.14.04.12-.06.18-.14.24-.16.1-.32.2-.48.29-.65.31-1.32.59-1.97.9-.13.07-.27.14-.38.24-.09.09-.16.19-.16.33.01.43.52,1.02.94,1.1.81.14,1.36-.37,1.33-1.26,0-.29,0-.55.32-.69.31-.12.64-.18.97-.22.19-.02.38,0,.43.23.03,1.03.05,2.05.08,3.08Z"/>
          <path class="cls-25" d="M17.52,30.7c.04.48,0,.97.26,1.42.18.32.24.33.44.03.04-.06.07-.15.16-.12.09.03.11.13.13.21.23.76.58,1.46,1.03,2.11.26.37.55.71.88,1.02.24.23.37.2.47-.13.12-.41.21-.82.32-1.23.03-.12.04-.27.2-.28.13,0,.19.11.25.2.31.51.73.92,1.13,1.34.41.43.91.69,1.45.9.36.14.68.09,1-.09.78-.43,1.42-1.01,1.9-1.77.09-.15.2-.29.31-.42.07-.08.08-.25.22-.21.12.03.09.19.12.29.12.44.22.89.34,1.34.06.22.13.3.35.12,1.01-.82,1.56-1.92,2-3.11.07-.18.08-.54.36-.09.14.23.29.02.36-.14.19-.45.17-.93.24-1.39.24.91.15,1.82-.06,2.72-.21.9-.52,1.76-1,2.55-.25.08-.22-.12-.24-.25-.03-.26,0-.52-.02-.84-.18.22-.3.43-.49.57-.53.76-1.17,1.42-1.88,2.03-.28.17-.47,0-.65-.18-.35-.38-.39-.39-.84-.09-.38.26-.77.51-1.19.7-.25.11-.49.12-.76,0-.53-.22-1.06-.43-1.54-.75-.38-.25-.49-.22-.8.11-.16.18-.3.42-.61.28-.83-.58-1.48-1.34-2.03-2.18-.23-.2-.32-.5-.51-.72,0,.32.02.65,0,.97-.02.16-.04.37-.31.28-.58-1.03-.94-2.14-1.08-3.31-.08-.63-.11-1.27.09-1.89Z"/>
          <path class="cls-25" d="M32.02,33.27c.6,1.36,1.78,1.74,3.12,1.88.58.06,1.16,0,1.75,0,.4,0,.59-.19.63-.57.01-.16.05-.32.08-.48.13.53.17,1.07.05,1.61-.02.08-.05.16-.02.25.31,1.12.37,2.3.71,3.42.15.49.34.96.52,1.44.07.17.1.33.08.51-.06.54.13,1.04.22,1.56.23,1.2.34,2.42.69,3.6.2.66.43,1.3.73,1.92.05.1.16.21.07.34-.31.02-.5-.16-.67-.4-.83-1.21-1.23-2.58-1.56-3.98-.42-1.81-.81-3.62-1.53-5.34-.34-.8-1.01-1.29-1.79-1.61-1.16-.48-2.33-.96-3.46-1.51-.25-.12-.36-.3-.26-.53.28-.68.38-1.41.65-2.1Z"/>
          <path class="cls-25" d="M17.97,43.94c.03-.07.07-.15.1-.22.1-.1.22-.11.35-.11.63.04,1.25-.1,1.85-.24.81-.18,1.5-.01,2.11.56.52.49,1.15.81,1.87.86.9.06,1.7-.28,2.29-.92.52-.56,1.04-.75,1.79-.53.59.17,1.23.21,1.85.27.22.02.45.01.64.18-.01.24.15.54-.21.68-.64.28-1.34.25-1.95.41.62,0,1.28-.23,1.96-.26.55-.05.58-.1.47-.63-.04-.19-.01-.39-.02-.58.05-.08-.02-.22.11-.26.09-.03.14.03.16.11.08.34.16.68.23,1.02.11.52.04.64-.48.77-1.24.31-2.51.4-3.79.45-1.59.07-3.17.1-4.76.04-1.6-.06-3.19-.11-4.76-.5-.52-.13-.55-.16-.47-.68.04-.27.1-.54.15-.81.05-.07.04-.22.19-.18.17.05.18.18.11.32,0,.02-.01.05,0,.07-.04.59.04.7.59.82.59.13,1.19.23,1.74.29-.54-.13-1.15-.19-1.74-.34-.39-.09-.47-.24-.37-.61Z"/>
          <path class="cls-25" d="M11.68,35.76c.15-.46.35-.61.86-.6.89,0,1.78.06,2.62-.3.8-.33,1.54-.72,1.78-1.66.25.74.38,1.52.66,2.25.04.11.01.24-.11.29-.3.12-.55.34-.85.47-1.1.48-2.23.88-3.28,1.45-.45.25-.8.62-1.04,1.09-.51.99-.97,2-1.2,3.1-.05.23-.1.45-.23.68-.16.29-.24.26-.42.06-.03-.03-.08-.05-.13-.07-.09-.11-.05-.24-.03-.36.33-1.97.63-3.95,1.15-5.89.05-.18.06-.38.22-.51Z"/>
          <path class="cls-25" d="M4.94,50.11c-.08.08-.19.12-.27.06-.11-.08,0-.19.05-.26.42-.72.9-1.42,1.25-2.17.36-.81.92-1.38,1.61-1.91,1.74-1.33,3.27-2.9,4.93-4.32.7-.6,1.13-.6,1.8.04,0,.26-.18.41-.33.56-.86.85-1.78,1.64-2.66,2.47-.89.84-1.85,1.6-2.68,2.51-.43.47-.95.81-1.54,1.04-.22.09-.4.21-.55.37-.44.46-.93.87-1.32,1.38-.08.1-.2.14-.29.24Z"/>
          <path class="cls-25" d="M4.94,50.11c.5-.73,1.15-1.32,1.8-1.9.36-.32.91-.38,1.3-.72.12-.11.26-.2.37-.31,1.61-1.61,3.33-3.09,5-4.63.33-.31.65-.62.9-1,.75.65.77,1.07.06,1.77-1.75,1.71-3.52,3.41-5.27,5.11-.29.28-.62.49-.99.65-1.03.42-2.08.77-3.16,1.04Z"/>
          <path class="cls-25" d="M19.58,16.07c-.18-.37-.53-.53-.89-.68-.13-.05-.3-.03-.4-.16-.03-.1.03-.17.1-.22.69-.55,1.39-1.07,2.21-1.43.09-.04.19-.07.29-.03.18.21-.03.29-.14.37-.3.21-.59.42-.85.67-.12.11-.3.23-.22.43.08.21.28.32.5.34.54.05,1.07-.03,1.6-.11.42-.06.83-.15,1.25-.16,0,.45.04.91-.07,1.35-.09.9-.18,1.81-.32,2.71-.09.52-.17.6-.71.6-.65,0-1.3,0-1.95,0-.41,0-.59-.17-.55-.57.07-.78.12-1.57.24-2.35.04-.27.04-.52-.07-.77Z"/>
          <path class="cls-25" d="M26.03,15.92c-.01-.4-.13-.79-.07-1.2.13,0,.14.12.18.21.06.12.15.21.28.23.77.07,1.53.31,2.32.16.31-.06.54-.18.62-.49.34.04.61.35.56.65-.12.1-.24.21-.37.31-.19.25-.18.54-.14.82.11.82.11,1.64.16,2.46.03.51-.05.57-.55.62-.7.07-1.39.03-2.09,0-.28-.01-.32-.23-.36-.44-.22-1.1-.48-2.19-.55-3.31Z"/>
          <path class="cls-25" d="M23.31,23.75c-.03-.05-.05-.11-.08-.16-.06-.41-.01-.82-.02-1.22,0-.19.01-.37-.08-.55-.16-.16-.36-.17-.55-.15-.33.02-.55-.08-.62-.43-.02-.11-.1-.2-.13-.31-.06-.22-.05-.42.19-.54.14-.05.28-.06.42,0,.16.16-.03.2-.09.28-.03.04-.07.08-.06.13.02.07.09.07.16.07.13,0,.24-.05.33-.15.13-.16.31-.24.51-.28q.64-.07.7-.71c.02-.21.06-.42.05-.63,0-1.45,0-2.9,0-4.35,0-.21,0-.43.08-.63.13-.3.39-.35.63-.14.15.13.22.3.26.49.1.5.13,1,.05,1.49-.11.68.06,1.35.09,2.02,0,.16.16,0,.17.11.1.17.08.36.08.55,0,1.57,0,3.14-.02,4.7-.07.32-.71.96-1.02,1.01-.19.03-.35-.04-.47-.18-.16-.19-.36-.31-.58-.39Z"/>
          <path class="cls-25" d="M30.81,43.8c-.97-.1-1.93-.21-2.88-.42-.42-.09-.73-.03-1.03.3-.64.72-1.44,1.2-2.43,1.22-.8.02-1.51-.28-2.07-.82-.68-.66-1.41-.81-2.29-.58-.66.18-1.35.25-2.04.21.06-.3.12-.61.18-.91.04-.22.16-.33.4-.29.92.15,1.85.05,2.77.07.32,0,.54.13.71.39.71,1.04.71,1.04,1.99,1.04.4,0,.8-.03,1.2,0,.56.04.97-.17,1.22-.67.34-.68.91-.86,1.6-.74.64.11,1.27,0,1.9-.07.48-.05.55-.03.65.46.06.27.18.52.13.8Z"/>
          <path class="cls-25" d="M25.28,23.44c0-1.81-.01-3.61-.02-5.42-.09-.09-.1-.2-.1-.31,0-.87-.04-1.73.02-2.6.11-.37.04-.76.06-1.13,0-.17-.04-.35.11-.48.15.58.15,1.18.19,1.77.1,1.45.18,2.91.24,4.37.01.3.11.36.39.36,1.87-.01,3.74,0,5.61-.01-.1.23-.31.16-.48.17-1.68,0-3.36,0-5.04.02-.19,0-.43-.09-.57.15.05.23.24.14.37.14,1.49.02,2.99-.02,4.48,0,.73.02,1.08.27,1.21.87.04.21,0,.35-.23.38-1.71.02-3.41,0-5.12,0-.15,0-.3,0-.45,0-.38.03-.48.13-.49.51,0,.27,0,.55,0,.82,0,.14.02.31-.18.37Z"/>
          <path class="cls-25" d="M21.51,49.29c.18.5-.01.78-.51.82-1.23.09-2.47.06-3.7.07-.14,0-.32.08-.41-.09-.08-.16,0-.31.12-.44.64-.55,1.39-.52,2.16-.42.15.02.33.12.32-.17.17-.02.24.16.45.22-.36-.47-.74-.78-1.25-.94-.22-.07-.45-.13-.68-.2-.09-.02-.2-.11-.23.06-.02.09-.03.18-.15.16-.12-.02-.15-.11-.15-.22.1-.19.05-.43.23-.59.37.27.83.26,1.25.29.62.04,1.25.01,1.87.01.15,0,.3-.01.43-.09.12-.07.21-.05.27.09-.13.09-.12.24-.12.37.01.36-.06.71-.01,1.07,0,.04-.04.11.04.11.02,0,.05-.08.09-.11Z"/>
          <path class="cls-25" d="M31.49,3.92c.96,2.04,1.78,4.14,2.29,6.34.04.19.08.39.11.58,0,.06.02.13-.06.16-.08.03-.11-.04-.14-.09-.15-.26-.33-.5-.57-.69-.28-.22-.36-.2-.5.14-.69-2.21-1.15-4.49-1.84-6.71-.08-.27-.11-.55.2-.72.27.28.38.63.51.98Z"/>
          <path class="cls-25" d="M31.94,49.64c.16.41.14.46-.28.46-.75,0-1.5,0-2.25,0-.48,0-.97.1-1.45.08-.27-.01-.46-.1-.5-.39.22-.44.2-.9.15-1.37-.02-.19-.11-.39,0-.58,1.21.2,2.41.07,3.59-.22.15.05.19.2.29.29,0,.48-.04.52-.48.41-.64-.17-1.35.26-1.65.65-.05.06-.04.11.03.15,0,.14.06.19.21.14.21-.07.43-.13.65-.16.64-.09,1.2.11,1.68.53Z"/>
          <path class="cls-25" d="M16.35,10.38c-.2-.37-.46-.21-.68-.04-.17.13-.3.31-.52.55,0-.51.16-.89.26-1.27.54-1.99,1.24-3.93,2.16-5.78.02-.04.03-.09.04-.14.02-.3.11-.56.37-.74.33.17.25.45.18.71-.34,1.32-.69,2.65-1.03,3.97-.16.61-.27,1.24-.43,1.85-.08.31-.18.62-.37.89Z"/>
          <path class="cls-25" d="M25.28,15.11c0,.97-.01,1.95-.02,2.92-.03.05-.06.11-.11.2-.13-.26-.13-.53-.19-.78-.16-.77.02-1.54,0-2.31,0-.26-.04-.52-.08-.78-.03-.16-.13-.3-.27-.39-.16-.11-.3-.1-.39.11-.07.17-.08.34-.08.51,0,1.52,0,3.05,0,4.57-.15.24-.08.51-.13.76-.02.12-.03.28-.19.28-.13,0-.14-.15-.17-.25-.05-.17-.06-.34-.04-.52.07-.69.06-1.37,0-2.06-.06-.6-.05-1.2,0-1.8.04-.54.07-1.07.02-1.61-.03-.3.09-.59.01-.89,0-.09-.02-.17-.01-.26.03-.66.17-.74.7-.72.05,0,.1,0,.15,0,.8.01.84.06.81.87,0,.06,0,.12,0,.19.05.66.05,1.31,0,1.97Z"/>
          <path class="cls-25" d="M23.01,15.1c-.44.25-.94.19-1.41.28-.44.09-.91.13-1.37.1-.15-.01-.3-.03-.43-.11-.39-.26-.41-.44-.07-.76.3-.29.62-.53.96-.76.06-.04.3-.06.13-.25,0-.14.12-.19.21-.23.63-.31,1.3-.5,1.99-.61.05,0,.1,0,.14.03.03.78-.08,1.55-.16,2.32Z"/>
          <path class="cls-25" d="M29.4,14.8c.07.4-.17.52-.49.6-.57.15-1.14.04-1.7-.03-.16-.02-.32-.04-.48-.05-.53-.02-.61-.08-.77-.6-.04-.63-.21-1.25-.14-1.89.11-.09.23-.07.35-.04.63.14,1.24.34,1.8.66.02.16.11.27.24.36.32.23.62.46.93.7.11.08.23.15.26.31Z"/>
          <path class="cls-25" d="M23.19,43.34c-.31-.3-.6-.62-.78-1.02-.01-.08-.06-.13-.1-.2-.08-.12-.16-.27-.01-.36.15-.09.24.07.32.17.11.14.17.32.34.42-.33-.42-.61-.88-.88-1.33.31-.68.61-1.36,1.2-1.86.21,0,.45-.04.53.24-.09.26-.32.41-.49.61-.59.68-.57,1.17-.02,2.08.52.86,1.99.7,2.36-.03.07-.14.17-.28.26-.41.39-.58.37-.68,0-1.28-.17-.28-.51-.46-.56-.82.21-.32.44-.39.81-.26.02.03.04.05.06.08.13.51.44.94.63,1.42.04.09.11.17.07.28-.24.31-.4.65-.37,1.05,0,.13-.04.24-.08.36-.23.3-.46.59-.69.89-.11.07-.23.07-.36.03-.42-.12-.84-.09-1.26-.04-.33.04-.66.06-1,0Z"/>
          <path class="cls-25" d="M35.17,39.05c.14-.1.24-.04.31.08.07.51.08,1.01.07,1.52,0,.26-.13.48-.33.64-.49.4-1.06.54-1.68.48-.29-.03-.51-.18-.59-.45-.17-.59-.53-1.13-.45-1.79,0-.09-.01-.17.03-.26.13-.12.3-.11.46-.08.6.09,1.21.05,1.81.04.14,0,.34.05.37-.2Z"/>
          <path class="cls-25" d="M29.56,39.3c-.64.14-1.29.05-1.93.09-.64.04-.95-.32-1.23-.78-.07-.12-.13-.26,0-.38.14-.13.31-.06.4.05.26.3.53.21.81.06.5-.27.92-.63,1.34-1.02.43-.4.48-.39.8.08.22.32.35.34.58.02.28-.38.51-.79.8-1.24.13.41.11.8.1,1.15,0,.41.05.82.05,1.23,0,.64-.04.68-.69.64.03-.19.2-.2.33-.26.15-.07.2-.19.15-.34-.05-.17-.19-.13-.31-.09-.49.15-.98.19-1.47.03-.19-.06-.37.02-.54.11-.32.19-.66.35-1.02.53.48.01.93,0,1.37,0,.16,0,.33-.04.45.11Z"/>
          <path class="cls-25" d="M17.76,39.13c-.14-.14-.07-.31-.07-.46,0-.66,0-1.32,0-1.99,0-.11-.02-.25.11-.29.16-.05.22.09.27.2.15.33.33.65.58.91.27.27.38.26.58-.05.3-.46.29-.46.7-.09.45.4.95.72,1.47,1.02.28.16.53.17.79-.05.08-.06.17-.11.26-.15.07-.03.15-.03.21.04.07.08.05.15,0,.24-.36.7-.91,1-1.7.9-.32-.04-.65.08-.95-.07.38-.21.8-.05,1.14-.15-.13-.02-.29-.13-.45-.22-.46-.26-.93-.41-1.47-.26-.35.1-.7-.01-1.03-.12-.24-.07-.36-.03-.34.24,0,.12,0,.25-.1.35Z"/>
          <path class="cls-25" d="M37.04,17.04c-.02.4-.16.75-.36,1.09-.78,1.29-1.83,2.23-3.31,2.63-.34.09-.53-.02-.65-.33-.09-.24-.17-.49-.25-.74.21-.17.47-.16.7-.22,1.42-.33,2.48-1.14,3.24-2.37.04-.06.08-.13.13-.19.1-.11.15-.32.36-.26.2.06.1.26.15.39Z"/>
          <path class="cls-25" d="M16.55,19.68c-.09.26-.2.51-.27.77-.1.36-.33.44-.66.33-1.9-.61-3.19-1.85-3.76-3.78-.04-.13-.06-.27-.09-.4.29-.04.45.17.57.36.97,1.5,2.38,2.3,4.09,2.65.05.01.09.03.13.07Z"/>
          <path class="cls-25" d="M31.82,26.58c-.48-1.04-.57-2.16-.7-3.28-.04-.13-.04-.29.11-.3.47-.03.94-.24,1.41-.02.11.34.18.7.22,1.05-.15.02-.18-.11-.24-.2-.15-.25-.38-.28-.62-.19-.24.09-.34.29-.31.54.03.26.15.45.44.48.26.03.47-.05.59-.3.05-.11.04-.25.14-.34.27.74.4,1.51.6,2.26.04.17.09.34.14.5.06.19,0,.26-.2.22-.21-.23-.47-.28-.77-.27-.28.01-.57,0-.81-.19Z"/>
          <path class="cls-25" d="M20.69,40.48c0,.39-.02.78.02,1.16.03.36-.16.48-.46.48-.4,0-.8-.03-1.19-.08-.38-.05-.76-.14-1.14-.2-.32-.06-.48-.22-.46-.57.02-.39,0-.78.01-1.16.12-.06.24-.01.36.01.78.16,1.56.25,2.35.25.17,0,.35-.01.5.1Z"/>
          <path class="cls-25" d="M30.15,40.18c.36-.13.74-.05,1.11-.07.13,0,.16.08.18.19.08.37.07.75.07,1.12,0,.26-.19.37-.41.42-.84.18-1.7.23-2.56.26-.23,0-.25-.15-.25-.33,0-.4,0-.8,0-1.2.32-.15.67-.13,1.02-.17.29-.04.6,0,.85-.2Z"/>
          <path class="cls-25" d="M29.17,23.79c.19-.19.49-.22.73-.51-.25,0-.41,0-.58,0-.83.03-1.67-.03-2.5.05-.31.03-.46.14-.42.47.02.14,0,.29-.09.39-.43.47-.87.92-1.43,1.25-.09.05-.19.06-.29.03.46-.4.89-.83,1.38-1.19.35-.26.35-.63.34-1.01-.02-.56-.02-.56.54-.57,1.08-.02,2.17-.05,3.25-.09.35-.01.49.12.5.47.02.47.15.93.13,1.41-.15-.21-.37-.15-.57-.12-.29.05-.57.13-.85.19-.12-.24.05-.54-.15-.76Z"/>
          <path class="cls-25" d="M23.24,21.72c.08.05.11.13.09.22-.15.54-.04,1.1-.1,1.65-.15-.36-.02-.74-.04-1.11,0-.25-.09-.32-.33-.32-1.62-.04-3.25-.09-4.87-.15-.52-.02-1.05-.05-1.57-.08-.31-.02-.46-.24-.27-.43.38-.38.47-.9.69-1.35.56.04,1.12.14,1.69.11.12,0,.25,0,.35.09,0,.18-.14.17-.25.21-.17.05-.34.06-.51.09-.21.04-.37.13-.47.33-.19.36-.09.55.31.55,1.26,0,2.51.11,3.77.09.5,0,1.02-.03,1.51.11Z"/>
          <path class="cls-25" d="M19.64,24.55c-.33-.07-.65-.16-.98-.21-.14-.03-.3-.02-.43.07.05-.46.11-.92.14-1.37.02-.33.13-.47.48-.45,1.12.08,2.24.12,3.37.09.33,0,.49.11.46.46-.02.22-.02.45-.03.67-.07-.29-.21-.5-.54-.5-1,0-2,0-3.06,0,.19.28.49.31.68.48-.06.25-.03.51-.08.76Z"/>
          <path class="cls-25" d="M31.58,21.64c.11-.01.13-.06.11-.17-.14-.64-.41-.86-1.08-.88-.06-.07-.21,0-.22-.09-.01-.13.12-.13.21-.15.29-.09.59-.06.88-.12.21-.03.43-.06.64-.1.29.48.4,1.05.76,1.49.16.19-.07.27-.2.29-.26.05-.52.09-.78.09-2.01,0-4.01.11-6.02.17-.11-.09-.2-.22-.14-.35.07-.16.25-.13.4-.13,1.68,0,3.36,0,5.05,0,.13,0,.27.04.4-.04Z"/>
          <path class="cls-25" d="M17.62,24.95c-.03.53-.22,1.02-.41,1.51-.08.2-.24.31-.47.3-.2,0-.4,0-.6-.01-.18,0-.34-.02-.44.18-.04.09-.15.16-.25.1-.11-.06-.02-.16,0-.23.25-1.12.51-2.24.76-3.35.06-.14.15-.17.28-.11.1.14.02.26-.04.38-.05.13-.13.24-.16.37-.04.18-.2.37,0,.54.16.13.54.05.72-.11.11-.1.13-.28.31-.29.27.17.33.42.29.72Z"/>
          <path class="cls-25" d="M30.9,16.23l.07.07c.2.46.36.94.44,1.44.01.5.26.93.4,1.4.15.49.12.54-.38.57-.77.04-.85,0-1.03-.75-.18-.75-.48-1.47-.5-2.26.33-.15.64-.35.99-.46Z"/>
          <path class="cls-25" d="M16.55,19.68c-.92-.05-1.72-.43-2.49-.89-.71-.43-1.3-.98-1.73-1.71-.13-.21-.32-.38-.56-.48-.13-.41-.21-.84-.22-1.27.67.88,1.08,1.94,2.12,2.54,1,.58,2.02,1.01,3.2.98-.03.3-.14.57-.31.83Z"/>
          <path class="cls-25" d="M37.04,17.04c-.11-.09-.01-.31-.19-.33-.19-.02-.2.19-.27.31-.93,1.58-2.3,2.46-4.12,2.67-.12-.3-.24-.61-.36-.91,1.47.18,2.65-.45,3.76-1.32.75-.58,1.12-1.41,1.51-2.24.09-.2.06-.42.07-.63,0-.34,0-.67,0-1.01.16,1.18.05,2.34-.4,3.45Z"/>
          <path class="cls-25" d="M32.55,39.28c.06.2.09.41.07.63-.02.26,0,.5.21.69.09.09.07.2.09.31.07.59.29.78.87.78.32,0,.62-.07.91-.19.57-.23.77-.55.77-1.18,0-.4,0-.8,0-1.2.19.79.29,1.6-.1,2.35-.33.64-.9.95-1.63.88-.65-.07-1.08-.45-1.34-1.04-.22-.47-.1-.98-.22-1.47-.06-.24-.08-.49-.12-.73-.03-.22-.03-.22.2-.2.15.08.29.16.3.36Z"/>
          <path class="cls-25" d="M21.37,37.56c.24,0,.38-.13.51-.31.35-.45.49-.47.96-.15.52.35,1.11.56,1.68.8.2.08.37-.01.54-.08.47-.2.89-.5,1.31-.78.36-.24.48-.23.73.12.16.23.35.38.65.33-.3.36-.38.39-.73.13-.2-.15-.36-.18-.57-.04-.37.23-.76.43-1.13.66-.51.31-1.01.31-1.5-.04-.37-.26-.8-.39-1.16-.67-.14-.11-.41-.14-.54.06-.28.41-.51.21-.75-.03Z"/>
          <path class="cls-25" d="M31.43,27.94c.15.5.57.59,1,.68.82.18,1.66.33,2.39.79.05.03.11.06.16.1.09.08.16.17.1.29-.07.14-.19.08-.29.04-.62-.22-1.25-.29-1.91-.26-.22,0-.42.05-.62.12-.21.08-.4.21-.39.49-.43-.45-.34-1.04-.44-1.58-.04-.22,0-.45,0-.67Z"/>
          <path class="cls-25" d="M17.09,30.27c-.09-.41-.46-.74-.9-.75-.7-.02-1.38.1-2.04.33-.15.05-.35.24-.46.04-.07-.13.16-.24.29-.33.83-.51,1.71-.86,2.68-.95.37-.04.71-.14.87-.53,0,.28,0,.57,0,.85.03.51-.14.94-.45,1.33Z"/>
          <path class="cls-25" d="M26.03,15.92c.15.75.31,1.5.44,2.26.07.42.25.81.24,1.24,0,.12.09.17.2.18.78.08,1.56.14,2.34,0,.18-.03.23-.13.22-.29-.04-.72-.1-1.44-.12-2.16-.02-.47-.16-.96.2-1.38-.1.3-.1.6-.02.92.2.79.39,1.59.58,2.39.13.56.05.67-.52.67-.99,0-1.97-.01-2.96,0-.3,0-.46-.12-.46-.4-.02-1.15-.19-2.29-.15-3.43Z"/>
          <path class="cls-25" d="M17.98,2.95c-.12.25-.25.49-.37.74-.32.05-.56.22-.79.45-1.33,1.3-2.51,2.72-3.42,4.36-.07.12-.13.35-.37.23.1-.36.28-.69.48-1.01,1.09-1.77,2.34-3.39,3.96-4.71.17-.13.31-.27.51-.05Z"/>
          <path class="cls-25" d="M23.63,13.07c.07.74.19,1.48.11,2.22-.08.75-.08,1.49,0,2.24.06.59.07,1.18,0,1.76-.04.31,0,.57.06.87.33-.28.04-.74.34-1-.02.27-.09.55-.06.81.04.36-.11.5-.44.52-.14,0-.27.01-.41.02-.06-.03-.17-.01-.15-.14.13-.18.02-.2-.13-.2-.46,0-.91,0-1.37,0-.16,0-.32.03-.45-.11.59-.09,1.19-.04,1.79-.03.27,0,.32-.09.34-.34.08-1.87.18-3.74.27-5.61.02-.34.06-.67.1-1Z"/>
          <path class="cls-25" d="M19.79,46.36c.72-.06,1.44.07,2.16-.08.17-.04.26.07.29.22.04.2.04.41-.18.52-.27.14-.56.22-.85.25-1.25.16-2.48.16-3.67-.33-.07-.14-.22-.28-.08-.44.13-.14.3-.05.46,0,.96.27,1.94.34,2.93.18.05,0,.1-.02.16-.1-.26-.09-.52-.03-.77-.06-.16-.02-.36.06-.45-.17Z"/>
          <path class="cls-25" d="M31.65,45.97c.23.65.12.9-.5,1.09-1.28.39-2.58.38-3.87.11-.29-.06-.64-.13-.61-.57.01-.19.1-.31.31-.29.76.1,1.52,0,2.28.04-.07.21-.25.16-.4.17-.42.01-.84,0-1.25.03.86.23,1.73.27,2.61.11.11-.02.22-.04.33-.05.48-.03.91-.14,1.11-.65Z"/>
          <path class="cls-25" d="M19.58,16.07c.2.14.23.35.21.57-.09.85-.19,1.7-.29,2.55-.04.31.12.49.44.49.7,0,1.4,0,2.1,0,.34,0,.42-.17.46-.45.14-.93.19-1.87.44-2.78.04.96-.02,1.92-.07,2.87-.02.29-.11.43-.44.46-1.04.07-2.09.08-3.13,0-.33-.03-.37-.21-.33-.45.16-.78.24-1.57.48-2.33.1-.31.1-.61.12-.92Z"/>
          <path class="cls-25" d="M19.11,16.45c.03.83-.29,1.59-.47,2.37-.23,1,0,.89-1.17.87-.34,0-.42-.13-.3-.44.15-.41.29-.82.44-1.23.11.04.2.25.34.03.35-.4.7-.81.88-1.33.1-.09.1-.27.27-.28Z"/>
          <path class="cls-25" d="M31.49,3.92c-.24-.29-.39-.63-.51-.98.15-.14.29-.1.43.01,1.87,1.47,3.26,3.33,4.41,5.38.02.04.03.09.04.14-.2-.04-.47-.26-.62-.53-.75-1.32-1.69-2.48-2.77-3.54-.2-.19-.42-.35-.61-.54-.17-.17-.26,0-.38.06Z"/>
          <path class="cls-25" d="M37.67,30.72c0,.07-.02.14-.04.28-1.44-2.18-3.56-3.07-6.07-3.39.42-.2.8-.02,1.14-.1,1.56.17,2.92.77,4.07,1.86.41.38.71.83.9,1.36Z"/>
          <path class="cls-25" d="M29.56,39.3h-2.07s0-.07-.01-.1c.5-.25,1.01-.51,1.51-.76.1-.05.22-.06.33-.02.5.21,1,.13,1.49-.03.14-.04.33-.14.37.07.04.19.15.45-.18.56-.14.04-.27.12-.41.18-.35.03-.69.07-1.04.1Z"/>
          <path class="cls-25" d="M16.4,27.71c-.75.22-1.52.4-2.23.75-1.11.54-2,1.31-2.61,2.39-.05.09-.05.27-.24.18.02-.55.27-1.01.61-1.41.92-1.07,2.09-1.75,3.49-1.99.21-.03.42-.04.63-.07.13-.02.31-.06.35.15Z"/>
          <path class="cls-25" d="M31.58,21.64c-.11.12-.26.07-.39.07-.86,0-1.72-.03-2.58.01-.78.04-1.56-.02-2.34,0-.49,0-.49,0-.4.45-.15.28-.06.59-.07.88-.02.67-.58,1.45-1.21,1.65-.12.04-.22,0-.31-.08-.33-.29-.65-.58-.97-.86.26-.03.45.07.61.28.23.3.4.32.67.06.23-.22.55-.34.69-.65.14-.41.06-.84.05-1.26,0-.35.11-.51.45-.54.06,0,.12-.02.19-.02,1.87,0,3.74,0,5.61,0Z"/>
          <path class="cls-25" d="M15.66,40.87c-.51-.37-.96-.82-1.52-1.13-.16-.09-.3-.23-.28-.45.38-.12.77-.03,1.15-.03.43,0,.87-.08,1.3.07.16.5.05.98-.15,1.44-.09.21-.3.24-.51.11Z"/>
          <path class="cls-25" d="M40.64,48.75c-.9-1.63-1.22-3.42-1.48-5.22-.03-.21-.06-.42-.09-.63-.03-.06-.04-.12.02-.15.06-.03.11.02.13.08.49,2.15.93,4.31,2.05,6.26-.38.14-.46-.19-.64-.33Z"/>
          <path class="cls-25" d="M13.94,38.31c-.17-.21-.03-.32.14-.4.95-.41,1.89-.82,2.84-1.23.18-.08.27-.05.27.19,0,.5-.14.96-.35,1.4-.09.19-.25.24-.43.25-.27.01-.55,0-.82,0,.03-.18.18-.14.29-.16.12-.02.27-.02.26-.19,0-.18-.06-.34-.26-.41-.06-.02-.13-.02-.18,0-.58.21-1.2.3-1.76.55Z"/>
          <path class="cls-25" d="M17.76,39.13v-.79c.23-.01.39.1.57.13.33.06.65.17.99.06.46-.15.88,0,1.29.22.23.12.46.26.72.4-.45.18-.89.09-1.32.13-.69-.03-1.39-.06-2.08-.09-.06,0-.11-.04-.17-.06Z"/>
          <path class="cls-25" d="M21.14,20.05c.63,0,1.26,0,1.89.02.12,0,.3-.09.35.1.06.24-.22.14-.29.25-.19.15-.39.15-.59.02-.15,0-.3-.01-.45-.02-.96.1-1.93.03-2.89.04-.1,0-.2-.02-.28-.09-.57-.03-1.14-.06-1.71-.09-.13,0-.29.04-.33-.16.06-.21.23-.15.37-.15,1.31.02,2.61.04,3.92.07Z"/>
          <path class="cls-25" d="M32.93,38.52c-.15,0-.3,0-.45,0-.26,0-.43-.14-.5-.37-.11-.38-.17-.78-.2-1.18,0-.14,0-.35.24-.24.96.45,2,.72,2.9,1.29.02.01.03.04.05.05-.19.18-.39.09-.59.04-.31-.08-.6-.24-.93-.28-.23-.03-.49-.1-.66.12-.17.23.09.38.13.57Z"/>
          <path class="cls-25" d="M19.79,46.36c.39.14.79.03,1.18.07.11.01.24-.02.25.15,0,.14-.08.2-.21.21-1.03.13-2.06.13-3.06-.17-.49-.14-.48-.15-.41.33-.23-.08-.3-.29-.36-.49-.05-.16-.08-.36.04-.5.15-.17.3,0,.44.05.69.22,1.4.31,2.13.35Z"/>
          <path class="cls-25" d="M11.68,35.76c-.31,1.34-.63,2.67-.86,4.03-.15.91-.31,1.82-.47,2.73-.12.24-.15.52-.42.78.02-.23.02-.39.05-.54.39-2.11.8-4.21,1.27-6.3.06-.27.13-.53.29-.76.05.02.09.04.14.06Z"/>
          <path class="cls-25" d="M31.65,45.97c.04.37-.17.58-.49.65-1.26.27-2.53.38-3.8,0-.03,0-.06-.04-.1-.08.08-.17.24-.1.36-.11.54-.03,1.09.06,1.63-.08.71-.07,1.42-.16,2.11-.38.09-.03.2-.15.29,0Z"/>
          <path class="cls-25" d="M15.66,40.87c.35.05.46-.14.54-.45.09-.35,0-.72.14-1.06-.06-.23-.22-.26-.43-.26-.48,0-.96,0-1.44,0-.16,0-.32.03-.45-.1.11-.12.26-.07.39-.07.72,0,1.45,0,2.17,0,.16,0,.31,0,.29.23-.1.8-.2,1.6-.29,2.4-.02.2-.08.34-.3.36-.21.02-.23-.16-.27-.3-.07-.27-.24-.49-.35-.74Z"/>
          <path class="cls-25" d="M23.17,12.78c-.67.18-1.36.31-1.99.62-.12.06-.24.13-.36.2-.96.38-1.78.97-2.54,1.65-.09,0-.17,0-.31,0,.5-.61,1.07-1.09,1.7-1.48.97-.6,2.03-1,3.15-1.19.09-.01.47-.27.34.2Z"/>
          <path class="cls-25" d="M32.12,20.12c-.15.24-.42.1-.62.18-1.2.07-2.39.24-3.59.17-.69-.01-1.38,0-2.07,0-.1,0-.19-.02-.26-.1-.01-.3.18-.29.4-.29,1.81,0,3.61,0,5.42-.01.13,0,.28.05.4-.05.13-.02.26-.05.33.12Z"/>
          <path class="cls-25" d="M15.38,41.23c.46.44.56,1.01.54,1.61-.02.53-.65.9-1.18.7.65-.6.67-1.33.06-2.02-.1-.11-.23-.2-.26-.36.3-.23.57-.02.84.06Z"/>
          <path class="cls-25" d="M27.98,13.52c-.7-.3-1.4-.6-2.16-.69-.09-.18-.12-.33.16-.28,1.9.4,3.6,1.17,4.92,2.65,0,0,0,.02,0,.04-.12.09-.23,0-.35,0-.73-.6-1.52-1.13-2.36-1.56-.08-.04-.16-.08-.2-.16Z"/>
          <path class="cls-25" d="M32.93,38.52c-.28-.08-.35-.28-.3-.54.05-.28.27-.27.49-.28.35-.02.66.11.98.21.28.1.56.22.87.16.28.16.18.28-.05.36-.32.12-.66.1-.99.1-.33,0-.67,0-1,0Z"/>
          <path class="cls-25" d="M13.94,38.31c.02-.14.09-.23.24-.25.53-.04,1-.28,1.5-.42.22-.06.41,0,.51.24.17.41.09.55-.36.57-.09,0-.18-.01-.24.06-.56,0-1.13.04-1.65-.21Z"/>
          <path class="cls-25" d="M26.17,39.28c-.28.04-.6-.04-.75.31-.1.05-.19,0-.29-.03-.38-.13-.76-.24-1.16-.09-.07.03-.15.02-.21-.04-.09-.24-.33-.16-.5-.23-.11,0-.19-.05-.24-.15.19-.47.39-.55.78-.26.44.33.87.37,1.36.11.53-.29.74-.2,1.01.38Z"/>
          <path class="cls-25" d="M23.02,39.05c.11,0,.19.06.24.15-.46.56-.8,1.19-1.15,1.81-.34.12-.66.04-.88-.24-.07-.22.02-.33.24-.36.32-.04.54-.23.72-.48.24-.33.52-.63.83-.89Z"/>
          <path class="cls-25" d="M36.68,27.33c.27,0,.86.37.9.58.03.16-.37.83-.54.9-.04.02-.11.04-.14.02-.31-.16-.56-.4-.79-.65,0,0,.03-.06.05-.09.33-.15.45-.44.53-.76Z"/>
          <path class="cls-25" d="M37.8,26.22l.44.15c.06-.03.09-.01.09.05-.07.04-.04.07,0,.11.09.14.34.19.27.41-.07.24-.2.46-.39.62-.15.13-.32.11-.49.01-.21-.13-.43-.25-.58-.46.18-.33.47-.58.66-.9Z"/>
          <path class="cls-25" d="M27.98,13.52c.88.33,1.63.89,2.38,1.45.09.07.15.16.18.28-.23,0-.37.27-.61.23,0-.36-.41-.4-.53-.67-.47-.36-.95-.72-1.42-1.08-.08-.06-.25-.13,0-.2Z"/>
          <path class="cls-25" d="M21.23,40.77c.27.16.57.22.88.24.29.4.57.8.85,1.21.04.06.14.14.02.21-.08.04-.18,0-.23-.07-.09-.13-.17-.27-.25-.41-.04-.07-.08-.19-.18-.14-.1.05-.03.15,0,.23.04.09.1.17.08.28-.32-.32-.61-.64-1.04-.83-.3-.13-.12-.46-.13-.71Z"/>
          <path class="cls-25" d="M18.89,16.75c-.14.55-.51.96-.89,1.36-.12-.12-.18-.27-.31-.38.15-.48.3-.95.45-1.43.33.02.57.18.75.45Z"/>
          <path class="cls-25" d="M26.49,42.46c-.02-.53-.1-1.08.44-1.45.24-.18.62-.13.77-.45.14.26.06.53.04.8,0,.05-.05.14-.09.15-.57.09-.78.63-1.16.95Z"/>
          <path class="cls-25" d="M12.66,28.4c-.4.37-.75.41-1.04.12-.34-.34-.32-.62.05-.92.11-.08.18-.21.32-.25.3.3.46.68.66,1.04Z"/>
          <path class="cls-25" d="M30.9,16.23c-.27.28-.6.43-.99.46-.2-.65-.08-.86.57-.99.17-.03.35-.04.52-.05.11,0,.23,0,.28.13.05.15-.06.2-.16.25-.09.04-.18.09-.21.2Z"/>
          <path class="cls-25" d="M27.61,39.76c.09-.14.2-.16.31-.17.47-.03.94-.09,1.41-.07.56.03,1.08-.14,1.63-.16.1,0,.26-.06.3.07.05.18-.16.15-.25.21-.07.05-.16.08-.24.08-1.01,0-2.01.14-3.02.08-.03,0-.07-.02-.13-.05Z"/>
          <path class="cls-25" d="M20.39,39.81c-.88-.02-1.76-.11-2.64-.21-.1-.01-.23-.02-.23-.14,0-.15.15-.09.24-.09.8.03,1.58.17,2.38.18.33,0,.67.02,1.01.04.08,0,.2-.03.2.1,0,.1-.11.12-.2.12-.25,0-.5,0-.75,0Z"/>
          <path class="cls-25" d="M14.01,38.98c.69,0,1.39,0,2.08,0,.14,0,.28,0,.35.16.06.11-.07.14-.11.21-.64,0-1.29,0-1.93,0-.19,0-.37-.03-.55-.08-.14-.2-.04-.27.15-.3Z"/>
          <path class="cls-25" d="M27.69,40.56c-.02.55-.48.36-.77.45-.3-.46-.53-.94-.72-1.45-.03-.07-.03-.14.03-.2.14.08.25.2.34.33.25.36.52.7,1,.74.04,0,.08.08.12.13Z"/>
          <path class="cls-25" d="M18.89,16.75c-.25-.15-.5-.3-.75-.45-.08-.15-.24-.21-.38-.29-.07-.04-.13-.08-.11-.17.02-.08.07-.14.16-.14.38-.03.75-.05,1.09.15.23.13.23.36.21.6-.09.09-.06.26-.22.3Z"/>
          <path class="cls-25" d="M17.44,17.43c-.41-.61-.83-1.21-1.21-1.84-.07-.11-.29-.35.03-.49.3.55.63,1.06,1.17,1.4.29.18.27.43,0,.93Z"/>
          <path class="cls-25" d="M13.78,40.64c-.2.04-.41.09-.57.23-.19.17-.37.04-.55,0-.06-.18.06-.31.14-.44.16-.27.33-.53.38-.84.43-.08.53.32.75.54-.15.15-.14.34-.15.53Z"/>
          <path class="cls-25" d="M16.49,23.36c-.1,0-.2.02-.29.08,0-.02-.01-.05,0-.07.1-.27-.01-.69.29-.81.39-.15.85-.07,1.25.02.29.07.19.35.11.56-.33.07-.66-.13-.99-.03-.16.03-.23.2-.37.25Z"/>
          <path class="cls-25" d="M16.79,23.06c.37-.16.72-.02,1.06.09-.04.61-.07,1.21-.23,1.8-.03-.26-.15-.48-.3-.69-.13-.13-.16-.32-.16-.48,0-.32-.14-.54-.38-.72Z"/>
          <path class="cls-25" d="M32.95,14.5c.14,0,.2.03.15.2-.23.73-.48,1.44-1.19,1.86-.24.14-.26.44-.4.65-.25-.15-.31-.35-.15-.6.87-.45,1.25-1.26,1.6-2.11Z"/>
          <path class="cls-25" d="M32.55,39.28c-.13-.09-.21-.23-.3-.36.07,0,.14,0,.21,0,.1.04.22.02.32.06.77.08,1.55.02,2.33.07.02,0,.04,0,.06,0,.08.03.19.03.2.14,0,.13-.12.1-.19.11-.67.13-1.36.07-2.03.03-.19,0-.39-.04-.59-.05Z"/>
          <path class="cls-25" d="M13.78,40.64c-.17-.24-.18-.43.15-.53.55.28,1.04.64,1.44,1.12-.29.08-.55-.17-.84-.06-.25-.18-.5-.35-.75-.53Z"/>
          <path class="cls-25" d="M9.96,26.07c.12-.24.31-.41.51-.58.39-.34.75-.22.91.28-.1.2-.3.27-.47.38-.2.11-.41.19-.64.15-.14-.02-.27-.07-.3-.23Z"/>
          <path class="cls-25" d="M17.97,43.94c-.01.33.13.48.47.54.66.1,1.32.25,1.98.39.02,0,.03.03.08.09-.45.06-.85-.02-1.26-.07-.37-.05-.73-.15-1.1-.21-.36-.06-.54-.22-.44-.6.02-.09-.03-.2.05-.29.02.13,0,.29.21.16Z"/>
          <path class="cls-25" d="M32.63,22.98c-.43.02-.85.06-1.28.07-.19,0-.22.1-.24.25-.18-.66-.12-.74.53-.75.16,0,.32-.01.48-.02.45-.02.48.01.51.46Z"/>
          <path class="cls-25" d="M20.69,40.48c-1.09.02-2.17-.02-3.22-.37.01-.24.19-.16.3-.13.84.18,1.69.25,2.55.3.14,0,.35-.06.36.2Z"/>
          <path class="cls-25" d="M18.52,35.9c.22,0,.22-.16.22-.31,0-.39,0-.79,0-1.29.24.42.51.7.61,1.08-.21-.02-.19.16-.22.28-.04.12-.04.25-.09.36-.05.13-.02.37-.15.39-.18.02-.25-.2-.31-.36-.02-.05-.04-.09-.05-.14Z"/>
          <path class="cls-25" d="M38.03,26.14c-.06-.04-.13-.08-.19-.11-.15-.08-.4-.09-.27-.37.12-.28.38-.41.63-.29.21.1.37.25.52.42-.03.4-.25.52-.68.36Z"/>
          <path class="cls-25" d="M13.18,39.57c.18.17,0,.32-.06.45-.14.29-.31.56-.47.83-.08.07-.17.14-.25.21-.28-.52.03-1.11.78-1.49Z"/>
          <path class="cls-25" d="M37.8,26.22c-.08.41-.37.65-.66.9-.36-.25-.34-.45,0-.91.24-.33.45-.2.66.02Z"/>
          <path class="cls-25" d="M27.61,47.84c.19.62.13,1.25.06,1.88-.02.17-.1.18-.21.07-.08-.58-.05-1.16-.07-1.75,0-.16,0-.28.22-.2Z"/>
          <path class="cls-25" d="M11.53,27.34c-.07.06-.15.13-.22.19-.23.22-.43.18-.6-.08-.1-.14-.2-.28-.3-.41-.1-.26.04-.4.27-.48.33.21.66.42.86.77Z"/>
          <path class="cls-25" d="M29.63,35.46c.1-.32.36-.52.6-.78,0,.32,0,.65,0,.97,0,.12-.06.29.14.33,0,.18-.06.33-.25.47-.09-.27-.19-.51-.27-.77-.04-.12-.06-.24-.23-.23Z"/>
          <path class="cls-25" d="M23.19,43.34c.52-.01,1.02-.14,1.54-.16.38-.01.72.1,1.08.16-.03.1-.11.14-.2.14-.78,0-1.56.06-2.33-.07-.03,0-.06-.05-.08-.07Z"/>
          <path class="cls-25" d="M11.53,27.34c-.28-.24-.61-.43-.82-.75-.02-.13.05-.17.16-.17.37.13.8.05,1.13.32.03.35-.32.39-.47.6Z"/>
          <path class="cls-25" d="M24.44,25.46c-.14.13-.3.06-.41-.02-.44-.28-.86-.58-1.2-.98-.12-.14-.21-.31-.17-.51.54.57,1.15,1.06,1.79,1.51Z"/>
          <path class="cls-25" d="M30.61,44.63c-.77.28-1.57.34-2.39.3.78-.22,1.58-.37,2.38-.46-.02.05-.08.11,0,.15Z"/>
          <path class="cls-25" d="M12.66,28.4c-.34-.27-.48-.67-.66-1.04.21-.17.38-.12.51.1.09.15.18.29.28.43.14.22.13.39-.13.51Z"/>
          <path class="cls-25" d="M30.15,40.18c.08.01.17.02.25.04-.68.28-1.4.31-2.11.34-.06-.31.2-.27.36-.28.5-.04,1.01-.07,1.51-.1Z"/>
          <path class="cls-25" d="M12,26.74c-.37-.12-.78-.07-1.14-.27.16-.25.34-.48.67-.51.23.22.44.44.47.78Z"/>
          <path class="cls-25" d="M16.4,27.71c-.31-.23-.66.02-.98-.08.69-.17,1.39-.29,2.11-.13-.02.23-.23.17-.35.19-.26.03-.52.02-.78.02Z"/>
          <path class="cls-25" d="M31.36,16.61c-.05.22,0,.42.15.6,0,.15.1.29.07.45-.07,0-.12.02-.16.08-.23-.45-.39-.93-.44-1.44.4-.24.23.24.38.3Z"/>
          <path class="cls-25" d="M31.82,26.58c.35.03.69.12,1.04.07.3-.04.48.08.53.38-.38-.05-.76-.09-1.14-.15-.19-.03-.36-.1-.43-.31Z"/>
          <path class="cls-25" d="M17.77,43.72c0-.1,0-.21-.1-.27-.12-.07-.13.08-.2.12-.04-.35.14-.65.22-.97.02-.09.09-.17.19-.13.09.03.13.13.11.21-.11.34,0,.72-.21,1.04Z"/>
          <path class="cls-25" d="M21.51,49.29c0,.17-.05.33-.2.47,0-.6,0-1.2,0-1.81,0-.11.12-.1.21-.11.02.34.03.68-.06,1.02-.03.13-.05.29.05.42Z"/>
          <path class="cls-25" d="M11.53,25.96c-.22.17-.44.34-.66.51-.05.04-.1.08-.16.12-.17.1-.31.23-.3.45-.1-.12-.2-.25-.3-.37.26-.23.57-.38.83-.61.12-.14.27-.23.45-.29,0,.1.1.13.15.19Z"/>
          <path class="cls-25" d="M10.93,26.06c-.2.31-.47.52-.83.61-.22-.16-.33-.35-.14-.61.32.28.65.13.97,0Z"/>
          <path class="cls-25" d="M11.83,32.73c.13.03.14.13.11.23-.1.34-.2.68-.33,1.01-.08.2-.09-.04-.14-.04-.03,0-.04-.02-.04-.03,0-.02.01-.03.02-.03.04-.41.14-.8.37-1.15Z"/>
          <path class="cls-25" d="M38.03,26.14c.29,0,.59.03.68-.36.17.09.29.23.3.43-.13.27-.38.24-.62.25-.02-.01-.05-.03-.07-.04-.03-.02-.06-.04-.09-.05-.11-.04-.18-.11-.21-.23Z"/>
          <path class="cls-25" d="M31.34,43.27c-.21-.17-.21.04-.27.15-.04-.22-.07-.44-.12-.66-.03-.14-.05-.27.11-.3.2-.04.22.12.22.26,0,.19.13.36.06.55Z"/>
          <path class="cls-25" d="M18.13,27.49c.02.1.04.19.07.29.02.26.02.51.24.74.18.19-.06.27-.22.33-.12-.45-.24-.89-.09-1.36Z"/>
          <path class="cls-25" d="M39.22,42.82c-.1-.07-.13-.02-.15.08-.11-.52-.34-1.02-.15-1.57.1.5.2.99.29,1.49Z"/>
          <path class="cls-25" d="M11.46,33.88s.02.03.01.06c0,.35,0,.7-.01,1.05,0,.1-.02.21.12.24.3.07.1.2.03.31-.24-.01-.36-.11-.27-.37.1-.29.02-.59.04-.89.01-.13-.05-.28.07-.39Z"/>
          <path class="cls-25" d="M36.68,27.33c.08.4-.21.82-.53.76.11-.3.24-.59.53-.76Z"/>
          <path class="cls-25" d="M38.4,26.47c.17-.16.44-.09.62-.25.15.22,0,.36-.16.45-.22.13-.34-.04-.46-.2Z"/>
          <path class="cls-25" d="M17.69,17.73c.29-.02.31.17.31.38-.03.1-.06.21-.19.19-.15-.02-.18-.16-.21-.28.02-.1-.02-.22.08-.29Z"/>
          <path class="cls-25" d="M17.7,47.54c-.02.22-.03.44-.23.59-.05-.18-.11-.36-.09-.55,0-.1.02-.22.12-.25.16-.04.16.12.2.21Z"/>
          <path class="cls-25" d="M35.12,39.04c-.74,0-1.47.01-2.21.02-.08,0-.15-.01-.21-.07.23-.07.46-.05.68,0,.58.04,1.16-.06,1.73.06Z"/>
          <path class="cls-25" d="M37.52,33.57c-.31-.07-.44-.46-.25-.73.11.24.21.47.25.73Z"/>
          <path class="cls-25" d="M25.28,15.11c0-.66,0-1.31,0-1.97.12.1.07.24.08.37,0,.42,0,.83-.01,1.25,0,.12.03.25-.06.35Z"/>
          <path class="cls-25" d="M31.5,47.91c-.19,0-.21-.18-.29-.29,0-.12-.02-.26.17-.25.18,0,.13.15.14.25,0,.1-.01.2-.02.29Z"/>
          <path class="cls-25" d="M33.38,38.98c-.23,0-.46,0-.68,0-.08-.01-.17,0-.23-.07.31.01.62-.08.92.06Z"/>
          <path class="cls-25" d="M21.09,28.17c.51-.87,1.1-1.67,2.12-2.01,1.96-.65,3.97.22,4.76,2.07.02.23.21.45.01.68-.87.66-1.84.77-2.83.37-.5-.2-.91-.17-1.39.04-.92.41-1.78.13-2.61-.33-.28-.26-.11-.55-.05-.83Z"/>
          <path class="cls-25" d="M21.14,29c.26.08.52.16.78.25.72.26,1.42.23,2.1-.13.33-.18.63-.17.99,0,.83.41,1.69.36,2.53-.02.15-.06.29-.13.44-.19-.37.6-.99.66-1.59.75-.48.07-.94.01-1.36-.27-.4-.27-.8-.19-1.2.04-.79.45-2.06.25-2.68-.43Z"/>
          <path class="cls-25" d="M19.64,24.55c-.08-.26-.16-.53.08-.76.77.34,1.54.69,2.32,1.02.32.14.4.32.27.64-.13.3-.26.59-.52.81-.66.56-1.6.31-1.87-.51-.09-.26-.12-.53-.09-.81.02-.18,0-.32-.19-.39Z"/>
          <path class="cls-25" d="M29.17,23.79c.44.18.15.5.15.76-.17.08-.23.21-.2.4.05.28,0,.55-.09.81-.27.84-1.31,1.09-1.93.46-.06-.06-.12-.13-.17-.2-.52-.88-.39-1.03.36-1.37.62-.28,1.24-.57,1.87-.85Z"/>
          <path class="cls-25" d="M18.88,20.38c1,0,2-.01,3-.01.06,0,.11.04.17.06-.2.16-.18.33-.1.56.14.42.34.69.85.59.13-.03.32.01.44.14-1.15,0-2.29.01-3.44-.03-.7-.03-1.39-.04-2.09-.05-.27,0-.34-.09-.28-.37.13-.58.26-.71.87-.77.19-.02.38-.08.58-.12Z"/>
          <path class="cls-25" d="M23.92,21.23c0,.73,0,1.46,0,2.19,0,.12-.05.23-.19.22-.14,0-.18-.12-.18-.24.02-.3.05-.59.08-.89.04-.43.04-.88.18-1.3.03,0,.07,0,.1,0Z"/>
          <path class="cls-25" d="M22.5,20.45c.2,0,.4-.01.59-.02.05.03.1.05.14.08-.17.08-.32.15-.43.32-.14.22-.39.17-.58.11-.18-.05-.12-.22,0-.32.08-.07.19-.12.28-.17Z"/>
          <path class="cls-25" d="M25.57,20.36c.07,0,.14,0,.22.01.7.05,1.41.04,2.11,0,1.2-.02,2.4-.05,3.6-.07-.35.05-.7.1-1.06.16.06.04.11.09.16.13-1.6,0-3.21,0-4.81,0-.14,0-.37.06-.21-.23Z"/>
          <path class="cls-25" d="M23.77,39.43c.58-.23,1.12-.13,1.65.15.3.3.55.64.77,1.01.08.14.15.29.13.46-.04.52-.91,1.53-1.43,1.65-1.17.26-2.3-.83-2.08-2.01.06-.33.3-.57.51-.82.14-.16.3-.3.45-.45Z"/>
          <path class="cls-25" d="M32.85,24.04c-.02.53-.2.74-.63.75-.26,0-.47-.08-.57-.33-.11-.27-.13-.54.09-.77.19-.2.44-.21.69-.15.26.06.22.38.41.5h0Z"/>
          <path class="cls-25" d="M18.14,40.87c0,.11-.05.21-.17.19-.13-.03-.2-.14-.2-.27,0-.11.05-.21.17-.19.13.03.2.13.2.27Z"/>
          <path class="cls-25" d="M19.94,41.11c-.01.13-.09.2-.22.2-.13,0-.22-.06-.21-.2.01-.14.12-.17.24-.17.12,0,.19.05.18.18Z"/>
          <path class="cls-25" d="M31.04,40.85c.01.21-.06.31-.25.31-.13,0-.27-.02-.23-.2.04-.15-.01-.38.24-.39.2,0,.21.16.24.28Z"/>
          <path class="cls-25" d="M28.87,40.98c0,.16-.07.25-.22.25-.15,0-.22-.1-.22-.24,0-.14.02-.27.19-.26.15,0,.24.12.26.26Z"/>
          <path class="cls-25" d="M16.79,23.06c.31.03.45.2.45.51,0,.23.05.46.08.69-.28.48-.56.63-.99.51-.18-.05-.29-.12-.24-.37.07-.38.32-.67.4-1.04.05-.15.12-.28.3-.3Z"/>
          <path class="cls-25" d="M31.34,17.94c-.03.12-.09.31-.18.28-.12-.04-.25-.19-.3-.32-.05-.13.1-.17.22-.17.14,0,.24.05.26.21Z"/>
          <path class="cls-25" d="M27.9,20.37c-.7.1-1.41.11-2.11,0,.7,0,1.41,0,2.11,0Z"/>
          <path class="cls-25" d="M21.66,28.17c.29-.6.74-1.05,1.31-1.4.37-.23.76-.37,1.2-.22.18.06.37.04.56,0,1.16-.26,1.96.47,2.59,1.52.07.21-.08.29-.24.36-.41.17-.82.19-1.24.07-.23-.06-.45-.16-.66-.26-.49-.25-.99-.27-1.47,0-.48.27-1,.29-1.52.23-.21-.02-.46-.02-.53-.31Z"/>
          <path class="cls-25" d="M21.66,28.17c.61.38,1.26.35,1.85.05.67-.33,1.26-.34,1.91.02.51.28,1.06.34,1.62.11.14-.06.25-.1.27-.26.27.36.24.49-.16.67-.69.29-1.37.3-2-.12-.44-.29-.83-.3-1.28-.02-.7.43-1.43.47-2.16.03-.22-.13-.28-.28-.06-.46Z"/>
          <path class="cls-25" d="M23.25,41.15c-.16-.25-.02-.35.21-.35.21,0,.42.03.64.06,0-.21-.16-.34-.21-.51-.06-.18-.09-.36.12-.45.24-.1.24.12.32.25.05.09.05.25.2.23.1-.01.12-.15.14-.24.03-.14.05-.29.24-.26.21.04.22.2.22.37,0,.21-.2.31-.25.51.28.09.61-.06.84.17,0,.19-.13.24-.27.24-.73.02-1.47.06-2.2-.03Z"/>
          <path class="cls-25" d="M23.25,41.15c.68-.15,1.36-.03,2.04-.07.16,0,.33.05.42-.15.16.22.08.34-.17.38-.09.01-.18.01-.26,0-.27-.02-.4.05-.24.33.03.05.06.12.06.17,0,.13.09.3-.08.37-.16.06-.25-.1-.32-.21-.12-.22-.21-.32-.35-.01-.06.13-.16.19-.3.15-.15-.05-.19-.19-.14-.3.2-.49-.05-.55-.44-.51-.11.01-.19-.05-.23-.16Z"/>
        </g>
        <text class="cls-157" transform="translate(3.87 .77) scale(1.38 1)"><tspan class="cls-154" x="0" y="0">Trial</tspan><tspan class="cls-160" x="0" y="28.31" xml:space="preserve">                                                                                                                                                                                     </tspan><tspan class="cls-162" x="0" y="33.74">of</tspan></text>
        <g>
          <text class="cls-156" transform="translate(43.97 .86) scale(1.38 1)"><tspan x="0" y="0">MIDGARD</tspan></text>
          <text class="cls-156" transform="translate(43.97 .86) scale(1.38 1)"><tspan x="0" y="0">MIDGARD</tspan></text>
          <text class="cls-156" transform="translate(43.97 .86) scale(1.38 1)"><tspan x="0" y="0">MIDGARD</tspan></text>
        </g>
      </g>
      <g class="cls-159">
        <g>
          <path class="cls-96" d="M11.91,9.91c.19-.51.29-1.05.67-1.61.69-1.04,1.3-2.12,2.09-3.09.78-.97,1.68-1.82,2.57-2.67.24-.23.57-.28.88-.13.33.16.54.42.55.82.02.46-.09.89-.2,1.33-.19.82-.48,1.61-.62,2.45-.15.86-.49,1.68-.72,2.52-.28,1.01-.67,1.99-.84,3.02-.16.93.02,1.81.58,2.6.23.32.35.33.62.04.65-.69,1.31-1.36,2.14-1.87,1.01-.62,2.12-.95,3.27-1.21.13-.03.3-.03.39-.12.54-.55,1.22-.29,1.85-.34.07,0,.16.03.21.08.41.46.99.48,1.52.62,1.67.42,3.1,1.22,4.25,2.51.08.09.17.18.26.27.4.41.52.39.82-.08.33-.51.46-1.06.48-1.66.04-1.32-.3-2.58-.75-3.79-.54-1.44-.86-2.93-1.23-4.41-.12-.49-.25-.99-.39-1.48-.07-.26-.06-.52.03-.77.18-.52.63-.73,1.13-.5.32.14.61.34.86.59,1.42,1.37,2.62,2.91,3.65,4.59.86,1.41,1.51,2.92,1.88,4.53.18.78.26,1.57.21,2.38-.05.81,0,1.62-.26,2.41-.15.45-.3.89-.51,1.31-.06.18-.21.3-.29.46h0c-.09.16-.21.29-.3.45-.74.94-1.66,1.64-2.81,2.01-.38.12-.53.33-.49.71.01.12.02.26-.07.36-.3.32-.21.66-.11,1.04.24.9.42,1.81.63,2.71.03.13.09.26.14.38.15.75.71,1.3,1.47,1.44.16.03.26-.02.36-.13.25-.28.43-.6.59-.94.18-.64.64-1.08,1.09-1.53.42-.41,1.05-.32,1.64.18.36.3.55.63.4,1.11-.07.3-.26.52-.48.72-.2.2-.4.4-.54.65-.16.37-.52.54-.78.82-.19.2-.31.41-.16.69.04.38.32.65.47.97.37.77.32,1.55-.03,2.31-.14.3-.2.58-.09.9.28.8.19,1.63.24,2.45,0,.14.1.52.27,1.27.49,2.25.75,3.38.96,3.85.11.24.27.57.37,1.06.12.56.11,1.04.08,1.36.08.17.06.36.14.53.28,1.38.64,2.19.93,2.69.09.16.23.36.36.7.3.73.15.92.45,1.49.12.23.23.35.19.52-.03.16-.2.29-.5.46h0c-.25.03-.5.04-.74,0-1.38-.37-2.73-.82-4.03-1.4-.3-.13-.59-.1-.88-.05-1.06.16-2.13.23-3.21.21-.05,0-.1,0-.15,0-.28.03-.31.08-.14.31.28.38.5.78.46,1.27-.13.46-.26.57-.71.59-.25,0-.49.02-.74-.03-.28-.09-.57-.05-.86-.05-.82,0-1.65,0-2.47,0-.72,0-.99-.24-1.1-.96-.04-.25-.03-.5-.04-.75,0-.24-.14-.38-.37-.38-1.06,0-2.12-.04-3.18.02-.2.01-.4.04-.6.05-.35.02-.46.13-.49.49-.02.19,0,.38-.01.56-.05.58-.41.94-1,.96-.16,0-.32,0-.48.06-1.22.06-2.43.04-3.65,0-.33,0-.68-.07-.82-.47-.06-.51.22-.9.46-1.31.05-.08.17-.15.11-.26-.06-.1-.18-.06-.28-.06-.99-.07-1.99-.05-2.97-.26-.54-.11-1.05.02-1.53.24-1.17.55-2.42.84-3.66,1.19-.41-.03-.82-.09-1.23,0-.74.25-1.48.5-2.23.74-.06.02-.12.03-.18.05-.24.08-.44.05-.6-.15-.18-.21-.1-.43.01-.62.3-.49.59-.98.92-1.45.36-.52.51-1.14.87-1.67.28-.41.59-.75.99-1.04.17-.12.33-.26.5-.39.13-.27.25-.55.6-.6h0c.3-.14.48-.42.76-.59h0c.2-.1.35-.25.45-.45.05-.1.1-.2.15-.3.3-.87.49-1.75.42-2.68,0-.11-.03-.22.03-.33.33-.76.53-1.57.56-2.37.02-.44.28-.81.22-1.24-.05-.43.18-.86,0-1.29-.06-.15-.03-.33.07-.47.39-.57.3-1.27.5-1.89.08-.25-.13-.53-.23-.78-.39-.94-.16-1.78.35-2.59.04-.06.08-.13.12-.19.34-.54.33-.62-.13-1.08-.58-.58-1.07-1.25-1.68-1.81-.15-.14-.22-.33-.2-.54.09-.82,1.3-1.53,2.05-1.21.14.06.26.15.32.3.31.84.91,1.51,1.33,2.28.14.26.4.33.67.16.14-.09.27-.22.42-.24.62-.09.77-.56.89-1.06.25-1.03.5-2.05.72-3.08.09-.4.17-.81-.19-1.16-.14-.14-.08-.36-.06-.54.03-.28-.09-.46-.37-.52-1.28-.29-2.18-1.15-2.94-2.14-.71-.91-1.06-2-1.23-3.16-.09-.65-.12-1.29-.12-1.94,0-.34.18-.65.13-1,.17-.75.45-1.8.9-3.02Z"/>
          <path class="cls-96" d="M36.39,26.75c-.03.44-.34.74-.58,1.05-.14.17-.37.1-.56.02-.23-.1-.44-.22-.67-.33-.48-.22-.64-.62-.61-1.12.14.77.73,1.06,1.35,1.35.31.14.43-.06.58-.24.18-.23.27-.52.49-.73Z"/>
          <path class="cls-96" d="M9.8,40.48c.18,1-.09,1.94-.32,2.89-.02.06-.05.11-.13.12.04-.44.21-.85.28-1.29.08-.52.13-1.03.11-1.55,0-.06.04-.11.05-.17Z"/>
          <path class="cls-96" d="M37.57,29.38c-.26-.22-.15-.44.03-.64.28-.31.58-.59.88-.89.04.03.05.07.01.11,0,.3-.26.42-.44.56-.29.22-.52.46-.48.86Z"/>
          <path class="cls-96" d="M38.49,27.96s0-.07-.01-.11c.04-.21.19-.34.33-.48.27-.27.54-.53.72-.87.07.3-.14.48-.31.67-.23.27-.48.53-.73.79Z"/>
          <path class="cls-96" d="M8.76,44.24c-.21.25-.36.58-.76.59.22-.24.41-.51.76-.59Z"/>
          <path class="cls-96" d="M8,44.83c-.28.12-.38.42-.6.6.07-.33.14-.67.6-.6Z"/>
          <path class="cls-96" d="M9.21,43.79c-.02.28-.15.45-.45.45.13-.17.27-.33.45-.45Z"/>
          <path class="cls-96" d="M36.98,18.7c.02-.21.12-.35.29-.46.03.24-.11.36-.29.46Z"/>
          <path class="cls-96" d="M36.68,19.15c.02-.2.12-.36.3-.45.01.23-.11.36-.3.45Z"/>
          <path class="cls-96" d="M11.16,12.32c.04.22-.07.41-.14.61-.04-.22-.03-.43.14-.61Z"/>
          <path class="cls-84" d="M39.98,44.09c-.12-.16-.18-.33-.14-.53.16.15.17.33.14.53Z"/>
          <path class="cls-134" d="M30.82,27.56c.08.35.18.71-.12,1.02-.12.13-.03.25.06.37.39.52.61,1.11.68,1.76.03.44.05.87-.1,1.29-.14.38-.22.42-.59.28-.2-.08-.17.09-.21.17-.24.56-.45,1.14-.78,1.66-.33.51-.69.98-1.17,1.35-.3.23-.46.19-.55-.19-.11-.46-.23-.92-.38-1.41-.22.14-.32.35-.44.53-.48.74-1.11,1.31-1.87,1.75-.39.22-.76.26-1.18.11-1.05-.37-1.73-1.16-2.39-1.98-.11-.13-.16-.38-.35-.34-.19.04-.16.29-.21.45-.08.28-.13.56-.22.84-.13.42-.35.48-.68.18-.83-.76-1.35-1.72-1.77-2.75-.05-.13-.07-.27-.17-.4-.16.02-.25.27-.45.16-.19-.11-.26-.3-.33-.48-.17-.4-.12-.81-.07-1.22.07-.68.39-1.26.7-1.85.11-.12.15-.25.05-.4-.16-.23-.15-.48-.11-.74.15-.23.34-.13.48-.02.27.21.56.23.89.18.4-.06.8-.07,1.19.03.15.03.29.08.38.21.1.27-.11.59.12.84.64.64,1.79.82,2.56.39.47-.27.91-.24,1.38.01.79.43,1.57.23,2.34-.1.16-.07.27-.22.37-.37.14-.21.02-.44.05-.67.3-.34.69-.53,1.12-.4.52.16.98.09,1.43-.16.11-.06.21-.13.35-.09Z"/>
          <path class="cls-76" d="M16.35,10.38c-.2.9-.48,1.78-.48,2.72,0,.7.16,1.36.39,2.01-.09.25.04.46.16.66.18.29.37.59.61.85.21.23.33.52.42.82-.16.49-.31.98-.58,1.42-.1.11-.23.11-.35.09-1.98-.24-3.62-1.03-4.56-2.9-.12-.25-.43-.39-.4-.72-.25-2.37.42-4.54,1.49-6.61.21-.09.31-.29.41-.47.91-1.59,2.07-2.99,3.4-4.25.22-.21.44-.45.8-.3.06.19-.07.34-.14.49-.96,1.99-1.66,4.07-2.2,6.2-.01.04-.04.09,0,.16.16-.17.31-.36.54-.43.24-.07.45-.08.49.25Z"/>
          <path class="cls-19" d="M35.87,8.48c.81,1.62,1.45,3.29,1.58,5.12.17,1.15-.06,2.22-.76,3.14-.65.86-1.51,1.48-2.54,1.85-.38.14-.76.25-1.15.33-.31.06-.62.06-.9-.14-.26-.34-.33-.76-.53-1.12-.1-.12-.13-.27-.13-.42.08-.38.29-.67.61-.91.57-.42.78-1.05.95-1.69.01-.05-.02-.09-.05-.14.32-1.25.14-2.48-.22-3.69-.04-.14-.08-.29-.11-.43.04-.35.2-.44.48-.27.27.17.44.43.68.71-.08-.65-.24-1.23-.41-1.8-.47-1.59-1.06-3.14-1.77-4.65-.06-.14-.13-.27-.12-.43.11-.27.28-.29.5-.11.59.5,1.18,1.01,1.64,1.63.58.79,1.28,1.51,1.72,2.4.12.24.33.44.55.6Z"/>
          <path class="cls-30" d="M32.02,33.27c.13-1.03.12-2.06-.14-3.07-.04-.33.07-.49.44-.6.55-.16,1.11-.12,1.67-.05.31.04.59.17.94.19-.06-.22-.24-.27-.38-.35-.64-.36-1.36-.48-2.06-.65-.12-.03-.24-.05-.37-.08-.39-.08-.66-.28-.69-.71-.14-.5-.12-.53.41-.52.29,0,.59-.09.86.08-.23.16-.48.06-.71.07,1.47.23,2.88.68,4.09,1.61.49.37.91.82,1.29,1.3.08.1.11.26.3.24.29.59.12,1.16-.08,1.73-.08.23-.27.1-.41.11-.04.13.09.18.09.28-.07.3.06.53.25.73.12.16.04.35.07.53.06.23.02.47-.03.7-.05.26-.27.43-.54.45-.97.06-1.94.11-2.89-.15-.58-.15-1.1-.42-1.54-.81-.3-.27-.55-.58-.56-1.01Z"/>
          <path class="cls-127" d="M11.55,35.7c.02-.06.05-.11.07-.17-.3-.48-.16-1.01-.19-1.52.03-.08.14-.04.16-.17.05-.38.28-.72.25-1.12-.6-.35-.55-.95-.59-1.51,0-.07,0-.15.08-.19.39-.56.74-1.15,1.26-1.62.93-.83,2.02-1.32,3.21-1.63.22-.06.43-.12.66-.15.37,0,.73,0,1.08-.13.21.2-.07.4,0,.59-.07.47-.43.57-.82.61-.84.09-1.63.37-2.37.76-.16.09-.33.18-.44.34.5-.17,1.01-.27,1.52-.35.31-.05.62-.06.93,0,.46.09.77.45.73.82-.25.96-.28,1.94-.15,2.93.05.45-.2.76-.5,1.02-.79.67-1.72.99-2.74,1.04-.34.01-.67.01-1.01,0-.41-.02-.73.11-.94.48-.08.07-.15.05-.2-.03Z"/>
          <path class="cls-136" d="M30.82,27.56c-.4.22-.78.5-1.27.46-.09,0-.19.01-.26-.03-.52-.3-.92,0-1.33.24-.14,0-.15-.11-.2-.19-.19-.35-.44-.67-.7-.97-.68-.78-1.56-1.04-2.56-.96-.11,0-.22.05-.33.04-1.22-.07-2.01.59-2.66,1.52-.12.18-.17.42-.42.5-.5-.32-1.04-.27-1.58-.18-.34.06-.63.05-.9-.2-.11-.1-.27-.28-.41-.01-.16-.06-.08-.18-.07-.29,0-1.03,0-2.06.1-3.08.15-.25.39-.18.61-.16.27.03.53.13.79.21.23.1.32.26.28.51-.04.23.03.45.09.66.12.43.39.74.84.81.43.07.81-.11,1.09-.46.02-.03.04-.06.07-.09.44-.68.39-.85-.34-1.16-.68-.29-1.35-.59-2.02-.9-.17-.08-.34-.16-.48-.28-.07-.06-.13-.12-.11-.22.02-.1.12-.12.2-.14.1-.02.2-.02.3-.02.73,0,1.45,0,2.18,0,.14,0,.27.02.41.03.36.04.52.26.52.61,0,.04.02.09.02.13.38.76.98,1.26,1.79,1.51.05,0,.1,0,.15,0,.28-.07.48-.26.69-.44.23-.19.44-.41.68-.59.26-.2.42-.46.4-.8-.01-.23.11-.34.32-.39.17-.04.34-.07.52-.07.75,0,1.5,0,2.24,0,.06,0,.12,0,.19,0,.1.02.21.02.24.14.04.12-.06.18-.14.24-.16.1-.32.2-.48.29-.65.31-1.32.59-1.97.9-.13.07-.27.14-.38.24-.09.09-.16.19-.16.33.01.43.52,1.02.94,1.1.81.14,1.36-.37,1.33-1.26,0-.29,0-.55.32-.69.31-.12.64-.18.97-.22.19-.02.38,0,.43.23.03,1.03.05,2.05.08,3.08Z"/>
          <path class="cls-119" d="M17.52,30.7c.04.48,0,.97.26,1.42.18.32.24.33.44.03.04-.06.07-.15.16-.12.09.03.11.13.13.21.23.76.58,1.46,1.03,2.11.26.37.55.71.88,1.02.24.23.37.2.47-.13.12-.41.21-.82.32-1.23.03-.12.04-.27.2-.28.13,0,.19.11.25.2.31.51.73.92,1.13,1.34.41.43.91.69,1.45.9.36.14.68.09,1-.09.78-.43,1.42-1.01,1.9-1.77.09-.15.2-.29.31-.42.07-.08.08-.25.22-.21.12.03.09.19.12.29.12.44.22.89.34,1.34.06.22.13.3.35.12,1.01-.82,1.56-1.92,2-3.11.07-.18.08-.54.36-.09.14.23.29.02.36-.14.19-.45.17-.93.24-1.39.24.91.15,1.82-.06,2.72-.21.9-.52,1.76-1,2.55-.25.08-.22-.12-.24-.25-.03-.26,0-.52-.02-.84-.18.22-.3.43-.49.57-.53.76-1.17,1.42-1.88,2.03-.28.17-.47,0-.65-.18-.35-.38-.39-.39-.84-.09-.38.26-.77.51-1.19.7-.25.11-.49.12-.76,0-.53-.22-1.06-.43-1.54-.75-.38-.25-.49-.22-.8.11-.16.18-.3.42-.61.28-.83-.58-1.48-1.34-2.03-2.18-.23-.2-.32-.5-.51-.72,0,.32.02.65,0,.97-.02.16-.04.37-.31.28-.58-1.03-.94-2.14-1.08-3.31-.08-.63-.11-1.27.09-1.89Z"/>
          <path class="cls-102" d="M32.02,33.27c.6,1.36,1.78,1.74,3.12,1.88.58.06,1.16,0,1.75,0,.4,0,.59-.19.63-.57.01-.16.05-.32.08-.48.13.53.17,1.07.05,1.61-.02.08-.05.16-.02.25.31,1.12.37,2.3.71,3.42.15.49.34.96.52,1.44.07.17.1.33.08.51-.06.54.13,1.04.22,1.56.23,1.2.34,2.42.69,3.6.2.66.43,1.3.73,1.92.05.1.16.21.07.34-.31.02-.5-.16-.67-.4-.83-1.21-1.23-2.58-1.56-3.98-.42-1.81-.81-3.62-1.53-5.34-.34-.8-1.01-1.29-1.79-1.61-1.16-.48-2.33-.96-3.46-1.51-.25-.12-.36-.3-.26-.53.28-.68.38-1.41.65-2.1Z"/>
          <path class="cls-53" d="M17.97,43.94c.03-.07.07-.15.1-.22.1-.1.22-.11.35-.11.63.04,1.25-.1,1.85-.24.81-.18,1.5-.01,2.11.56.52.49,1.15.81,1.87.86.9.06,1.7-.28,2.29-.92.52-.56,1.04-.75,1.79-.53.59.17,1.23.21,1.85.27.22.02.45.01.64.18-.01.24.15.54-.21.68-.64.28-1.34.25-1.95.41.62,0,1.28-.23,1.96-.26.55-.05.58-.1.47-.63-.04-.19-.01-.39-.02-.58.05-.08-.02-.22.11-.26.09-.03.14.03.16.11.08.34.16.68.23,1.02.11.52.04.64-.48.77-1.24.31-2.51.4-3.79.45-1.59.07-3.17.1-4.76.04-1.6-.06-3.19-.11-4.76-.5-.52-.13-.55-.16-.47-.68.04-.27.1-.54.15-.81.05-.07.04-.22.19-.18.17.05.18.18.11.32,0,.02-.01.05,0,.07-.04.59.04.7.59.82.59.13,1.19.23,1.74.29-.54-.13-1.15-.19-1.74-.34-.39-.09-.47-.24-.37-.61Z"/>
          <path class="cls-14" d="M11.68,35.76c.15-.46.35-.61.86-.6.89,0,1.78.06,2.62-.3.8-.33,1.54-.72,1.78-1.66.25.74.38,1.52.66,2.25.04.11.01.24-.11.29-.3.12-.55.34-.85.47-1.1.48-2.23.88-3.28,1.45-.45.25-.8.62-1.04,1.09-.51.99-.97,2-1.2,3.1-.05.23-.1.45-.23.68-.16.29-.24.26-.42.06-.03-.03-.08-.05-.13-.07-.09-.11-.05-.24-.03-.36.33-1.97.63-3.95,1.15-5.89.05-.18.06-.38.22-.51Z"/>
          <path class="cls-139" d="M4.94,50.11c-.08.08-.19.12-.27.06-.11-.08,0-.19.05-.26.42-.72.9-1.42,1.25-2.17.36-.81.92-1.38,1.61-1.91,1.74-1.33,3.27-2.9,4.93-4.32.7-.6,1.13-.6,1.8.04,0,.26-.18.41-.33.56-.86.85-1.78,1.64-2.66,2.47-.89.84-1.85,1.6-2.68,2.51-.43.47-.95.81-1.54,1.04-.22.09-.4.21-.55.37-.44.46-.93.87-1.32,1.38-.08.1-.2.14-.29.24Z"/>
          <path class="cls-101" d="M4.94,50.11c.5-.73,1.15-1.32,1.8-1.9.36-.32.91-.38,1.3-.72.12-.11.26-.2.37-.31,1.61-1.61,3.33-3.09,5-4.63.33-.31.65-.62.9-1,.75.65.77,1.07.06,1.77-1.75,1.71-3.52,3.41-5.27,5.11-.29.28-.62.49-.99.65-1.03.42-2.08.77-3.16,1.04Z"/>
          <path class="cls-151" d="M19.58,16.07c-.18-.37-.53-.53-.89-.68-.13-.05-.3-.03-.4-.16-.03-.1.03-.17.1-.22.69-.55,1.39-1.07,2.21-1.43.09-.04.19-.07.29-.03.18.21-.03.29-.14.37-.3.21-.59.42-.85.67-.12.11-.3.23-.22.43.08.21.28.32.5.34.54.05,1.07-.03,1.6-.11.42-.06.83-.15,1.25-.16,0,.45.04.91-.07,1.35-.09.9-.18,1.81-.32,2.71-.09.52-.17.6-.71.6-.65,0-1.3,0-1.95,0-.41,0-.59-.17-.55-.57.07-.78.12-1.57.24-2.35.04-.27.04-.52-.07-.77Z"/>
          <path class="cls-36" d="M26.03,15.92c-.01-.4-.13-.79-.07-1.2.13,0,.14.12.18.21.06.12.15.21.28.23.77.07,1.53.31,2.32.16.31-.06.54-.18.62-.49.34.04.61.35.56.65-.12.1-.24.21-.37.31-.19.25-.18.54-.14.82.11.82.11,1.64.16,2.46.03.51-.05.57-.55.62-.7.07-1.39.03-2.09,0-.28-.01-.32-.23-.36-.44-.22-1.1-.48-2.19-.55-3.31Z"/>
          <path class="cls-115" d="M23.31,23.75c-.03-.05-.05-.11-.08-.16-.06-.41-.01-.82-.02-1.22,0-.19.01-.37-.08-.55-.16-.16-.36-.17-.55-.15-.33.02-.55-.08-.62-.43-.02-.11-.1-.2-.13-.31-.06-.22-.05-.42.19-.54.14-.05.28-.06.42,0,.16.16-.03.2-.09.28-.03.04-.07.08-.06.13.02.07.09.07.16.07.13,0,.24-.05.33-.15.13-.16.31-.24.51-.28q.64-.07.7-.71c.02-.21.06-.42.05-.63,0-1.45,0-2.9,0-4.35,0-.21,0-.43.08-.63.13-.3.39-.35.63-.14.15.13.22.3.26.49.1.5.13,1,.05,1.49-.11.68.06,1.35.09,2.02,0,.16.16,0,.17.11.1.17.08.36.08.55,0,1.57,0,3.14-.02,4.7-.07.32-.71.96-1.02,1.01-.19.03-.35-.04-.47-.18-.16-.19-.36-.31-.58-.39Z"/>
          <path class="cls-66" d="M30.81,43.8c-.97-.1-1.93-.21-2.88-.42-.42-.09-.73-.03-1.03.3-.64.72-1.44,1.2-2.43,1.22-.8.02-1.51-.28-2.07-.82-.68-.66-1.41-.81-2.29-.58-.66.18-1.35.25-2.04.21.06-.3.12-.61.18-.91.04-.22.16-.33.4-.29.92.15,1.85.05,2.77.07.32,0,.54.13.71.39.71,1.04.71,1.04,1.99,1.04.4,0,.8-.03,1.2,0,.56.04.97-.17,1.22-.67.34-.68.91-.86,1.6-.74.64.11,1.27,0,1.9-.07.48-.05.55-.03.65.46.06.27.18.52.13.8Z"/>
          <path class="cls-5" d="M25.28,23.44c0-1.81-.01-3.61-.02-5.42-.09-.09-.1-.2-.1-.31,0-.87-.04-1.73.02-2.6.11-.37.04-.76.06-1.13,0-.17-.04-.35.11-.48.15.58.15,1.18.19,1.77.1,1.45.18,2.91.24,4.37.01.3.11.36.39.36,1.87-.01,3.74,0,5.61-.01-.1.23-.31.16-.48.17-1.68,0-3.36,0-5.04.02-.19,0-.43-.09-.57.15.05.23.24.14.37.14,1.49.02,2.99-.02,4.48,0,.73.02,1.08.27,1.21.87.04.21,0,.35-.23.38-1.71.02-3.41,0-5.12,0-.15,0-.3,0-.45,0-.38.03-.48.13-.49.51,0,.27,0,.55,0,.82,0,.14.02.31-.18.37Z"/>
          <path class="cls-104" d="M21.51,49.29c.18.5-.01.78-.51.82-1.23.09-2.47.06-3.7.07-.14,0-.32.08-.41-.09-.08-.16,0-.31.12-.44.64-.55,1.39-.52,2.16-.42.15.02.33.12.32-.17.17-.02.24.16.45.22-.36-.47-.74-.78-1.25-.94-.22-.07-.45-.13-.68-.2-.09-.02-.2-.11-.23.06-.02.09-.03.18-.15.16-.12-.02-.15-.11-.15-.22.1-.19.05-.43.23-.59.37.27.83.26,1.25.29.62.04,1.25.01,1.87.01.15,0,.3-.01.43-.09.12-.07.21-.05.27.09-.13.09-.12.24-.12.37.01.36-.06.71-.01,1.07,0,.04-.04.11.04.11.02,0,.05-.08.09-.11Z"/>
          <path class="cls-44" d="M31.49,3.92c.96,2.04,1.78,4.14,2.29,6.34.04.19.08.39.11.58,0,.06.02.13-.06.16-.08.03-.11-.04-.14-.09-.15-.26-.33-.5-.57-.69-.28-.22-.36-.2-.5.14-.69-2.21-1.15-4.49-1.84-6.71-.08-.27-.11-.55.2-.72.27.28.38.63.51.98Z"/>
          <path class="cls-126" d="M31.94,49.64c.16.41.14.46-.28.46-.75,0-1.5,0-2.25,0-.48,0-.97.1-1.45.08-.27-.01-.46-.1-.5-.39.22-.44.2-.9.15-1.37-.02-.19-.11-.39,0-.58,1.21.2,2.41.07,3.59-.22.15.05.19.2.29.29,0,.48-.04.52-.48.41-.64-.17-1.35.26-1.65.65-.05.06-.04.11.03.15,0,.14.06.19.21.14.21-.07.43-.13.65-.16.64-.09,1.2.11,1.68.53Z"/>
          <path class="cls-49" d="M16.35,10.38c-.2-.37-.46-.21-.68-.04-.17.13-.3.31-.52.55,0-.51.16-.89.26-1.27.54-1.99,1.24-3.93,2.16-5.78.02-.04.03-.09.04-.14.02-.3.11-.56.37-.74.33.17.25.45.18.71-.34,1.32-.69,2.65-1.03,3.97-.16.61-.27,1.24-.43,1.85-.08.31-.18.62-.37.89Z"/>
          <path class="cls-61" d="M25.28,15.11c0,.97-.01,1.95-.02,2.92-.03.05-.06.11-.11.2-.13-.26-.13-.53-.19-.78-.16-.77.02-1.54,0-2.31,0-.26-.04-.52-.08-.78-.03-.16-.13-.3-.27-.39-.16-.11-.3-.1-.39.11-.07.17-.08.34-.08.51,0,1.52,0,3.05,0,4.57-.15.24-.08.51-.13.76-.02.12-.03.28-.19.28-.13,0-.14-.15-.17-.25-.05-.17-.06-.34-.04-.52.07-.69.06-1.37,0-2.06-.06-.6-.05-1.2,0-1.8.04-.54.07-1.07.02-1.61-.03-.3.09-.59.01-.89,0-.09-.02-.17-.01-.26.03-.66.17-.74.7-.72.05,0,.1,0,.15,0,.8.01.84.06.81.87,0,.06,0,.12,0,.19.05.66.05,1.31,0,1.97Z"/>
          <path class="cls-58" d="M23.01,15.1c-.44.25-.94.19-1.41.28-.44.09-.91.13-1.37.1-.15-.01-.3-.03-.43-.11-.39-.26-.41-.44-.07-.76.3-.29.62-.53.96-.76.06-.04.3-.06.13-.25,0-.14.12-.19.21-.23.63-.31,1.3-.5,1.99-.61.05,0,.1,0,.14.03.03.78-.08,1.55-.16,2.32Z"/>
          <path class="cls-39" d="M29.4,14.8c.07.4-.17.52-.49.6-.57.15-1.14.04-1.7-.03-.16-.02-.32-.04-.48-.05-.53-.02-.61-.08-.77-.6-.04-.63-.21-1.25-.14-1.89.11-.09.23-.07.35-.04.63.14,1.24.34,1.8.66.02.16.11.27.24.36.32.23.62.46.93.7.11.08.23.15.26.31Z"/>
          <path class="cls-80" d="M23.19,43.34c-.31-.3-.6-.62-.78-1.02-.01-.08-.06-.13-.1-.2-.08-.12-.16-.27-.01-.36.15-.09.24.07.32.17.11.14.17.32.34.42-.33-.42-.61-.88-.88-1.33.31-.68.61-1.36,1.2-1.86.21,0,.45-.04.53.24-.09.26-.32.41-.49.61-.59.68-.57,1.17-.02,2.08.52.86,1.99.7,2.36-.03.07-.14.17-.28.26-.41.39-.58.37-.68,0-1.28-.17-.28-.51-.46-.56-.82.21-.32.44-.39.81-.26.02.03.04.05.06.08.13.51.44.94.63,1.42.04.09.11.17.07.28-.24.31-.4.65-.37,1.05,0,.13-.04.24-.08.36-.23.3-.46.59-.69.89-.11.07-.23.07-.36.03-.42-.12-.84-.09-1.26-.04-.33.04-.66.06-1,0Z"/>
          <path class="cls-43" d="M35.17,39.05c.14-.1.24-.04.31.08.07.51.08,1.01.07,1.52,0,.26-.13.48-.33.64-.49.4-1.06.54-1.68.48-.29-.03-.51-.18-.59-.45-.17-.59-.53-1.13-.45-1.79,0-.09-.01-.17.03-.26.13-.12.3-.11.46-.08.6.09,1.21.05,1.81.04.14,0,.34.05.37-.2Z"/>
          <path class="cls-9" d="M29.56,39.3c-.64.14-1.29.05-1.93.09-.64.04-.95-.32-1.23-.78-.07-.12-.13-.26,0-.38.14-.13.31-.06.4.05.26.3.53.21.81.06.5-.27.92-.63,1.34-1.02.43-.4.48-.39.8.08.22.32.35.34.58.02.28-.38.51-.79.8-1.24.13.41.11.8.1,1.15,0,.41.05.82.05,1.23,0,.64-.04.68-.69.64.03-.19.2-.2.33-.26.15-.07.2-.19.15-.34-.05-.17-.19-.13-.31-.09-.49.15-.98.19-1.47.03-.19-.06-.37.02-.54.11-.32.19-.66.35-1.02.53.48.01.93,0,1.37,0,.16,0,.33-.04.45.11Z"/>
          <path class="cls-22" d="M17.76,39.13c-.14-.14-.07-.31-.07-.46,0-.66,0-1.32,0-1.99,0-.11-.02-.25.11-.29.16-.05.22.09.27.2.15.33.33.65.58.91.27.27.38.26.58-.05.3-.46.29-.46.7-.09.45.4.95.72,1.47,1.02.28.16.53.17.79-.05.08-.06.17-.11.26-.15.07-.03.15-.03.21.04.07.08.05.15,0,.24-.36.7-.91,1-1.7.9-.32-.04-.65.08-.95-.07.38-.21.8-.05,1.14-.15-.13-.02-.29-.13-.45-.22-.46-.26-.93-.41-1.47-.26-.35.1-.7-.01-1.03-.12-.24-.07-.36-.03-.34.24,0,.12,0,.25-.1.35Z"/>
          <path class="cls-55" d="M37.04,17.04c-.02.4-.16.75-.36,1.09-.78,1.29-1.83,2.23-3.31,2.63-.34.09-.53-.02-.65-.33-.09-.24-.17-.49-.25-.74.21-.17.47-.16.7-.22,1.42-.33,2.48-1.14,3.24-2.37.04-.06.08-.13.13-.19.1-.11.15-.32.36-.26.2.06.1.26.15.39Z"/>
          <path class="cls-97" d="M16.55,19.68c-.09.26-.2.51-.27.77-.1.36-.33.44-.66.33-1.9-.61-3.19-1.85-3.76-3.78-.04-.13-.06-.27-.09-.4.29-.04.45.17.57.36.97,1.5,2.38,2.3,4.09,2.65.05.01.09.03.13.07Z"/>
          <path class="cls-148" d="M31.82,26.58c-.48-1.04-.57-2.16-.7-3.28-.04-.13-.04-.29.11-.3.47-.03.94-.24,1.41-.02.11.34.18.7.22,1.05-.15.02-.18-.11-.24-.2-.15-.25-.38-.28-.62-.19-.24.09-.34.29-.31.54.03.26.15.45.44.48.26.03.47-.05.59-.3.05-.11.04-.25.14-.34.27.74.4,1.51.6,2.26.04.17.09.34.14.5.06.19,0,.26-.2.22-.21-.23-.47-.28-.77-.27-.28.01-.57,0-.81-.19Z"/>
          <path class="cls-110" d="M20.69,40.48c0,.39-.02.78.02,1.16.03.36-.16.48-.46.48-.4,0-.8-.03-1.19-.08-.38-.05-.76-.14-1.14-.2-.32-.06-.48-.22-.46-.57.02-.39,0-.78.01-1.16.12-.06.24-.01.36.01.78.16,1.56.25,2.35.25.17,0,.35-.01.5.1Z"/>
          <path class="cls-116" d="M30.15,40.18c.36-.13.74-.05,1.11-.07.13,0,.16.08.18.19.08.37.07.75.07,1.12,0,.26-.19.37-.41.42-.84.18-1.7.23-2.56.26-.23,0-.25-.15-.25-.33,0-.4,0-.8,0-1.2.32-.15.67-.13,1.02-.17.29-.04.6,0,.85-.2Z"/>
          <path class="cls-59" d="M29.17,23.79c.19-.19.49-.22.73-.51-.25,0-.41,0-.58,0-.83.03-1.67-.03-2.5.05-.31.03-.46.14-.42.47.02.14,0,.29-.09.39-.43.47-.87.92-1.43,1.25-.09.05-.19.06-.29.03.46-.4.89-.83,1.38-1.19.35-.26.35-.63.34-1.01-.02-.56-.02-.56.54-.57,1.08-.02,2.17-.05,3.25-.09.35-.01.49.12.5.47.02.47.15.93.13,1.41-.15-.21-.37-.15-.57-.12-.29.05-.57.13-.85.19-.12-.24.05-.54-.15-.76Z"/>
          <path class="cls-123" d="M23.24,21.72c.08.05.11.13.09.22-.15.54-.04,1.1-.1,1.65-.15-.36-.02-.74-.04-1.11,0-.25-.09-.32-.33-.32-1.62-.04-3.25-.09-4.87-.15-.52-.02-1.05-.05-1.57-.08-.31-.02-.46-.24-.27-.43.38-.38.47-.9.69-1.35.56.04,1.12.14,1.69.11.12,0,.25,0,.35.09,0,.18-.14.17-.25.21-.17.05-.34.06-.51.09-.21.04-.37.13-.47.33-.19.36-.09.55.31.55,1.26,0,2.51.11,3.77.09.5,0,1.02-.03,1.51.11Z"/>
          <path class="cls-98" d="M19.64,24.55c-.33-.07-.65-.16-.98-.21-.14-.03-.3-.02-.43.07.05-.46.11-.92.14-1.37.02-.33.13-.47.48-.45,1.12.08,2.24.12,3.37.09.33,0,.49.11.46.46-.02.22-.02.45-.03.67-.07-.29-.21-.5-.54-.5-1,0-2,0-3.06,0,.19.28.49.31.68.48-.06.25-.03.51-.08.76Z"/>
          <path class="cls-33" d="M31.58,21.64c.11-.01.13-.06.11-.17-.14-.64-.41-.86-1.08-.88-.06-.07-.21,0-.22-.09-.01-.13.12-.13.21-.15.29-.09.59-.06.88-.12.21-.03.43-.06.64-.1.29.48.4,1.05.76,1.49.16.19-.07.27-.2.29-.26.05-.52.09-.78.09-2.01,0-4.01.11-6.02.17-.11-.09-.2-.22-.14-.35.07-.16.25-.13.4-.13,1.68,0,3.36,0,5.05,0,.13,0,.27.04.4-.04Z"/>
          <path class="cls-46" d="M17.62,24.95c-.03.53-.22,1.02-.41,1.51-.08.2-.24.31-.47.3-.2,0-.4,0-.6-.01-.18,0-.34-.02-.44.18-.04.09-.15.16-.25.1-.11-.06-.02-.16,0-.23.25-1.12.51-2.24.76-3.35.06-.14.15-.17.28-.11.1.14.02.26-.04.38-.05.13-.13.24-.16.37-.04.18-.2.37,0,.54.16.13.54.05.72-.11.11-.1.13-.28.31-.29.27.17.33.42.29.72Z"/>
          <path class="cls-133" d="M30.9,16.23l.07.07c.2.46.36.94.44,1.44.01.5.26.93.4,1.4.15.49.12.54-.38.57-.77.04-.85,0-1.03-.75-.18-.75-.48-1.47-.5-2.26.33-.15.64-.35.99-.46Z"/>
          <path class="cls-20" d="M16.55,19.68c-.92-.05-1.72-.43-2.49-.89-.71-.43-1.3-.98-1.73-1.71-.13-.21-.32-.38-.56-.48-.13-.41-.21-.84-.22-1.27.67.88,1.08,1.94,2.12,2.54,1,.58,2.02,1.01,3.2.98-.03.3-.14.57-.31.83Z"/>
          <path class="cls-60" d="M37.04,17.04c-.11-.09-.01-.31-.19-.33-.19-.02-.2.19-.27.31-.93,1.58-2.3,2.46-4.12,2.67-.12-.3-.24-.61-.36-.91,1.47.18,2.65-.45,3.76-1.32.75-.58,1.12-1.41,1.51-2.24.09-.2.06-.42.07-.63,0-.34,0-.67,0-1.01.16,1.18.05,2.34-.4,3.45Z"/>
          <path class="cls-26" d="M32.55,39.28c.06.2.09.41.07.63-.02.26,0,.5.21.69.09.09.07.2.09.31.07.59.29.78.87.78.32,0,.62-.07.91-.19.57-.23.77-.55.77-1.18,0-.4,0-.8,0-1.2.19.79.29,1.6-.1,2.35-.33.64-.9.95-1.63.88-.65-.07-1.08-.45-1.34-1.04-.22-.47-.1-.98-.22-1.47-.06-.24-.08-.49-.12-.73-.03-.22-.03-.22.2-.2.15.08.29.16.3.36Z"/>
          <path class="cls-143" d="M21.37,37.56c.24,0,.38-.13.51-.31.35-.45.49-.47.96-.15.52.35,1.11.56,1.68.8.2.08.37-.01.54-.08.47-.2.89-.5,1.31-.78.36-.24.48-.23.73.12.16.23.35.38.65.33-.3.36-.38.39-.73.13-.2-.15-.36-.18-.57-.04-.37.23-.76.43-1.13.66-.51.31-1.01.31-1.5-.04-.37-.26-.8-.39-1.16-.67-.14-.11-.41-.14-.54.06-.28.41-.51.21-.75-.03Z"/>
          <path class="cls-118" d="M31.43,27.94c.15.5.57.59,1,.68.82.18,1.66.33,2.39.79.05.03.11.06.16.1.09.08.16.17.1.29-.07.14-.19.08-.29.04-.62-.22-1.25-.29-1.91-.26-.22,0-.42.05-.62.12-.21.08-.4.21-.39.49-.43-.45-.34-1.04-.44-1.58-.04-.22,0-.45,0-.67Z"/>
          <path class="cls-111" d="M17.09,30.27c-.09-.41-.46-.74-.9-.75-.7-.02-1.38.1-2.04.33-.15.05-.35.24-.46.04-.07-.13.16-.24.29-.33.83-.51,1.71-.86,2.68-.95.37-.04.71-.14.87-.53,0,.28,0,.57,0,.85.03.51-.14.94-.45,1.33Z"/>
          <path class="cls-77" d="M26.03,15.92c.15.75.31,1.5.44,2.26.07.42.25.81.24,1.24,0,.12.09.17.2.18.78.08,1.56.14,2.34,0,.18-.03.23-.13.22-.29-.04-.72-.1-1.44-.12-2.16-.02-.47-.16-.96.2-1.38-.1.3-.1.6-.02.92.2.79.39,1.59.58,2.39.13.56.05.67-.52.67-.99,0-1.97-.01-2.96,0-.3,0-.46-.12-.46-.4-.02-1.15-.19-2.29-.15-3.43Z"/>
          <path class="cls-121" d="M17.98,2.95c-.12.25-.25.49-.37.74-.32.05-.56.22-.79.45-1.33,1.3-2.51,2.72-3.42,4.36-.07.12-.13.35-.37.23.1-.36.28-.69.48-1.01,1.09-1.77,2.34-3.39,3.96-4.71.17-.13.31-.27.51-.05Z"/>
          <path class="cls-141" d="M23.63,13.07c.07.74.19,1.48.11,2.22-.08.75-.08,1.49,0,2.24.06.59.07,1.18,0,1.76-.04.31,0,.57.06.87.33-.28.04-.74.34-1-.02.27-.09.55-.06.81.04.36-.11.5-.44.52-.14,0-.27.01-.41.02-.06-.03-.17-.01-.15-.14.13-.18.02-.2-.13-.2-.46,0-.91,0-1.37,0-.16,0-.32.03-.45-.11.59-.09,1.19-.04,1.79-.03.27,0,.32-.09.34-.34.08-1.87.18-3.74.27-5.61.02-.34.06-.67.1-1Z"/>
          <path class="cls-21" d="M19.79,46.36c.72-.06,1.44.07,2.16-.08.17-.04.26.07.29.22.04.2.04.41-.18.52-.27.14-.56.22-.85.25-1.25.16-2.48.16-3.67-.33-.07-.14-.22-.28-.08-.44.13-.14.3-.05.46,0,.96.27,1.94.34,2.93.18.05,0,.1-.02.16-.1-.26-.09-.52-.03-.77-.06-.16-.02-.36.06-.45-.17Z"/>
          <path class="cls-70" d="M31.65,45.97c.23.65.12.9-.5,1.09-1.28.39-2.58.38-3.87.11-.29-.06-.64-.13-.61-.57.01-.19.1-.31.31-.29.76.1,1.52,0,2.28.04-.07.21-.25.16-.4.17-.42.01-.84,0-1.25.03.86.23,1.73.27,2.61.11.11-.02.22-.04.33-.05.48-.03.91-.14,1.11-.65Z"/>
          <path class="cls-68" d="M19.58,16.07c.2.14.23.35.21.57-.09.85-.19,1.7-.29,2.55-.04.31.12.49.44.49.7,0,1.4,0,2.1,0,.34,0,.42-.17.46-.45.14-.93.19-1.87.44-2.78.04.96-.02,1.92-.07,2.87-.02.29-.11.43-.44.46-1.04.07-2.09.08-3.13,0-.33-.03-.37-.21-.33-.45.16-.78.24-1.57.48-2.33.1-.31.1-.61.12-.92Z"/>
          <path class="cls-54" d="M19.11,16.45c.03.83-.29,1.59-.47,2.37-.23,1,0,.89-1.17.87-.34,0-.42-.13-.3-.44.15-.41.29-.82.44-1.23.11.04.2.25.34.03.35-.4.7-.81.88-1.33.1-.09.1-.27.27-.28Z"/>
          <path class="cls-81" d="M31.49,3.92c-.24-.29-.39-.63-.51-.98.15-.14.29-.1.43.01,1.87,1.47,3.26,3.33,4.41,5.38.02.04.03.09.04.14-.2-.04-.47-.26-.62-.53-.75-1.32-1.69-2.48-2.77-3.54-.2-.19-.42-.35-.61-.54-.17-.17-.26,0-.38.06Z"/>
          <path class="cls-74" d="M37.67,30.72c0,.07-.02.14-.04.28-1.44-2.18-3.56-3.07-6.07-3.39.42-.2.8-.02,1.14-.1,1.56.17,2.92.77,4.07,1.86.41.38.71.83.9,1.36Z"/>
          <path class="cls-99" d="M29.56,39.3h-2.07s0-.07-.01-.1c.5-.25,1.01-.51,1.51-.76.1-.05.22-.06.33-.02.5.21,1,.13,1.49-.03.14-.04.33-.14.37.07.04.19.15.45-.18.56-.14.04-.27.12-.41.18-.35.03-.69.07-1.04.1Z"/>
          <path class="cls-137" d="M16.4,27.71c-.75.22-1.52.4-2.23.75-1.11.54-2,1.31-2.61,2.39-.05.09-.05.27-.24.18.02-.55.27-1.01.61-1.41.92-1.07,2.09-1.75,3.49-1.99.21-.03.42-.04.63-.07.13-.02.31-.06.35.15Z"/>
          <path class="cls-129" d="M31.58,21.64c-.11.12-.26.07-.39.07-.86,0-1.72-.03-2.58.01-.78.04-1.56-.02-2.34,0-.49,0-.49,0-.4.45-.15.28-.06.59-.07.88-.02.67-.58,1.45-1.21,1.65-.12.04-.22,0-.31-.08-.33-.29-.65-.58-.97-.86.26-.03.45.07.61.28.23.3.4.32.67.06.23-.22.55-.34.69-.65.14-.41.06-.84.05-1.26,0-.35.11-.51.45-.54.06,0,.12-.02.19-.02,1.87,0,3.74,0,5.61,0Z"/>
          <path class="cls-94" d="M15.66,40.87c-.51-.37-.96-.82-1.52-1.13-.16-.09-.3-.23-.28-.45.38-.12.77-.03,1.15-.03.43,0,.87-.08,1.3.07.16.5.05.98-.15,1.44-.09.21-.3.24-.51.11Z"/>
          <path class="cls-62" d="M40.64,48.75c-.9-1.63-1.22-3.42-1.48-5.22-.03-.21-.06-.42-.09-.63-.03-.06-.04-.12.02-.15.06-.03.11.02.13.08.49,2.15.93,4.31,2.05,6.26-.38.14-.46-.19-.64-.33Z"/>
          <path class="cls-34" d="M13.94,38.31c-.17-.21-.03-.32.14-.4.95-.41,1.89-.82,2.84-1.23.18-.08.27-.05.27.19,0,.5-.14.96-.35,1.4-.09.19-.25.24-.43.25-.27.01-.55,0-.82,0,.03-.18.18-.14.29-.16.12-.02.27-.02.26-.19,0-.18-.06-.34-.26-.41-.06-.02-.13-.02-.18,0-.58.21-1.2.3-1.76.55Z"/>
          <path class="cls-125" d="M17.76,39.13v-.79c.23-.01.39.1.57.13.33.06.65.17.99.06.46-.15.88,0,1.29.22.23.12.46.26.72.4-.45.18-.89.09-1.32.13-.69-.03-1.39-.06-2.08-.09-.06,0-.11-.04-.17-.06Z"/>
          <path class="cls-56" d="M21.14,20.05c.63,0,1.26,0,1.89.02.12,0,.3-.09.35.1.06.24-.22.14-.29.25-.19.15-.39.15-.59.02-.15,0-.3-.01-.45-.02-.96.1-1.93.03-2.89.04-.1,0-.2-.02-.28-.09-.57-.03-1.14-.06-1.71-.09-.13,0-.29.04-.33-.16.06-.21.23-.15.37-.15,1.31.02,2.61.04,3.92.07Z"/>
          <path class="cls-106" d="M32.93,38.52c-.15,0-.3,0-.45,0-.26,0-.43-.14-.5-.37-.11-.38-.17-.78-.2-1.18,0-.14,0-.35.24-.24.96.45,2,.72,2.9,1.29.02.01.03.04.05.05-.19.18-.39.09-.59.04-.31-.08-.6-.24-.93-.28-.23-.03-.49-.1-.66.12-.17.23.09.38.13.57Z"/>
          <path class="cls-146" d="M19.79,46.36c.39.14.79.03,1.18.07.11.01.24-.02.25.15,0,.14-.08.2-.21.21-1.03.13-2.06.13-3.06-.17-.49-.14-.48-.15-.41.33-.23-.08-.3-.29-.36-.49-.05-.16-.08-.36.04-.5.15-.17.3,0,.44.05.69.22,1.4.31,2.13.35Z"/>
          <path class="cls-2" d="M11.68,35.76c-.31,1.34-.63,2.67-.86,4.03-.15.91-.31,1.82-.47,2.73-.12.24-.15.52-.42.78.02-.23.02-.39.05-.54.39-2.11.8-4.21,1.27-6.3.06-.27.13-.53.29-.76.05.02.09.04.14.06Z"/>
          <path class="cls-48" d="M31.65,45.97c.04.37-.17.58-.49.65-1.26.27-2.53.38-3.8,0-.03,0-.06-.04-.1-.08.08-.17.24-.1.36-.11.54-.03,1.09.06,1.63-.08.71-.07,1.42-.16,2.11-.38.09-.03.2-.15.29,0Z"/>
          <path class="cls-122" d="M15.66,40.87c.35.05.46-.14.54-.45.09-.35,0-.72.14-1.06-.06-.23-.22-.26-.43-.26-.48,0-.96,0-1.44,0-.16,0-.32.03-.45-.1.11-.12.26-.07.39-.07.72,0,1.45,0,2.17,0,.16,0,.31,0,.29.23-.1.8-.2,1.6-.29,2.4-.02.2-.08.34-.3.36-.21.02-.23-.16-.27-.3-.07-.27-.24-.49-.35-.74Z"/>
          <path class="cls-109" d="M23.17,12.78c-.67.18-1.36.31-1.99.62-.12.06-.24.13-.36.2-.96.38-1.78.97-2.54,1.65-.09,0-.17,0-.31,0,.5-.61,1.07-1.09,1.7-1.48.97-.6,2.03-1,3.15-1.19.09-.01.47-.27.34.2Z"/>
          <path class="cls-67" d="M32.12,20.12c-.15.24-.42.1-.62.18-1.2.07-2.39.24-3.59.17-.69-.01-1.38,0-2.07,0-.1,0-.19-.02-.26-.1-.01-.3.18-.29.4-.29,1.81,0,3.61,0,5.42-.01.13,0,.28.05.4-.05.13-.02.26-.05.33.12Z"/>
          <path class="cls-100" d="M15.38,41.23c.46.44.56,1.01.54,1.61-.02.53-.65.9-1.18.7.65-.6.67-1.33.06-2.02-.1-.11-.23-.2-.26-.36.3-.23.57-.02.84.06Z"/>
          <path class="cls-29" d="M27.98,13.52c-.7-.3-1.4-.6-2.16-.69-.09-.18-.12-.33.16-.28,1.9.4,3.6,1.17,4.92,2.65,0,0,0,.02,0,.04-.12.09-.23,0-.35,0-.73-.6-1.52-1.13-2.36-1.56-.08-.04-.16-.08-.2-.16Z"/>
          <path class="cls-73" d="M32.93,38.52c-.28-.08-.35-.28-.3-.54.05-.28.27-.27.49-.28.35-.02.66.11.98.21.28.1.56.22.87.16.28.16.18.28-.05.36-.32.12-.66.1-.99.1-.33,0-.67,0-1,0Z"/>
          <path class="cls-103" d="M13.94,38.31c.02-.14.09-.23.24-.25.53-.04,1-.28,1.5-.42.22-.06.41,0,.51.24.17.41.09.55-.36.57-.09,0-.18-.01-.24.06-.56,0-1.13.04-1.65-.21Z"/>
          <path class="cls-35" d="M26.17,39.28c-.28.04-.6-.04-.75.31-.1.05-.19,0-.29-.03-.38-.13-.76-.24-1.16-.09-.07.03-.15.02-.21-.04-.09-.24-.33-.16-.5-.23-.11,0-.19-.05-.24-.15.19-.47.39-.55.78-.26.44.33.87.37,1.36.11.53-.29.74-.2,1.01.38Z"/>
          <path class="cls-12" d="M23.02,39.05c.11,0,.19.06.24.15-.46.56-.8,1.19-1.15,1.81-.34.12-.66.04-.88-.24-.07-.22.02-.33.24-.36.32-.04.54-.23.72-.48.24-.33.52-.63.83-.89Z"/>
          <path class="cls-79" d="M36.68,27.33c.27,0,.86.37.9.58.03.16-.37.83-.54.9-.04.02-.11.04-.14.02-.31-.16-.56-.4-.79-.65,0,0,.03-.06.05-.09.33-.15.45-.44.53-.76Z"/>
          <path class="cls-65" d="M37.8,26.22l.44.15c.06-.03.09-.01.09.05-.07.04-.04.07,0,.11.09.14.34.19.27.41-.07.24-.2.46-.39.62-.15.13-.32.11-.49.01-.21-.13-.43-.25-.58-.46.18-.33.47-.58.66-.9Z"/>
          <path class="cls-131" d="M27.98,13.52c.88.33,1.63.89,2.38,1.45.09.07.15.16.18.28-.23,0-.37.27-.61.23,0-.36-.41-.4-.53-.67-.47-.36-.95-.72-1.42-1.08-.08-.06-.25-.13,0-.2Z"/>
          <path class="cls-15" d="M21.23,40.77c.27.16.57.22.88.24.29.4.57.8.85,1.21.04.06.14.14.02.21-.08.04-.18,0-.23-.07-.09-.13-.17-.27-.25-.41-.04-.07-.08-.19-.18-.14-.1.05-.03.15,0,.23.04.09.1.17.08.28-.32-.32-.61-.64-1.04-.83-.3-.13-.12-.46-.13-.71Z"/>
          <path class="cls-52" d="M18.89,16.75c-.14.55-.51.96-.89,1.36-.12-.12-.18-.27-.31-.38.15-.48.3-.95.45-1.43.33.02.57.18.75.45Z"/>
          <path class="cls-28" d="M26.49,42.46c-.02-.53-.1-1.08.44-1.45.24-.18.62-.13.77-.45.14.26.06.53.04.8,0,.05-.05.14-.09.15-.57.09-.78.63-1.16.95Z"/>
          <path class="cls-135" d="M12.66,28.4c-.4.37-.75.41-1.04.12-.34-.34-.32-.62.05-.92.11-.08.18-.21.32-.25.3.3.46.68.66,1.04Z"/>
          <path class="cls-24" d="M30.9,16.23c-.27.28-.6.43-.99.46-.2-.65-.08-.86.57-.99.17-.03.35-.04.52-.05.11,0,.23,0,.28.13.05.15-.06.2-.16.25-.09.04-.18.09-.21.2Z"/>
          <path class="cls-113" d="M27.61,39.76c.09-.14.2-.16.31-.17.47-.03.94-.09,1.41-.07.56.03,1.08-.14,1.63-.16.1,0,.26-.06.3.07.05.18-.16.15-.25.21-.07.05-.16.08-.24.08-1.01,0-2.01.14-3.02.08-.03,0-.07-.02-.13-.05Z"/>
          <path class="cls-51" d="M20.39,39.81c-.88-.02-1.76-.11-2.64-.21-.1-.01-.23-.02-.23-.14,0-.15.15-.09.24-.09.8.03,1.58.17,2.38.18.33,0,.67.02,1.01.04.08,0,.2-.03.2.1,0,.1-.11.12-.2.12-.25,0-.5,0-.75,0Z"/>
          <path class="cls-88" d="M14.01,38.98c.69,0,1.39,0,2.08,0,.14,0,.28,0,.35.16.06.11-.07.14-.11.21-.64,0-1.29,0-1.93,0-.19,0-.37-.03-.55-.08-.14-.2-.04-.27.15-.3Z"/>
          <path class="cls-82" d="M27.69,40.56c-.02.55-.48.36-.77.45-.3-.46-.53-.94-.72-1.45-.03-.07-.03-.14.03-.2.14.08.25.2.34.33.25.36.52.7,1,.74.04,0,.08.08.12.13Z"/>
          <path class="cls-142" d="M18.89,16.75c-.25-.15-.5-.3-.75-.45-.08-.15-.24-.21-.38-.29-.07-.04-.13-.08-.11-.17.02-.08.07-.14.16-.14.38-.03.75-.05,1.09.15.23.13.23.36.21.6-.09.09-.06.26-.22.3Z"/>
          <path class="cls-105" d="M17.44,17.43c-.41-.61-.83-1.21-1.21-1.84-.07-.11-.29-.35.03-.49.3.55.63,1.06,1.17,1.4.29.18.27.43,0,.93Z"/>
          <path class="cls-147" d="M13.78,40.64c-.2.04-.41.09-.57.23-.19.17-.37.04-.55,0-.06-.18.06-.31.14-.44.16-.27.33-.53.38-.84.43-.08.53.32.75.54-.15.15-.14.34-.15.53Z"/>
          <path class="cls-117" d="M16.49,23.36c-.1,0-.2.02-.29.08,0-.02-.01-.05,0-.07.1-.27-.01-.69.29-.81.39-.15.85-.07,1.25.02.29.07.19.35.11.56-.33.07-.66-.13-.99-.03-.16.03-.23.2-.37.25Z"/>
          <path class="cls-10" d="M16.79,23.06c.37-.16.72-.02,1.06.09-.04.61-.07,1.21-.23,1.8-.03-.26-.15-.48-.3-.69-.13-.13-.16-.32-.16-.48,0-.32-.14-.54-.38-.72Z"/>
          <path class="cls-149" d="M32.95,14.5c.14,0,.2.03.15.2-.23.73-.48,1.44-1.19,1.86-.24.14-.26.44-.4.65-.25-.15-.31-.35-.15-.6.87-.45,1.25-1.26,1.6-2.11Z"/>
          <path class="cls-89" d="M32.55,39.28c-.13-.09-.21-.23-.3-.36.07,0,.14,0,.21,0,.1.04.22.02.32.06.77.08,1.55.02,2.33.07.02,0,.04,0,.06,0,.08.03.19.03.2.14,0,.13-.12.1-.19.11-.67.13-1.36.07-2.03.03-.19,0-.39-.04-.59-.05Z"/>
          <path class="cls-63" d="M13.78,40.64c-.17-.24-.18-.43.15-.53.55.28,1.04.64,1.44,1.12-.29.08-.55-.17-.84-.06-.25-.18-.5-.35-.75-.53Z"/>
          <path class="cls-32" d="M9.96,26.07c.12-.24.31-.41.51-.58.39-.34.75-.22.91.28-.1.2-.3.27-.47.38-.2.11-.41.19-.64.15-.14-.02-.27-.07-.3-.23Z"/>
          <path class="cls-27" d="M17.97,43.94c-.01.33.13.48.47.54.66.1,1.32.25,1.98.39.02,0,.03.03.08.09-.45.06-.85-.02-1.26-.07-.37-.05-.73-.15-1.1-.21-.36-.06-.54-.22-.44-.6.02-.09-.03-.2.05-.29.02.13,0,.29.21.16Z"/>
          <path class="cls-4" d="M32.63,22.98c-.43.02-.85.06-1.28.07-.19,0-.22.1-.24.25-.18-.66-.12-.74.53-.75.16,0,.32-.01.48-.02.45-.02.48.01.51.46Z"/>
          <path class="cls-144" d="M20.69,40.48c-1.09.02-2.17-.02-3.22-.37.01-.24.19-.16.3-.13.84.18,1.69.25,2.55.3.14,0,.35-.06.36.2Z"/>
          <path class="cls-41" d="M18.52,35.9c.22,0,.22-.16.22-.31,0-.39,0-.79,0-1.29.24.42.51.7.61,1.08-.21-.02-.19.16-.22.28-.04.12-.04.25-.09.36-.05.13-.02.37-.15.39-.18.02-.25-.2-.31-.36-.02-.05-.04-.09-.05-.14Z"/>
          <path class="cls-128" d="M38.03,26.14c-.06-.04-.13-.08-.19-.11-.15-.08-.4-.09-.27-.37.12-.28.38-.41.63-.29.21.1.37.25.52.42-.03.4-.25.52-.68.36Z"/>
          <path class="cls-25" d="M13.18,39.57c.18.17,0,.32-.06.45-.14.29-.31.56-.47.83-.08.07-.17.14-.25.21-.28-.52.03-1.11.78-1.49Z"/>
          <path class="cls-64" d="M37.8,26.22c-.08.41-.37.65-.66.9-.36-.25-.34-.45,0-.91.24-.33.45-.2.66.02Z"/>
          <path class="cls-90" d="M27.61,47.84c.19.62.13,1.25.06,1.88-.02.17-.1.18-.21.07-.08-.58-.05-1.16-.07-1.75,0-.16,0-.28.22-.2Z"/>
          <path class="cls-71" d="M11.53,27.34c-.07.06-.15.13-.22.19-.23.22-.43.18-.6-.08-.1-.14-.2-.28-.3-.41-.1-.26.04-.4.27-.48.33.21.66.42.86.77Z"/>
          <path class="cls-150" d="M29.63,35.46c.1-.32.36-.52.6-.78,0,.32,0,.65,0,.97,0,.12-.06.29.14.33,0,.18-.06.33-.25.47-.09-.27-.19-.51-.27-.77-.04-.12-.06-.24-.23-.23Z"/>
          <path class="cls-124" d="M23.19,43.34c.52-.01,1.02-.14,1.54-.16.38-.01.72.1,1.08.16-.03.1-.11.14-.2.14-.78,0-1.56.06-2.33-.07-.03,0-.06-.05-.08-.07Z"/>
          <path class="cls-78" d="M11.53,27.34c-.28-.24-.61-.43-.82-.75-.02-.13.05-.17.16-.17.37.13.8.05,1.13.32.03.35-.32.39-.47.6Z"/>
          <path class="cls-13" d="M24.44,25.46c-.14.13-.3.06-.41-.02-.44-.28-.86-.58-1.2-.98-.12-.14-.21-.31-.17-.51.54.57,1.15,1.06,1.79,1.51Z"/>
          <path class="cls-114" d="M30.61,44.63c-.77.28-1.57.34-2.39.3.78-.22,1.58-.37,2.38-.46-.02.05-.08.11,0,.15Z"/>
          <path class="cls-47" d="M12.66,28.4c-.34-.27-.48-.67-.66-1.04.21-.17.38-.12.51.1.09.15.18.29.28.43.14.22.13.39-.13.51Z"/>
          <path class="cls-75" d="M30.15,40.18c.08.01.17.02.25.04-.68.28-1.4.31-2.11.34-.06-.31.2-.27.36-.28.5-.04,1.01-.07,1.51-.1Z"/>
          <path class="cls-6" d="M12,26.74c-.37-.12-.78-.07-1.14-.27.16-.25.34-.48.67-.51.23.22.44.44.47.78Z"/>
          <path class="cls-83" d="M16.4,27.71c-.31-.23-.66.02-.98-.08.69-.17,1.39-.29,2.11-.13-.02.23-.23.17-.35.19-.26.03-.52.02-.78.02Z"/>
          <path class="cls-11" d="M31.36,16.61c-.05.22,0,.42.15.6,0,.15.1.29.07.45-.07,0-.12.02-.16.08-.23-.45-.39-.93-.44-1.44.4-.24.23.24.38.3Z"/>
          <path class="cls-112" d="M31.82,26.58c.35.03.69.12,1.04.07.3-.04.48.08.53.38-.38-.05-.76-.09-1.14-.15-.19-.03-.36-.1-.43-.31Z"/>
          <path class="cls-138" d="M17.77,43.72c0-.1,0-.21-.1-.27-.12-.07-.13.08-.2.12-.04-.35.14-.65.22-.97.02-.09.09-.17.19-.13.09.03.13.13.11.21-.11.34,0,.72-.21,1.04Z"/>
          <path class="cls-91" d="M21.51,49.29c0,.17-.05.33-.2.47,0-.6,0-1.2,0-1.81,0-.11.12-.1.21-.11.02.34.03.68-.06,1.02-.03.13-.05.29.05.42Z"/>
          <path class="cls-120" d="M11.53,25.96c-.22.17-.44.34-.66.51-.05.04-.1.08-.16.12-.17.1-.31.23-.3.45-.1-.12-.2-.25-.3-.37.26-.23.57-.38.83-.61.12-.14.27-.23.45-.29,0,.1.1.13.15.19Z"/>
          <path class="cls-7" d="M10.93,26.06c-.2.31-.47.52-.83.61-.22-.16-.33-.35-.14-.61.32.28.65.13.97,0Z"/>
          <path class="cls-132" d="M11.83,32.73c.13.03.14.13.11.23-.1.34-.2.68-.33,1.01-.08.2-.09-.04-.14-.04-.03,0-.04-.02-.04-.03,0-.02.01-.03.02-.03.04-.41.14-.8.37-1.15Z"/>
          <path class="cls-145" d="M38.03,26.14c.29,0,.59.03.68-.36.17.09.29.23.3.43-.13.27-.38.24-.62.25-.02-.01-.05-.03-.07-.04-.03-.02-.06-.04-.09-.05-.11-.04-.18-.11-.21-.23Z"/>
          <path class="cls-17" d="M31.34,43.27c-.21-.17-.21.04-.27.15-.04-.22-.07-.44-.12-.66-.03-.14-.05-.27.11-.3.2-.04.22.12.22.26,0,.19.13.36.06.55Z"/>
          <path class="cls-45" d="M18.13,27.49c.02.1.04.19.07.29.02.26.02.51.24.74.18.19-.06.27-.22.33-.12-.45-.24-.89-.09-1.36Z"/>
          <path class="cls-8" d="M39.22,42.82c-.1-.07-.13-.02-.15.08-.11-.52-.34-1.02-.15-1.57.1.5.2.99.29,1.49Z"/>
          <path class="cls-14" d="M11.46,33.88s.02.03.01.06c0,.35,0,.7-.01,1.05,0,.1-.02.21.12.24.3.07.1.2.03.31-.24-.01-.36-.11-.27-.37.1-.29.02-.59.04-.89.01-.13-.05-.28.07-.39Z"/>
          <path class="cls-108" d="M36.68,27.33c.08.4-.21.82-.53.76.11-.3.24-.59.53-.76Z"/>
          <path class="cls-65" d="M38.4,26.47c.17-.16.44-.09.62-.25.15.22,0,.36-.16.45-.22.13-.34-.04-.46-.2Z"/>
          <path class="cls-18" d="M17.69,17.73c.29-.02.31.17.31.38-.03.1-.06.21-.19.19-.15-.02-.18-.16-.21-.28.02-.1-.02-.22.08-.29Z"/>
          <path class="cls-40" d="M17.7,47.54c-.02.22-.03.44-.23.59-.05-.18-.11-.36-.09-.55,0-.1.02-.22.12-.25.16-.04.16.12.2.21Z"/>
          <path class="cls-43" d="M35.12,39.04c-.74,0-1.47.01-2.21.02-.08,0-.15-.01-.21-.07.23-.07.46-.05.68,0,.58.04,1.16-.06,1.73.06Z"/>
          <path class="cls-72" d="M37.52,33.57c-.31-.07-.44-.46-.25-.73.11.24.21.47.25.73Z"/>
          <path class="cls-141" d="M25.28,15.11c0-.66,0-1.31,0-1.97.12.1.07.24.08.37,0,.42,0,.83-.01,1.25,0,.12.03.25-.06.35Z"/>
          <path class="cls-50" d="M31.5,47.91c-.19,0-.21-.18-.29-.29,0-.12-.02-.26.17-.25.18,0,.13.15.14.25,0,.1-.01.2-.02.29Z"/>
          <path class="cls-26" d="M33.38,38.98c-.23,0-.46,0-.68,0-.08-.01-.17,0-.23-.07.31.01.62-.08.92.06Z"/>
          <path class="cls-69" d="M21.09,28.17c.51-.87,1.1-1.67,2.12-2.01,1.96-.65,3.97.22,4.76,2.07.02.23.21.45.01.68-.87.66-1.84.77-2.83.37-.5-.2-.91-.17-1.39.04-.92.41-1.78.13-2.61-.33-.28-.26-.11-.55-.05-.83Z"/>
          <path class="cls-107" d="M21.14,29c.26.08.52.16.78.25.72.26,1.42.23,2.1-.13.33-.18.63-.17.99,0,.83.41,1.69.36,2.53-.02.15-.06.29-.13.44-.19-.37.6-.99.66-1.59.75-.48.07-.94.01-1.36-.27-.4-.27-.8-.19-1.2.04-.79.45-2.06.25-2.68-.43Z"/>
          <path class="cls-42" d="M19.64,24.55c-.08-.26-.16-.53.08-.76.77.34,1.54.69,2.32,1.02.32.14.4.32.27.64-.13.3-.26.59-.52.81-.66.56-1.6.31-1.87-.51-.09-.26-.12-.53-.09-.81.02-.18,0-.32-.19-.39Z"/>
          <path class="cls-152" d="M29.17,23.79c.44.18.15.5.15.76-.17.08-.23.21-.2.4.05.28,0,.55-.09.81-.27.84-1.31,1.09-1.93.46-.06-.06-.12-.13-.17-.2-.52-.88-.39-1.03.36-1.37.62-.28,1.24-.57,1.87-.85Z"/>
          <path class="cls-153" d="M18.88,20.38c1,0,2-.01,3-.01.06,0,.11.04.17.06-.2.16-.18.33-.1.56.14.42.34.69.85.59.13-.03.32.01.44.14-1.15,0-2.29.01-3.44-.03-.7-.03-1.39-.04-2.09-.05-.27,0-.34-.09-.28-.37.13-.58.26-.71.87-.77.19-.02.38-.08.58-.12Z"/>
          <path class="cls-95" d="M23.92,21.23c0,.73,0,1.46,0,2.19,0,.12-.05.23-.19.22-.14,0-.18-.12-.18-.24.02-.3.05-.59.08-.89.04-.43.04-.88.18-1.3.03,0,.07,0,.1,0Z"/>
          <path class="cls-92" d="M22.5,20.45c.2,0,.4-.01.59-.02.05.03.1.05.14.08-.17.08-.32.15-.43.32-.14.22-.39.17-.58.11-.18-.05-.12-.22,0-.32.08-.07.19-.12.28-.17Z"/>
          <path class="cls-38" d="M25.57,20.36c.07,0,.14,0,.22.01.7.05,1.41.04,2.11,0,1.2-.02,2.4-.05,3.6-.07-.35.05-.7.1-1.06.16.06.04.11.09.16.13-1.6,0-3.21,0-4.81,0-.14,0-.37.06-.21-.23Z"/>
          <path class="cls-130" d="M23.77,39.43c.58-.23,1.12-.13,1.65.15.3.3.55.64.77,1.01.08.14.15.29.13.46-.04.52-.91,1.53-1.43,1.65-1.17.26-2.3-.83-2.08-2.01.06-.33.3-.57.51-.82.14-.16.3-.3.45-.45Z"/>
          <path class="cls-3" d="M32.85,24.04c-.02.53-.2.74-.63.75-.26,0-.47-.08-.57-.33-.11-.27-.13-.54.09-.77.19-.2.44-.21.69-.15.26.06.22.38.41.5h0Z"/>
          <path class="cls-140" d="M18.14,40.87c0,.11-.05.21-.17.19-.13-.03-.2-.14-.2-.27,0-.11.05-.21.17-.19.13.03.2.13.2.27Z"/>
          <path class="cls-23" d="M19.94,41.11c-.01.13-.09.2-.22.2-.13,0-.22-.06-.21-.2.01-.14.12-.17.24-.17.12,0,.19.05.18.18Z"/>
          <path class="cls-85" d="M31.04,40.85c.01.21-.06.31-.25.31-.13,0-.27-.02-.23-.2.04-.15-.01-.38.24-.39.2,0,.21.16.24.28Z"/>
          <path class="cls-87" d="M28.87,40.98c0,.16-.07.25-.22.25-.15,0-.22-.1-.22-.24,0-.14.02-.27.19-.26.15,0,.24.12.26.26Z"/>
          <path class="cls-31" d="M16.79,23.06c.31.03.45.2.45.51,0,.23.05.46.08.69-.28.48-.56.63-.99.51-.18-.05-.29-.12-.24-.37.07-.38.32-.67.4-1.04.05-.15.12-.28.3-.3Z"/>
          <path class="cls-16" d="M31.34,17.94c-.03.12-.09.31-.18.28-.12-.04-.25-.19-.3-.32-.05-.13.1-.17.22-.17.14,0,.24.05.26.21Z"/>
          <path class="cls-5" d="M27.9,20.37c-.7.1-1.41.11-2.11,0,.7,0,1.41,0,2.11,0Z"/>
          <path class="cls-37" d="M21.66,28.17c.29-.6.74-1.05,1.31-1.4.37-.23.76-.37,1.2-.22.18.06.37.04.56,0,1.16-.26,1.96.47,2.59,1.52.07.21-.08.29-.24.36-.41.17-.82.19-1.24.07-.23-.06-.45-.16-.66-.26-.49-.25-.99-.27-1.47,0-.48.27-1,.29-1.52.23-.21-.02-.46-.02-.53-.31Z"/>
          <path class="cls-93" d="M21.66,28.17c.61.38,1.26.35,1.85.05.67-.33,1.26-.34,1.91.02.51.28,1.06.34,1.62.11.14-.06.25-.1.27-.26.27.36.24.49-.16.67-.69.29-1.37.3-2-.12-.44-.29-.83-.3-1.28-.02-.7.43-1.43.47-2.16.03-.22-.13-.28-.28-.06-.46Z"/>
          <path class="cls-86" d="M23.25,41.15c-.16-.25-.02-.35.21-.35.21,0,.42.03.64.06,0-.21-.16-.34-.21-.51-.06-.18-.09-.36.12-.45.24-.1.24.12.32.25.05.09.05.25.2.23.1-.01.12-.15.14-.24.03-.14.05-.29.24-.26.21.04.22.2.22.37,0,.21-.2.31-.25.51.28.09.61-.06.84.17,0,.19-.13.24-.27.24-.73.02-1.47.06-2.2-.03Z"/>
          <path class="cls-1" d="M23.25,41.15c.68-.15,1.36-.03,2.04-.07.16,0,.33.05.42-.15.16.22.08.34-.17.38-.09.01-.18.01-.26,0-.27-.02-.4.05-.24.33.03.05.06.12.06.17,0,.13.09.3-.08.37-.16.06-.25-.1-.32-.21-.12-.22-.21-.32-.35-.01-.06.13-.16.19-.3.15-.15-.05-.19-.19-.14-.3.2-.49-.05-.55-.44-.51-.11.01-.19-.05-.23-.16Z"/>
        </g>
        <text class="cls-155" transform="translate(3.87 .77) scale(1.38 1)"><tspan class="cls-154" x="0" y="0">Trial</tspan><tspan class="cls-160" x="0" y="28.31" xml:space="preserve">                                                                                                                                                                                     </tspan><tspan class="cls-162" x="0" y="33.74">of</tspan></text>
        <text class="cls-158" transform="translate(43.97 .86) scale(1.38 1)"><tspan x="0" y="0">MIDGARD</tspan></text>
      </g>
    </g>
  </g>
</svg>