<?xml version="1.0" encoding="UTF-8"?>
<svg id="Camada_2" data-name="Camada 2" xmlns="http://www.w3.org/2000/svg" viewBox="0 0 90.84 117.93">
  <defs>
    <style>
      .cls-1 {
        fill: #485069;
      }

      .cls-1, .cls-2, .cls-3, .cls-4, .cls-5, .cls-6, .cls-7, .cls-8, .cls-9, .cls-10, .cls-11, .cls-12, .cls-13, .cls-14, .cls-15, .cls-16, .cls-17, .cls-18, .cls-19, .cls-20, .cls-21, .cls-22, .cls-23, .cls-24, .cls-25, .cls-26, .cls-27, .cls-28, .cls-29, .cls-30, .cls-31, .cls-32, .cls-33, .cls-34, .cls-35, .cls-36, .cls-37, .cls-38, .cls-39, .cls-40, .cls-41, .cls-42, .cls-43, .cls-44, .cls-45, .cls-46, .cls-47, .cls-48, .cls-49, .cls-50, .cls-51, .cls-52, .cls-53, .cls-54, .cls-55, .cls-56, .cls-57, .cls-58, .cls-59, .cls-60, .cls-61, .cls-62, .cls-63, .cls-64, .cls-65, .cls-66, .cls-67, .cls-68, .cls-69, .cls-70, .cls-71, .cls-72, .cls-73, .cls-74, .cls-75, .cls-76, .cls-77, .cls-78, .cls-79, .cls-80, .cls-81, .cls-82, .cls-83, .cls-84, .cls-85, .cls-86, .cls-87, .cls-88, .cls-89, .cls-90, .cls-91, .cls-92, .cls-93, .cls-94, .cls-95, .cls-96, .cls-97, .cls-98, .cls-99, .cls-100, .cls-101, .cls-102, .cls-103, .cls-104, .cls-105, .cls-106, .cls-107, .cls-108, .cls-109, .cls-110, .cls-111, .cls-112, .cls-113, .cls-114, .cls-115, .cls-116, .cls-117, .cls-118, .cls-119, .cls-120, .cls-121, .cls-122, .cls-123, .cls-124, .cls-125, .cls-126, .cls-127, .cls-128, .cls-129, .cls-130, .cls-131, .cls-132, .cls-133, .cls-134, .cls-135, .cls-136, .cls-137, .cls-138, .cls-139, .cls-140, .cls-141, .cls-142, .cls-143, .cls-144, .cls-145, .cls-146, .cls-147, .cls-148, .cls-149, .cls-150, .cls-151, .cls-152, .cls-153, .cls-154, .cls-155, .cls-156, .cls-157, .cls-158 {
        stroke-width: 0px;
      }

      .cls-2 {
        fill: #3a425c;
      }

      .cls-3 {
        fill: #f86d5b;
      }

      .cls-4 {
        fill: #c1b9c7;
      }

      .cls-5 {
        fill: #7f374b;
      }

      .cls-6 {
        fill: #656e7d;
      }

      .cls-7 {
        fill: #c0b7c2;
      }

      .cls-8 {
        fill: #170820;
      }

      .cls-9 {
        fill: #94566d;
      }

      .cls-10 {
        fill: #48516b;
      }

      .cls-11 {
        fill: #b6acb8;
      }

      .cls-12 {
        fill: #c25d4d;
      }

      .cls-13 {
        fill: #9e8eac;
      }

      .cls-14 {
        fill: #fafcfc;
      }

      .cls-15 {
        fill: #545f83;
      }

      .cls-16 {
        fill: #fcfcfc;
      }

      .cls-17 {
        fill: #2a2745;
      }

      .cls-18 {
        fill: #663443;
      }

      .cls-19 {
        fill: #c38162;
      }

      .cls-20 {
        fill: #8d4248;
      }

      .cls-21 {
        fill: #875076;
      }

      .cls-22 {
        fill: #ecddeb;
      }

      .cls-23 {
        fill: #5fc6e0;
      }

      .cls-24 {
        fill: #efdcc4;
      }

      .cls-25 {
        fill: #ba9ea9;
      }

      .cls-26 {
        fill: #ae5469;
      }

      .cls-27 {
        fill: #97a7ba;
      }

      .cls-28 {
        fill: #6f71a2;
      }

      .cls-29 {
        fill: #c0e5ee;
      }

      .cls-30 {
        fill: #f2dbb1;
      }

      .cls-31 {
        fill: #58273b;
      }

      .cls-32 {
        fill: #f9cca0;
      }

      .cls-33 {
        fill: #3a3a4f;
      }

      .cls-34 {
        fill: #39405a;
      }

      .cls-35 {
        fill: #76c3eb;
      }

      .cls-36 {
        fill: #e6ebf2;
      }

      .cls-37 {
        fill: #5e2b3f;
      }

      .cls-38 {
        fill: #b5a0a6;
      }

      .cls-39 {
        fill: #dcf7fc;
      }

      .cls-40 {
        fill: #5585be;
      }

      .cls-41 {
        fill: #84475e;
      }

      .cls-42 {
        fill: #edeeeb;
      }

      .cls-43 {
        fill: #f0e2c9;
      }

      .cls-44 {
        fill: #160920;
      }

      .cls-45 {
        fill: #9d8ba3;
      }

      .cls-46 {
        fill: #30192b;
      }

      .cls-47 {
        fill: #602d4c;
      }

      .cls-48 {
        fill: #f1d4ad;
      }

      .cls-49 {
        fill: #89354c;
      }

      .cls-50 {
        fill: #b98286;
      }

      .cls-51 {
        fill: #3e3244;
      }

      .cls-52 {
        fill: #733b44;
      }

      .cls-53 {
        fill: #b24e67;
      }

      .cls-54 {
        fill: #3f6080;
      }

      .cls-55 {
        fill: #ebebf0;
      }

      .cls-56 {
        fill: #a199aa;
      }

      .cls-57 {
        fill: #c9a29a;
      }

      .cls-58 {
        fill: #540f16;
      }

      .cls-59 {
        fill: #5c868a;
      }

      .cls-60 {
        fill: #3e5d81;
      }

      .cls-61 {
        fill: #c58e7b;
      }

      .cls-62 {
        fill: #e89d6f;
      }

      .cls-63 {
        fill: #acbcde;
      }

      .cls-64 {
        fill: #f6f3ec;
      }

      .cls-65 {
        fill: #efe6e1;
      }

      .cls-66 {
        fill: #f1dab9;
      }

      .cls-67 {
        fill: #aa93a3;
      }

      .cls-68 {
        fill: #f4e7dc;
      }

      .cls-69 {
        fill: #988b95;
      }

      .cls-70 {
        fill: #e9655d;
      }

      .cls-71 {
        fill: #1c091b;
      }

      .cls-72 {
        fill: #892d53;
      }

      .cls-73 {
        fill: #200e14;
      }

      .cls-74 {
        fill: #2c141e;
      }

      .cls-75 {
        fill: #85708d;
      }

      .cls-76 {
        fill: #4c2b3d;
      }

      .cls-77 {
        fill: #b89189;
      }

      .cls-78 {
        fill: #9691a6;
      }

      .cls-79 {
        fill: #a892a0;
      }

      .cls-80 {
        fill: #f5ede7;
      }

      .cls-81 {
        fill: #816e89;
      }

      .cls-82 {
        fill: #e89565;
      }

      .cls-83 {
        fill: #865075;
      }

      .cls-84 {
        fill: #965c52;
      }

      .cls-85 {
        fill: #5c95c5;
      }

      .cls-86 {
        fill: #a7635d;
      }

      .cls-87 {
        fill: #dee0e8;
      }

      .cls-88 {
        fill: #935859;
      }

      .cls-89 {
        fill: #f5e6c1;
      }

      .cls-90 {
        fill: #6873a3;
      }

      .cls-91 {
        fill: #301221;
      }

      .cls-92 {
        fill: #ae5569;
      }

      .cls-93 {
        fill: #631b1d;
      }

      .cls-94 {
        fill: #a46873;
      }

      .cls-95 {
        fill: #9a88a4;
      }

      .cls-96 {
        fill: #9fabd0;
      }

      .cls-97 {
        fill: #8a4a5d;
      }

      .cls-98 {
        fill: #2b2747;
      }

      .cls-99 {
        fill: #61241b;
      }

      .cls-100 {
        fill: #2a2746;
      }

      .cls-101 {
        fill: #bf9fb4;
      }

      .cls-102 {
        fill: #6d3844;
      }

      .cls-103 {
        fill: #eef1f4;
      }

      .cls-104 {
        fill: #fafafa;
      }

      .cls-105 {
        fill: #4b6a99;
      }

      .cls-106 {
        fill: #b0a2c1;
      }

      .cls-107 {
        fill: #6d3744;
      }

      .cls-108 {
        fill: #e8e7f0;
      }

      .cls-109 {
        fill: #bf6348;
      }

      .cls-110 {
        fill: #282845;
      }

      .cls-111 {
        fill: #f1f1f1;
      }

      .cls-112 {
        fill: #5d4b5e;
      }

      .cls-113 {
        fill: #c4f5f8;
      }

      .cls-114 {
        fill: #872b53;
      }

      .cls-115 {
        fill: #2f2f4d;
      }

      .cls-116 {
        fill: #f3d4a1;
      }

      .cls-117 {
        fill: #bcbfd1;
      }

      .cls-118 {
        fill: #f0e1c0;
      }

      .cls-119 {
        fill: #f9f9fb;
      }

      .cls-120 {
        fill: #a5b7db;
      }

      .cls-121 {
        fill: #5a2a41;
      }

      .cls-122 {
        fill: #160621;
      }

      .cls-123 {
        fill: #656d7c;
      }

      .cls-124 {
        fill: #9bf1f9;
      }

      .cls-125 {
        fill: #f9fafc;
      }

      .cls-126 {
        fill: #312d4c;
      }

      .cls-127 {
        fill: #eae5f1;
      }

      .cls-128 {
        fill: #405f81;
      }

      .cls-129 {
        fill: #180821;
      }

      .cls-130 {
        fill: #50263d;
      }

      .cls-131 {
        fill: #4965a3;
      }

      .cls-132 {
        fill: #ae6b69;
      }

      .cls-133 {
        fill: #e8f0f3;
      }

      .cls-134 {
        fill: #f1dbb9;
      }

      .cls-135 {
        fill: #efecf0;
      }

      .cls-136 {
        fill: #6f709c;
      }

      .cls-137 {
        fill: #98cbe7;
      }

      .cls-138 {
        fill: #f3eee8;
      }

      .cls-139 {
        fill: #6c3645;
      }

      .cls-140 {
        fill: #f2eeea;
      }

      .cls-141 {
        fill: #cb7150;
      }

      .cls-142 {
        fill: #a76b4b;
      }

      .cls-143 {
        fill: #a28da5;
      }

      .cls-144 {
        fill: #7f3052;
      }

      .cls-145 {
        fill: #90585d;
      }

      .cls-146 {
        fill: #e96560;
      }

      .cls-147 {
        fill: #89899d;
      }

      .cls-148 {
        fill: #b6a5b2;
      }

      .cls-149 {
        fill: #bbaaad;
      }

      .cls-150 {
        fill: #ebeef4;
      }

      .cls-151 {
        fill: #7876aa;
      }

      .cls-152 {
        fill: #a793b5;
      }

      .cls-153 {
        fill: #b59ba9;
      }

      .cls-154 {
        fill: #b55c52;
      }

      .cls-155 {
        fill: #eff5f6;
      }

      .cls-156 {
        fill: #b96959;
      }

      .cls-157 {
        fill: #f1e6cc;
      }

      .cls-158 {
        fill: #e3e0e5;
      }
    </style>
  </defs>
  <g id="Camada_1-2" data-name="Camada 1">
    <g>
      <path class="cls-8" d="M18.92,18.16c.45-1.22.7-2.51,1.59-3.86,1.65-2.48,3.12-5.07,5-7.4,1.87-2.31,4.01-4.35,6.16-6.39.58-.55,1.37-.67,2.09-.31.79.38,1.28,1,1.32,1.96.04,1.1-.22,2.14-.47,3.18-.47,1.96-1.14,3.86-1.48,5.87-.35,2.05-1.17,4.01-1.72,6.03-.66,2.41-1.59,4.75-2.01,7.22-.38,2.22.05,4.34,1.39,6.22.54.76.83.79,1.47.11,1.57-1.65,3.14-3.26,5.12-4.46,2.43-1.48,5.08-2.28,7.82-2.89.32-.07.72-.08.92-.28,1.3-1.32,2.93-.7,4.43-.81.16-.01.39.06.49.18.98,1.1,2.37,1.16,3.65,1.47,3.98,1,7.41,2.92,10.16,6,.2.22.41.44.62.65.96.97,1.23.94,1.96-.18.79-1.21,1.11-2.54,1.16-3.98.11-3.16-.72-6.18-1.8-9.06-1.29-3.45-2.06-7.01-2.95-10.56-.3-1.18-.6-2.36-.93-3.54-.18-.63-.14-1.24.07-1.85.43-1.25,1.5-1.74,2.7-1.2.76.34,1.45.82,2.06,1.4,3.39,3.28,6.28,6.96,8.73,10.99,2.06,3.38,3.62,6.98,4.51,10.84.43,1.86.62,3.75.49,5.69-.13,1.93.01,3.88-.63,5.76-.36,1.07-.72,2.14-1.23,3.14-.15.42-.51.71-.7,1.1h0c-.21.38-.51.7-.73,1.07-1.77,2.25-3.97,3.93-6.71,4.8-.9.28-1.27.79-1.18,1.7.03.29.06.62-.16.86-.72.77-.51,1.58-.27,2.49.57,2.15,1.01,4.33,1.51,6.49.07.32.23.61.34.92.35,1.79,1.71,3.1,3.52,3.45.38.07.61-.04.86-.31.6-.67,1.03-1.43,1.41-2.24.44-1.52,1.53-2.59,2.6-3.65,1-.99,2.51-.76,3.93.42.86.71,1.31,1.52.96,2.64-.16.72-.62,1.24-1.14,1.73-.49.47-.95.96-1.29,1.55-.38.88-1.24,1.29-1.86,1.95-.45.49-.74.99-.38,1.65.1.91.76,1.55,1.14,2.33.89,1.85.77,3.71-.08,5.53-.33.71-.47,1.39-.21,2.15.66,1.9.45,3.9.57,5.86.02.34.24,1.25.64,3.04,1.18,5.38,1.78,8.09,2.29,9.21.26.57.64,1.35.9,2.54.29,1.34.26,2.49.18,3.26.2.4.13.87.34,1.27.67,3.31,1.52,5.25,2.22,6.43.22.38.54.87.87,1.67.72,1.75.35,2.2,1.08,3.56.29.54.55.83.46,1.24-.08.38-.47.7-1.2,1.11h0c-.59.08-1.19.11-1.78,0-3.29-.89-6.53-1.95-9.64-3.36-.71-.32-1.41-.23-2.11-.13-2.55.37-5.1.56-7.68.51-.12,0-.24,0-.36,0-.68.06-.74.2-.34.75.67.91,1.2,1.86,1.11,3.05-.31,1.1-.63,1.38-1.7,1.42-.59.02-1.18.04-1.76-.07-.67-.2-1.37-.11-2.05-.11-1.97-.01-3.94,0-5.92,0-1.71-.01-2.36-.59-2.63-2.29-.1-.59-.06-1.19-.09-1.79-.02-.58-.33-.9-.89-.9-2.54-.02-5.08-.1-7.61.05-.48.03-.95.08-1.43.11-.83.05-1.09.32-1.17,1.17-.04.45,0,.9-.04,1.34-.11,1.39-.99,2.24-2.38,2.3-.39.02-.78.02-1.15.14-2.91.14-5.82.1-8.73.02-.8-.02-1.63-.17-1.95-1.12-.15-1.23.52-2.16,1.1-3.13.12-.19.4-.36.26-.61-.13-.23-.43-.13-.66-.15-2.37-.17-4.77-.13-7.11-.63-1.28-.27-2.51.05-3.65.59-2.8,1.3-5.79,2.01-8.75,2.85-.98-.06-1.96-.22-2.93.01-1.77.59-3.55,1.19-5.32,1.78-.14.05-.29.08-.43.13-.56.2-1.04.12-1.45-.36-.43-.51-.25-1.02.03-1.48.71-1.17,1.42-2.34,2.2-3.46.87-1.24,1.22-2.73,2.09-4,.68-.99,1.42-1.8,2.36-2.48.41-.29.79-.62,1.19-.94.31-.65.59-1.33,1.44-1.44h0c.71-.33,1.15-1.01,1.81-1.42h0c.49-.23.84-.6,1.08-1.07.12-.24.24-.48.36-.72.71-2.08,1.16-4.2,1-6.41-.02-.26-.06-.54.06-.79.79-1.81,1.26-3.75,1.34-5.67.04-1.06.66-1.93.53-2.96-.13-1.03.42-2.05-.02-3.09-.15-.35-.07-.78.16-1.12.94-1.36.71-3.03,1.2-4.52.2-.6-.31-1.26-.56-1.86-.92-2.25-.39-4.26.83-6.2.1-.15.2-.3.29-.45.82-1.28.78-1.48-.32-2.59-1.39-1.4-2.56-3-4.02-4.34-.36-.33-.52-.78-.47-1.3.21-1.95,3.12-3.67,4.9-2.89.34.15.63.36.76.71.75,2,2.18,3.61,3.18,5.46.33.62.95.79,1.61.38.33-.21.65-.52,1-.57,1.49-.21,1.85-1.33,2.14-2.52.59-2.46,1.18-4.91,1.73-7.38.21-.96.4-1.94-.44-2.77-.34-.34-.19-.86-.14-1.3.06-.68-.21-1.09-.87-1.24-3.07-.7-5.22-2.76-7.04-5.11-1.7-2.19-2.54-4.79-2.94-7.57-.22-1.55-.29-3.09-.28-4.64,0-.81.42-1.57.32-2.39.41-1.8,1.07-4.3,2.14-7.22Z"/>
      <path class="cls-59" d="M29.34,114.84c.32,1.12,1.27,1.04,2.11,1.05,2.82.03,5.64.01,8.46.01,2.26-.24,4.52-.15,6.77.02.6.04,1.19.11,1.79.06,2.68-.25,5.36-.09,8.05-.1,2.59,0,5.19,0,7.79-.04.32,0,.66-.07.97.07.54,0,1.08-.04,1.61,0,.93.07,1.49-.29,1.63-1.24.29-.28.65-.29,1.01-.24,1.88.26,3.77,0,5.64.16,3.64.29,7.21-.38,10.81-.57.59-.03,1.12-.47,1.74-.27.59.07,1.21-.07,1.77.21-.42.4-.9.63-1.48.74-3.12.6-6.28.99-9.42,1.46-2.74.41-5.51.44-8.23.98-.06.01-.12.02-.18.01-2.66-.18-5.29.36-7.95.39-6.84.09-13.68.64-20.52.26-3.55-.2-7.1-.09-10.64-.33-2.54-.17-5.06-.7-7.6-.93-1.28-.12-2.54-.31-3.8-.46-1.88-.23-3.76-.54-5.63-.88-1.49-.27-2.98-.53-4.38-1.15-.69-.31-1.48-.06-2.22-.1.98-.44,2.01-.06,3.01-.21.56-.13,1.14-.14,1.69-.03,5.11,1.01,10.29.85,15.46.85.59,0,1.21-.14,1.73.27Z"/>
      <path class="cls-8" d="M77.49,58.44c-.07,1.06-.81,1.76-1.4,2.52-.32.42-.89.24-1.34.04-.54-.24-1.06-.54-1.59-.78-1.16-.53-1.54-1.48-1.45-2.68.32,1.83,1.76,2.53,3.23,3.23.73.34,1.04-.13,1.38-.57.43-.55.64-1.26,1.17-1.75Z"/>
      <path class="cls-8" d="M13.88,91.29c.43,2.38-.21,4.65-.76,6.92-.04.15-.12.27-.3.28.1-1.05.51-2.04.67-3.09.19-1.24.31-2.46.26-3.7,0-.13.08-.27.13-.41Z"/>
      <path class="cls-8" d="M80.32,64.75c-.62-.54-.36-1.06.07-1.52.68-.73,1.39-1.42,2.09-2.13.1.07.11.16.03.25-.02.71-.61,1-1.06,1.35-.69.53-1.23,1.1-1.14,2.05Z"/>
      <path class="cls-8" d="M82.52,61.35c-.01-.08-.02-.17-.03-.25.09-.5.46-.82.78-1.15.64-.65,1.3-1.26,1.72-2.08.18.73-.34,1.15-.73,1.61-.55.65-1.16,1.26-1.74,1.88Z"/>
      <path class="cls-8" d="M11.38,100.29c-.5.6-.87,1.38-1.81,1.42.52-.58.99-1.22,1.81-1.42Z"/>
      <path class="cls-59" d="M89.5,113.95c.03-.05.04-.12.08-.15q1.25-.85.66-2.2c.69.26.62.88.54,1.4-.1.68-.67.88-1.29.95Z"/>
      <path class="cls-8" d="M9.57,101.71c-.68.28-.91,1.01-1.44,1.44.17-.79.32-1.59,1.44-1.44Z"/>
      <path class="cls-8" d="M12.46,99.22c-.04.68-.36,1.08-1.08,1.07.31-.41.64-.79,1.08-1.07Z"/>
      <path class="cls-8" d="M78.9,39.2c.04-.49.29-.85.7-1.1.08.56-.26.87-.7,1.1Z"/>
      <path class="cls-8" d="M78.18,40.28c.05-.49.29-.85.73-1.07.03.54-.28.86-.73,1.07Z"/>
      <path class="cls-8" d="M17.12,23.93c.09.53-.16.98-.34,1.45-.09-.53-.07-1.04.34-1.45Z"/>
      <path class="cls-69" d="M86.08,99.94c-.29-.38-.43-.79-.34-1.27.39.35.41.8.34,1.27Z"/>
      <path class="cls-16" d="M64.17,60.39c.19.85.43,1.69-.28,2.44-.29.31-.07.6.14.87.92,1.25,1.47,2.66,1.62,4.21.06,1.04.12,2.09-.25,3.1-.33.9-.52,1.01-1.42.67-.48-.18-.42.23-.5.41-.57,1.35-1.07,2.73-1.88,3.97-.79,1.21-1.64,2.35-2.8,3.24-.72.55-1.1.45-1.31-.44-.26-1.1-.56-2.2-.91-3.38-.52.34-.76.83-1.04,1.26-1.15,1.77-2.65,3.15-4.48,4.19-.92.53-1.81.62-2.83.26-2.5-.88-4.14-2.77-5.72-4.73-.25-.31-.37-.91-.84-.82-.45.09-.39.68-.5,1.07-.19.66-.31,1.34-.52,2-.32,1.01-.85,1.14-1.63.43-1.99-1.82-3.24-4.13-4.24-6.59-.12-.3-.17-.64-.4-.95-.37.05-.6.64-1.08.37-.46-.25-.61-.72-.8-1.16-.4-.95-.29-1.93-.17-2.91.17-1.62.93-3.02,1.67-4.43.27-.29.36-.6.12-.95-.38-.55-.35-1.15-.27-1.77.37-.54.81-.31,1.16-.04.65.49,1.34.55,2.12.42.95-.15,1.91-.16,2.85.07.35.08.7.18.91.51.25.65-.27,1.4.29,2,1.52,1.52,4.29,1.97,6.13.93,1.13-.64,2.17-.58,3.3.03,1.88,1.02,3.76.55,5.59-.24.38-.16.65-.52.87-.88.32-.51.04-1.06.13-1.59.72-.82,1.66-1.28,2.68-.96,1.25.38,2.33.22,3.42-.39.25-.14.51-.32.84-.21Z"/>
      <path class="cls-134" d="M29.54,19.28c-.48,2.15-1.15,4.26-1.14,6.5,0,1.67.37,3.24.92,4.8-.21.61.09,1.11.38,1.58.44.7.89,1.4,1.45,2.03.5.56.8,1.24,1,1.97-.38,1.17-.75,2.34-1.39,3.4-.23.25-.54.26-.83.23-4.73-.58-8.67-2.46-10.91-6.94-.3-.59-1.02-.93-.97-1.71-.61-5.68,1-10.86,3.56-15.82.5-.22.73-.69.98-1.12,2.18-3.81,4.96-7.14,8.13-10.16.52-.5,1.06-1.09,1.92-.71.13.46-.16.8-.33,1.17-2.3,4.76-3.98,9.73-5.26,14.84-.03.11-.09.22.02.38.39-.4.74-.87,1.3-1.03.57-.17,1.09-.19,1.16.61Z"/>
      <path class="cls-66" d="M76.24,14.73c1.93,3.87,3.48,7.86,3.77,12.24.41,2.75-.14,5.32-1.81,7.52-1.56,2.06-3.62,3.54-6.07,4.44-.9.33-1.81.6-2.75.79-.75.14-1.49.15-2.14-.33-.63-.8-.79-1.82-1.27-2.69-.25-.29-.31-.64-.3-1,.19-.92.69-1.61,1.45-2.17,1.36-.99,1.86-2.51,2.27-4.05.03-.13-.05-.23-.12-.32.78-3,.33-5.93-.53-8.83-.1-.34-.18-.69-.27-1.04.09-.83.47-1.05,1.14-.65.64.39,1.06,1.02,1.62,1.71-.19-1.57-.58-2.94-.98-4.31-1.14-3.81-2.54-7.52-4.23-11.12-.15-.32-.31-.65-.3-1.02.27-.63.68-.69,1.19-.26,1.41,1.21,2.83,2.41,3.93,3.91,1.39,1.9,3.05,3.6,4.11,5.75.29.58.78,1.04,1.31,1.44Z"/>
      <path class="cls-2" d="M67.03,74.05c.32-2.47.3-4.93-.34-7.35-.09-.78.17-1.17,1.06-1.44,1.32-.39,2.66-.29,4-.12.73.09,1.42.42,2.25.46-.15-.53-.57-.65-.91-.84-1.53-.87-3.26-1.14-4.94-1.56-.29-.07-.58-.13-.87-.19-.93-.2-1.57-.67-1.65-1.7-.33-1.19-.29-1.27.97-1.24.69.01,1.41-.21,2.06.19-.54.37-1.14.14-1.69.17,3.53.54,6.88,1.63,9.77,3.85,1.16.89,2.17,1.96,3.09,3.1.19.24.27.63.71.58.69,1.42.29,2.78-.2,4.14-.2.54-.64.24-.98.27-.09.3.22.43.23.67-.17.71.13,1.26.59,1.75.29.39.09.84.17,1.26.14.56.04,1.13-.07,1.67-.13.63-.64,1.03-1.29,1.07-2.32.14-4.63.25-6.92-.36-1.38-.37-2.62-.99-3.69-1.93-.73-.64-1.31-1.39-1.35-2.42Z"/>
      <path class="cls-34" d="M18.05,79.85c.05-.13.11-.27.16-.4-.72-1.14-.39-2.41-.45-3.63.06-.18.33-.1.37-.4.13-.9.67-1.72.6-2.68-1.43-.83-1.31-2.27-1.42-3.62-.01-.18.01-.35.19-.46.93-1.35,1.78-2.76,3.02-3.87,2.22-1.97,4.83-3.16,7.68-3.89.52-.13,1.04-.29,1.57-.36.87-.02,1.75,0,2.59-.3.51.47-.16.95.01,1.42-.17,1.13-1.03,1.36-1.95,1.46-2.02.22-3.89.88-5.67,1.82-.39.21-.78.42-1.06.81,1.19-.41,2.42-.64,3.65-.83.74-.12,1.49-.15,2.23-.01,1.09.21,1.85,1.09,1.75,1.96-.61,2.31-.66,4.65-.36,7,.12,1.07-.48,1.82-1.2,2.44-1.88,1.6-4.1,2.38-6.56,2.48-.8.03-1.61.03-2.41,0-.98-.04-1.75.27-2.25,1.14-.19.17-.35.12-.48-.08Z"/>
      <path class="cls-32" d="M64.17,60.39c-.96.52-1.86,1.19-3.04,1.1-.21-.02-.45.02-.61-.07-1.24-.72-2.2,0-3.19.58-.32.02-.37-.26-.48-.45-.47-.84-1.05-1.6-1.68-2.32-1.62-1.87-3.73-2.48-6.12-2.29-.27.02-.53.12-.8.1-2.92-.18-4.81,1.41-6.37,3.63-.3.42-.41,1.02-1.01,1.19-1.19-.77-2.49-.65-3.78-.44-.81.13-1.51.11-2.16-.47-.26-.23-.63-.68-.98-.03-.39-.15-.19-.44-.16-.68-.02-2.46,0-4.92.23-7.37.36-.59.94-.43,1.45-.37.65.07,1.27.31,1.89.51.54.23.77.62.67,1.21-.09.55.07,1.07.21,1.59.29,1.04.94,1.78,2,1.95,1.04.16,1.93-.26,2.6-1.1.06-.07.11-.14.16-.22,1.06-1.62.93-2.03-.83-2.78-1.62-.69-3.23-1.41-4.84-2.15-.41-.19-.82-.38-1.16-.68-.16-.14-.32-.29-.26-.53.06-.24.28-.29.48-.34.23-.05.48-.05.72-.05,1.74,0,3.47,0,5.21,0,.33,0,.66.04.98.08.87.1,1.24.62,1.25,1.45.02.11.04.21.05.32.9,1.83,2.34,3.02,4.27,3.62.12,0,.24,0,.36,0,.66-.17,1.15-.62,1.64-1.04.54-.46,1.05-.97,1.62-1.41.62-.48,1.01-1.1.96-1.91-.03-.56.25-.82.76-.92.41-.09.82-.16,1.24-.17,1.79,0,3.58,0,5.37,0,.15,0,.3,0,.45.02.23.04.5.05.58.33.09.29-.14.44-.34.56-.38.24-.76.47-1.15.69-1.56.74-3.16,1.4-4.72,2.16-.32.16-.64.33-.9.58-.22.21-.38.45-.37.78.04,1.03,1.25,2.45,2.26,2.63,1.95.35,3.26-.88,3.19-3.02-.02-.7,0-1.32.76-1.64.75-.28,1.54-.43,2.33-.53.46-.06.9-.02,1.03.56.06,2.45.13,4.91.19,7.36Z"/>
      <path class="cls-63" d="M32.35,67.9c.09,1.15.02,2.33.63,3.4.44.76.58.8,1.04.08.1-.15.18-.36.38-.29.21.07.26.31.32.51.56,1.81,1.39,3.49,2.47,5.05.61.89,1.32,1.7,2.11,2.43.58.54.89.47,1.12-.31.28-.97.5-1.96.76-2.94.07-.28.09-.64.48-.67.31-.02.45.26.59.49.74,1.21,1.74,2.2,2.71,3.21.98,1.02,2.18,1.64,3.47,2.16.86.35,1.63.21,2.4-.22,1.86-1.04,3.4-2.41,4.54-4.23.22-.35.48-.69.74-1.01.16-.19.2-.6.53-.51.29.08.21.47.28.7.3,1.06.53,2.14.8,3.21.13.53.32.71.85.28,2.41-1.97,3.74-4.6,4.77-7.44.16-.44.2-1.3.86-.21.33.54.7.06.87-.35.45-1.06.42-2.22.57-3.33.58,2.18.35,4.35-.15,6.51-.5,2.15-1.26,4.2-2.39,6.11-.6.2-.53-.29-.57-.59-.07-.61,0-1.23-.04-2.02-.44.52-.72,1.03-1.18,1.37-1.28,1.82-2.81,3.41-4.49,4.85-.67.41-1.12.02-1.55-.44-.85-.91-.94-.93-2-.22-.92.61-1.83,1.23-2.85,1.67-.61.26-1.18.28-1.81.02-1.27-.53-2.53-1.04-3.69-1.8-.9-.59-1.18-.54-1.9.27-.39.44-.73,1-1.47.67-1.99-1.39-3.53-3.2-4.85-5.22-.55-.48-.76-1.19-1.22-1.73.01.77.06,1.55-.02,2.32-.04.39-.1.88-.73.67-1.4-2.47-2.24-5.13-2.6-7.93-.19-1.5-.26-3.03.21-4.51Z"/>
      <path class="cls-110" d="M67.03,74.05c1.43,3.25,4.26,4.16,7.46,4.51,1.4.15,2.78-.01,4.18,0,.95,0,1.42-.45,1.5-1.37.03-.38.12-.76.18-1.14.31,1.27.4,2.56.12,3.85-.04.2-.12.38-.06.61.75,2.69.89,5.5,1.7,8.19.35,1.18.81,2.3,1.25,3.44.16.41.25.79.19,1.22-.13,1.29.3,2.49.54,3.72.56,2.87.81,5.79,1.65,8.61.47,1.58,1.03,3.12,1.74,4.6.12.25.38.49.17.82-.75.04-1.2-.38-1.6-.96-1.97-2.89-2.95-6.18-3.72-9.52-1-4.32-1.93-8.67-3.66-12.77-.81-1.92-2.42-3.08-4.28-3.86-2.78-1.16-5.57-2.29-8.27-3.62-.6-.3-.86-.71-.63-1.28.66-1.63.92-3.38,1.55-5.02Z"/>
      <path class="cls-3" d="M33.43,99.58c.08-.18.16-.35.24-.53.23-.24.53-.27.83-.26,1.51.09,2.98-.24,4.43-.57,1.94-.44,3.59-.03,5.04,1.34,1.25,1.18,2.74,1.95,4.47,2.07,2.16.15,4.06-.66,5.48-2.19,1.25-1.35,2.49-1.78,4.28-1.28,1.42.4,2.94.49,4.43.65.52.06,1.09.03,1.52.43-.03.58.36,1.3-.5,1.62-1.53.67-3.21.59-4.66.98,1.49,0,3.06-.54,4.68-.62,1.32-.11,1.4-.25,1.13-1.5-.1-.45-.03-.93-.04-1.39.13-.19-.04-.52.26-.61.21-.07.33.07.38.27.19.82.38,1.63.55,2.45.27,1.25.09,1.53-1.14,1.84-2.97.74-6.01.95-9.06,1.07-3.79.16-7.59.24-11.38.11-3.82-.13-7.64-.27-11.38-1.2-1.24-.31-1.32-.39-1.12-1.63.1-.65.23-1.29.35-1.94.13-.16.1-.53.44-.42.39.13.43.43.27.78-.02.06-.02.11-.02.17-.1,1.41.11,1.68,1.42,1.96,1.42.3,2.84.54,4.15.69-1.29-.3-2.75-.46-4.16-.8-.93-.23-1.12-.57-.9-1.47Z"/>
      <path class="cls-17" d="M18.38,80c.37-1.11.83-1.45,2.05-1.45,2.12,0,4.25.13,6.27-.71,1.9-.8,3.69-1.73,4.26-3.96.6,1.77.9,3.63,1.57,5.38.11.27.02.57-.27.69-.72.28-1.3.81-2.02,1.12-2.62,1.14-5.33,2.09-7.84,3.48-1.09.6-1.91,1.49-2.49,2.61-1.22,2.37-2.32,4.78-2.88,7.41-.12.56-.24,1.08-.54,1.62-.39.7-.57.62-1,.15-.07-.08-.2-.11-.3-.17-.22-.27-.13-.57-.08-.86.79-4.72,1.52-9.45,2.74-14.09.11-.43.14-.9.52-1.21Z"/>
      <path class="cls-125" d="M2.25,114.34c-.18.19-.46.28-.64.15-.27-.2,0-.45.11-.62,1-1.73,2.16-3.39,2.98-5.2.87-1.93,2.19-3.31,3.85-4.57,4.16-3.18,7.83-6.93,11.8-10.34,1.68-1.44,2.7-1.44,4.32.1.02.61-.43.97-.8,1.33-2.07,2.03-4.26,3.93-6.36,5.91-2.13,2.01-4.43,3.84-6.41,6-1.03,1.13-2.27,1.93-3.68,2.49-.51.2-.95.49-1.32.89-1.04,1.11-2.23,2.08-3.16,3.3-.19.24-.49.33-.68.56Z"/>
      <path class="cls-120" d="M2.25,114.34c1.19-1.75,2.75-3.16,4.31-4.54.86-.76,2.19-.92,3.1-1.73.29-.26.61-.48.88-.75,3.84-3.85,7.97-7.4,11.96-11.08.79-.73,1.55-1.49,2.15-2.39,1.79,1.56,1.84,2.56.14,4.23-4.2,4.09-8.41,8.16-12.62,12.23-.69.67-1.47,1.18-2.38,1.55-2.46,1-4.97,1.84-7.55,2.49Z"/>
      <path class="cls-1" d="M37.27,32.91c-.44-.9-1.26-1.27-2.12-1.62-.32-.13-.71-.08-.96-.37-.06-.24.07-.41.23-.54,1.64-1.32,3.33-2.57,5.28-3.41.22-.1.45-.16.69-.06.44.5-.07.69-.34.88-.71.5-1.4,1.01-2.04,1.59-.3.27-.72.54-.53,1.04.2.51.66.75,1.2.81,1.29.12,2.55-.08,3.82-.26,1-.14,1.98-.36,2.99-.38,0,1.08.1,2.17-.18,3.23-.21,2.16-.42,4.33-.78,6.48-.2,1.25-.41,1.43-1.69,1.43-1.55,0-3.1,0-4.66,0-.98,0-1.4-.41-1.31-1.36.17-1.87.29-3.75.56-5.61.09-.64.1-1.24-.16-1.83Z"/>
      <path class="cls-10" d="M52.7,32.55c-.03-.96-.3-1.9-.17-2.87.32,0,.34.29.43.49.14.29.35.51.66.54,1.85.17,3.67.73,5.56.39.74-.13,1.28-.42,1.49-1.18.82.1,1.47.84,1.34,1.55-.29.25-.58.5-.88.74-.45.6-.42,1.29-.34,1.97.26,1.96.26,3.93.39,5.89.08,1.22-.11,1.36-1.32,1.48-1.67.17-3.33.06-5-.02-.68-.03-.76-.54-.86-1.06-.53-2.63-1.14-5.24-1.32-7.92Z"/>
      <path class="cls-124" d="M46.2,51.27c-.06-.13-.12-.26-.19-.38-.14-.97-.03-1.95-.06-2.93-.01-.44.03-.89-.18-1.3-.37-.37-.86-.4-1.33-.37-.79.05-1.32-.2-1.47-1.04-.05-.26-.24-.48-.31-.74-.14-.53-.11-1.01.45-1.3.33-.12.67-.14,1-.01.39.37-.08.47-.22.67-.07.09-.18.18-.14.3.06.17.23.17.37.17.32,0,.58-.12.78-.37.32-.39.74-.58,1.22-.67q1.54-.16,1.69-1.69c.05-.5.13-1,.11-1.51,0-3.47,0-6.95,0-10.42,0-.51-.01-1.02.19-1.5.3-.71.93-.85,1.51-.34.35.31.52.72.62,1.17.25,1.18.31,2.39.12,3.57-.25,1.63.14,3.22.21,4.83.02.38.39,0,.41.26.23.41.18.87.19,1.31.02,3.75-.02,7.5-.04,11.25-.16.76-1.7,2.29-2.43,2.41-.45.08-.83-.1-1.11-.44-.38-.45-.85-.73-1.39-.94Z"/>
      <path class="cls-128" d="M87.73,113.75c-2.88.96-5.89.88-8.86,1.1-2.77.2-5.53-.09-8.3-.01-.68.02-1.35-.24-2.04-.16-.06-1.15-.47-2.14-1.26-2.98-.18-.19-.47-.35-.33-.67.15-.35.49-.28.78-.28,3.1.04,6.19-.19,9.25-.69.29-.05.54.01.78.12,3.22,1.49,6.61,2.51,9.99,3.56Z"/>
      <path class="cls-60" d="M65.27,115.91c-8.45-.06-16.91.63-25.36,0,.37-.29.81-.13,1.22-.15,1.22-.07,1.99-.83,2.04-2.06.02-.57-.01-1.14.04-1.71.06-.67.38-1.07,1.14-1.11,3.11-.19,6.22-.11,9.33-.12,1.02,0,1.18.2,1.18,1.22,0,.69-.04,1.36.12,2.05.3,1.33.7,1.71,2.08,1.71,2.39.02,4.79,0,7.18.01.35,0,.72-.1,1.04.16Z"/>
      <path class="cls-54" d="M29.34,114.84c-2.45,0-4.9-.02-7.36,0-3.73.04-7.42-.36-11.08-1.07-.15-.03-.3-.02-.45-.03,1.93-.59,3.86-1.19,5.8-1.78.89-.27,1.75-.58,2.57-1.02,1.88-1.02,3.86-.75,5.85-.41,1.8.3,3.63.27,5.44.35.31.01.72-.18.92.15.23.38-.23.55-.4.81-.63.92-1.17,1.88-1.3,3.01Z"/>
      <path class="cls-144" d="M64.15,99.24c-2.31-.23-4.62-.5-6.89-1-1.02-.22-1.75-.07-2.46.72-1.54,1.73-3.44,2.86-5.82,2.93-1.91.05-3.62-.67-4.95-1.96-1.62-1.57-3.38-1.94-5.49-1.38-1.59.42-3.22.6-4.87.49.15-.73.29-1.46.44-2.19.1-.52.39-.78.95-.69,2.2.36,4.42.13,6.62.17.77.01,1.28.32,1.71.94,1.69,2.49,1.7,2.49,4.75,2.48.96,0,1.92-.06,2.87,0,1.35.09,2.32-.42,2.91-1.61.8-1.63,2.18-2.06,3.82-1.77,1.54.27,3.03,0,4.54-.16,1.16-.13,1.31-.08,1.56,1.1.14.64.44,1.25.32,1.93Z"/>
      <path class="cls-137" d="M50.91,50.54c-.02-4.32-.03-8.64-.05-12.96-.21-.21-.24-.47-.24-.74,0-2.07-.1-4.14.06-6.21.26-.89.09-1.81.14-2.71.02-.4-.09-.83.27-1.15.35,1.39.37,2.83.46,4.25.23,3.48.42,6.97.57,10.45.03.72.27.87.94.87,4.48-.03,8.95-.02,13.43-.02-.24.56-.74.39-1.15.4-4.02.02-8.04.02-12.07.04-.46,0-1.03-.21-1.35.37.12.56.58.33.87.33,3.57.04,7.14-.04,10.72.01,1.74.04,2.58.66,2.88,2.09.11.49.02.83-.54.91-4.08.05-8.16,0-12.25.02-.36,0-.72-.02-1.07.01-.91.07-1.15.31-1.18,1.22-.02.66.02,1.31-.02,1.97-.02.34.04.74-.42.88Z"/>
      <path class="cls-121" d="M41.88,112.36c.44,1.2-.03,1.88-1.21,1.96-2.95.21-5.9.15-8.85.16-.33,0-.78.19-.98-.21-.19-.38,0-.75.28-1.06,1.53-1.33,3.33-1.25,5.16-1.01.35.05.8.29.77-.4.41-.06.56.39,1.07.53-.85-1.13-1.78-1.88-3-2.24-.54-.16-1.07-.32-1.61-.47-.21-.06-.47-.26-.56.14-.05.21-.07.44-.37.38-.29-.05-.36-.27-.35-.53.25-.44.12-1.03.54-1.41.9.65,1.97.62,2.99.69,1.48.1,2.98.03,4.47.03.36,0,.71-.03,1.04-.21.29-.16.51-.12.64.21-.32.22-.3.57-.29.88.03.86-.15,1.71-.03,2.57.01.08-.09.26.09.25.05,0,.11-.19.21-.26Z"/>
      <path class="cls-67" d="M65.76,3.84c2.29,4.89,4.26,9.89,5.48,15.17.11.46.19.93.27,1.4.02.14.04.32-.14.38-.18.06-.27-.09-.34-.21-.36-.63-.8-1.19-1.36-1.65-.66-.53-.85-.47-1.21.35-1.66-5.3-2.75-10.75-4.4-16.05-.2-.64-.26-1.32.48-1.73.64.66.92,1.51,1.22,2.35Z"/>
      <path class="cls-37" d="M66.84,113.21c.39.99.33,1.1-.67,1.1-1.79,0-3.58-.01-5.38,0-1.16.01-2.31.24-3.48.18-.64-.03-1.09-.24-1.19-.93.53-1.04.47-2.16.37-3.27-.04-.46-.26-.92,0-1.39,2.91.48,5.76.17,8.6-.52.35.12.45.48.7.7,0,1.15-.08,1.25-1.14.98-1.53-.4-3.22.63-3.94,1.55-.11.14-.1.27.06.37.01.34.15.46.5.34.5-.17,1.02-.3,1.55-.37,1.54-.2,2.87.26,4.02,1.27Z"/>
      <path class="cls-79" d="M29.54,19.28c-.49-.89-1.09-.51-1.63-.1-.41.31-.72.75-1.24,1.31.02-1.22.38-2.13.63-3.05,1.29-4.77,2.96-9.4,5.17-13.82.05-.1.07-.23.1-.34.06-.71.27-1.34.88-1.77.8.4.6,1.07.44,1.7-.82,3.17-1.66,6.33-2.46,9.5-.37,1.47-.65,2.96-1.02,4.44-.19.75-.43,1.48-.87,2.13Z"/>
      <path class="cls-113" d="M50.91,30.6c-.01,2.33-.03,4.65-.04,6.98-.07.13-.14.25-.27.47-.32-.63-.32-1.26-.44-1.87-.38-1.84.06-3.68,0-5.52-.02-.62-.1-1.24-.2-1.86-.07-.39-.32-.72-.64-.94-.39-.27-.72-.23-.92.26-.16.4-.19.81-.19,1.23,0,3.64,0,7.29,0,10.93-.36.57-.19,1.22-.31,1.83-.06.29-.08.67-.46.67-.32,0-.34-.36-.41-.61-.12-.41-.14-.82-.09-1.24.17-1.64.15-3.28-.01-4.92-.14-1.43-.13-2.87-.01-4.3.11-1.29.17-2.56.05-3.85-.07-.72.22-1.42.03-2.14-.01-.21-.04-.41-.03-.62.08-1.58.41-1.76,1.67-1.73.12,0,.24-.01.36-.01,1.91.03,2.02.14,1.93,2.07,0,.15,0,.3,0,.44.13,1.57.12,3.14,0,4.71Z"/>
      <path class="cls-123" d="M45.48,30.58c-1.05.6-2.25.45-3.37.68-1.06.22-2.17.31-3.28.23-.37-.03-.71-.07-1.02-.27-.92-.62-.97-1.06-.17-1.83.71-.68,1.49-1.27,2.31-1.82.15-.1.71-.14.32-.6.01-.33.28-.45.51-.56,1.5-.75,3.1-1.2,4.76-1.47.12-.02.24.01.34.08.07,1.87-.19,3.71-.38,5.56Z"/>
      <path class="cls-6" d="M60.76,29.86c.17.95-.4,1.23-1.18,1.43-1.37.35-2.72.1-4.06-.06-.38-.05-.76-.1-1.15-.12-1.26-.05-1.45-.2-1.84-1.43-.1-1.51-.5-3-.34-4.53.26-.22.56-.17.85-.11,1.5.34,2.96.82,4.32,1.57.04.38.26.63.57.85.75.54,1.49,1.1,2.23,1.66.26.2.56.37.61.73Z"/>
      <path class="cls-82" d="M45.9,98.13c-.75-.72-1.44-1.48-1.87-2.45-.02-.19-.15-.32-.25-.47-.19-.28-.39-.64-.03-.86.36-.22.58.16.77.41.26.34.41.78.81,1-.8-1-1.45-2.09-2.1-3.19.73-1.63,1.46-3.26,2.88-4.45.51,0,1.07-.09,1.28.58-.21.63-.76.98-1.17,1.45-1.42,1.63-1.36,2.79-.04,4.97,1.25,2.06,4.75,1.66,5.65-.07.18-.34.4-.67.61-.99.93-1.38.89-1.63,0-3.06-.42-.68-1.21-1.09-1.35-1.96.51-.76,1.04-.93,1.93-.61.05.06.1.13.15.19.3,1.22,1.04,2.25,1.52,3.39.09.21.26.4.17.66-.58.73-.95,1.54-.88,2.51.02.3-.1.57-.2.85-.55.71-1.09,1.41-1.64,2.12-.27.17-.56.17-.86.08-1-.3-2.01-.21-3.02-.1-.8.09-1.59.16-2.38,0Z"/>
      <path class="cls-52" d="M74.57,87.87c.33-.23.56-.11.75.2.18,1.21.19,2.43.16,3.65-.02.63-.31,1.14-.8,1.54-1.17.96-2.53,1.3-4.02,1.15-.68-.06-1.22-.44-1.41-1.09-.4-1.41-1.27-2.71-1.09-4.28.02-.2-.03-.42.07-.61.32-.29.72-.25,1.09-.19,1.44.23,2.89.11,4.34.1.33,0,.82.12.89-.47Z"/>
      <path class="cls-114" d="M61.15,88.46c-1.53.33-3.08.12-4.61.21-1.54.1-2.28-.77-2.95-1.87-.18-.29-.31-.62,0-.9.34-.31.74-.15.96.11.62.72,1.26.51,1.93.14,1.19-.65,2.21-1.52,3.2-2.43,1.03-.96,1.15-.93,1.92.2.53.77.84.82,1.4.05.66-.91,1.23-1.89,1.92-2.97.31.99.25,1.9.25,2.75,0,.98.13,1.96.12,2.94-.02,1.52-.1,1.63-1.64,1.53.07-.45.49-.47.79-.63.35-.18.47-.46.36-.81-.13-.41-.47-.31-.75-.22-1.17.37-2.33.45-3.52.08-.45-.14-.89.04-1.28.27-.77.45-1.58.84-2.45,1.27,1.15.03,2.21,0,3.28.02.37,0,.79-.09,1.08.26Z"/>
      <path class="cls-72" d="M32.93,88.07c-.33-.33-.16-.74-.16-1.11-.02-1.58,0-3.17,0-4.75,0-.27-.05-.6.26-.7.37-.12.52.22.64.48.36.8.78,1.55,1.4,2.17.65.65.9.62,1.38-.13.71-1.11.7-1.1,1.68-.21,1.07.97,2.28,1.72,3.53,2.44.67.39,1.28.4,1.89-.11.18-.15.4-.26.62-.36.17-.08.35-.06.49.09.17.18.12.37.02.57-.87,1.67-2.18,2.38-4.08,2.16-.76-.09-1.55.18-2.28-.18.91-.5,1.91-.13,2.72-.35-.32-.05-.69-.31-1.08-.53-1.09-.62-2.22-.98-3.51-.62-.83.23-1.66-.03-2.46-.28-.58-.18-.85-.07-.82.58.01.29.02.61-.24.83Z"/>
      <path class="cls-21" d="M79.05,35.22c-.04.95-.39,1.8-.87,2.6-1.86,3.08-4.37,5.34-7.93,6.29-.81.22-1.27-.06-1.55-.78-.22-.58-.4-1.18-.6-1.78.49-.4,1.12-.39,1.69-.52,3.4-.78,5.93-2.72,7.75-5.66.09-.15.18-.31.3-.45.24-.27.35-.77.86-.62.48.14.23.61.35.92Z"/>
      <path class="cls-83" d="M30.02,41.53c-.22.62-.48,1.22-.66,1.85-.25.86-.78,1.05-1.57.79-4.55-1.47-7.62-4.41-8.99-9.05-.09-.31-.14-.64-.21-.95.69-.1,1.07.41,1.35.85,2.31,3.59,5.68,5.51,9.77,6.33.12.02.22.08.3.17Z"/>
      <path class="cls-7" d="M66.54,58.03c-1.15-2.49-1.36-5.18-1.68-7.84-.09-.31-.1-.69.27-.71,1.12-.07,2.24-.57,3.37-.04.26.82.42,1.67.53,2.52-.36.05-.44-.26-.57-.47-.37-.59-.9-.66-1.48-.44-.58.22-.8.69-.73,1.29.07.62.37,1.08,1.04,1.16.62.08,1.12-.12,1.4-.72.13-.27.1-.6.34-.81.65,1.76.95,3.61,1.43,5.42.11.4.21.81.33,1.21.13.45-.02.62-.48.54-.5-.54-1.13-.66-1.84-.63-.67.03-1.35-.01-1.93-.45Z"/>
      <path class="cls-107" d="M39.92,91.29c0,.93-.04,1.86.04,2.78.08.87-.38,1.16-1.09,1.15-.95-.01-1.91-.07-2.85-.19-.91-.11-1.81-.33-2.72-.49-.77-.13-1.14-.54-1.1-1.35.05-.93.02-1.86.03-2.78.29-.13.58-.03.87.03,1.86.39,3.73.61,5.63.61.41,0,.83-.02,1.19.25Z"/>
      <path class="cls-139" d="M62.55,90.58c.87-.32,1.77-.12,2.65-.18.31-.02.37.19.43.45.19.89.18,1.78.17,2.68,0,.63-.47.88-.98.99-2.02.43-4.07.56-6.13.62-.55.02-.61-.37-.61-.79,0-.96.01-1.92.02-2.87.77-.36,1.61-.3,2.43-.42.69-.1,1.44.02,2.03-.48Z"/>
      <path class="cls-26" d="M60.22,51.37c.46-.45,1.17-.52,1.75-1.23-.59,0-.99-.01-1.39,0-2,.08-3.99-.08-5.99.11-.74.07-1.1.34-.99,1.12.05.33,0,.69-.22.94-1.02,1.13-2.09,2.21-3.41,2.98-.21.12-.45.15-.69.07,1.09-.97,2.13-1.99,3.31-2.86.84-.61.85-1.51.82-2.42-.04-1.35-.04-1.33,1.29-1.36,2.59-.05,5.19-.11,7.78-.21.85-.03,1.17.3,1.2,1.14.04,1.13.36,2.23.31,3.37-.37-.5-.88-.37-1.36-.28-.69.13-1.36.3-2.04.45-.28-.58.11-1.28-.36-1.82Z"/>
      <path class="cls-105" d="M46.04,46.41c.2.12.27.32.21.53-.36,1.3-.09,2.63-.23,3.94-.35-.87-.06-1.77-.09-2.65-.02-.6-.22-.76-.78-.78-3.88-.1-7.77-.23-11.65-.36-1.25-.04-2.51-.12-3.76-.2-.74-.05-1.1-.58-.64-1.04.91-.92,1.13-2.15,1.65-3.24,1.35.08,2.69.33,4.05.27.29-.01.59.01.83.22.02.44-.35.42-.6.5-.4.13-.82.14-1.23.21-.49.09-.89.32-1.13.78-.45.86-.21,1.31.75,1.31,3.01,0,6.01.25,9.02.22,1.2-.01,2.43-.08,3.62.26Z"/>
      <path class="cls-53" d="M37.42,53.2c-.78-.17-1.56-.37-2.34-.51-.35-.06-.72-.05-1.04.17.11-1.1.26-2.19.32-3.29.04-.78.31-1.13,1.15-1.07,2.68.19,5.37.28,8.06.22.79-.02,1.18.26,1.09,1.1-.06.53-.05,1.07-.08,1.61-.16-.69-.51-1.2-1.29-1.2-2.4,0-4.8,0-7.32,0,.45.67,1.16.74,1.63,1.15-.15.6-.06,1.22-.19,1.82Z"/>
      <path class="cls-131" d="M65.98,46.21c.26-.03.32-.14.25-.42-.34-1.52-.97-2.05-2.58-2.1-.14-.16-.49.01-.52-.22-.03-.31.29-.3.51-.37.68-.2,1.4-.14,2.09-.28.51-.08,1.03-.14,1.54-.23.69,1.14.95,2.5,1.81,3.57.37.46-.17.64-.48.7-.61.12-1.24.21-1.86.21-4.81.02-9.6.27-14.41.4-.27-.22-.49-.52-.34-.85.17-.38.6-.32.95-.32,4.02,0,8.05,0,12.07,0,.32,0,.66.09.96-.09Z"/>
      <path class="cls-4" d="M32.59,54.14c-.06,1.27-.53,2.44-.98,3.61-.19.48-.58.74-1.13.71-.48-.02-.96-.01-1.43-.03-.42-.02-.82-.05-1.06.44-.1.21-.36.37-.61.25-.26-.14-.04-.38,0-.56.6-2.68,1.22-5.35,1.83-8.02.14-.33.37-.4.68-.25.25.33.04.62-.09.91-.13.3-.31.58-.39.9-.11.43-.49.89.02,1.3.37.3,1.3.12,1.73-.27.25-.23.32-.67.75-.69.66.4.78,1.02.68,1.72Z"/>
      <path class="cls-13" d="M64.36,33.28l.18.18c.49,1.1.87,2.24,1.06,3.43.03,1.2.63,2.23.96,3.34.35,1.17.28,1.28-.9,1.35-1.85.11-2.02,0-2.47-1.79-.44-1.79-1.15-3.53-1.2-5.4.8-.35,1.54-.84,2.37-1.11Z"/>
      <path class="cls-45" d="M30.02,41.53c-2.2-.12-4.11-1.02-5.96-2.13-1.71-1.03-3.11-2.36-4.14-4.08-.3-.51-.77-.9-1.33-1.15-.31-.99-.51-2-.54-3.04,1.59,2.1,2.58,4.65,5.06,6.07,2.4,1.38,4.83,2.42,7.65,2.36-.08.72-.34,1.37-.74,1.98Z"/>
      <path class="cls-143" d="M79.05,35.22c-.26-.21-.04-.75-.45-.8-.47-.05-.48.46-.65.74-2.21,3.78-5.51,5.88-9.84,6.39-.29-.73-.58-1.45-.87-2.18,3.51.43,6.34-1.08,8.98-3.15,1.79-1.39,2.68-3.38,3.61-5.36.23-.48.15-1,.16-1.5.02-.8.02-1.61.02-2.41.39,2.83.11,5.59-.96,8.26Z"/>
      <path class="cls-130" d="M68.31,88.43c.14.49.22.99.18,1.5-.05.61.02,1.19.51,1.64.22.2.18.48.21.75.17,1.41.7,1.86,2.09,1.88.76.01,1.48-.18,2.17-.45,1.36-.54,1.84-1.33,1.84-2.81,0-.95,0-1.91,0-2.86.45,1.9.7,3.82-.23,5.63-.8,1.54-2.16,2.28-3.91,2.09-1.56-.16-2.57-1.08-3.22-2.49-.51-1.13-.24-2.35-.54-3.51-.15-.57-.2-1.17-.29-1.75-.08-.52-.07-.53.47-.48.36.19.7.38.71.86Z"/>
      <path class="cls-151" d="M41.55,84.3c.58.02.9-.32,1.23-.75.85-1.09,1.17-1.12,2.29-.37,1.25.84,2.65,1.33,4.02,1.92.47.2.88-.03,1.28-.2,1.13-.47,2.12-1.2,3.14-1.87.87-.58,1.15-.54,1.76.3.39.54.85.91,1.56.8-.72.87-.92.93-1.74.3-.47-.36-.86-.42-1.37-.1-.88.55-1.81,1.03-2.7,1.57-1.23.75-2.41.73-3.6-.09-.88-.61-1.92-.92-2.78-1.6-.35-.27-.98-.33-1.3.14-.67.98-1.21.49-1.79-.06Z"/>
      <path class="cls-98" d="M65.63,61.3c.36,1.2,1.36,1.4,2.4,1.63,1.97.43,3.97.79,5.71,1.9.13.08.26.14.38.24.22.18.38.42.25.7-.16.33-.45.19-.7.11-1.48-.52-3-.68-4.56-.63-.52.02-1.01.12-1.48.29-.51.19-.96.51-.94,1.16-1.03-1.07-.81-2.5-1.06-3.78-.1-.52-.01-1.07,0-1.61Z"/>
      <path class="cls-100" d="M31.32,66.88c-.21-.98-1.11-1.76-2.14-1.79-1.68-.05-3.3.24-4.89.79-.35.12-.85.57-1.1.1-.17-.31.38-.59.7-.79,1.97-1.22,4.09-2.05,6.42-2.27.89-.09,1.69-.33,2.08-1.26,0,.68-.02,1.36.02,2.04.07,1.21-.33,2.25-1.08,3.18Z"/>
      <path class="cls-126" d="M52.7,32.55c.35,1.8.74,3.59,1.05,5.4.17,1,.59,1.94.58,2.97,0,.28.22.41.48.44,1.87.19,3.73.33,5.6,0,.42-.07.55-.31.53-.68-.1-1.72-.23-3.44-.29-5.17-.04-1.12-.39-2.31.49-3.3-.25.73-.24,1.44-.05,2.19.49,1.9.93,3.81,1.38,5.72.32,1.35.13,1.6-1.24,1.6-2.36,0-4.72-.02-7.08,0-.72,0-1.09-.28-1.1-.97-.06-2.74-.46-5.47-.35-8.22Z"/>
      <path class="cls-140" d="M33.45,1.5c-.29.59-.59,1.18-.88,1.77-.77.12-1.35.53-1.9,1.07-3.18,3.12-6,6.51-8.17,10.42-.16.29-.3.84-.89.54.24-.87.67-1.66,1.14-2.42,2.6-4.22,5.6-8.12,9.48-11.26.4-.32.75-.64,1.22-.13Z"/>
      <path class="cls-29" d="M46.97,25.73c.17,1.77.46,3.53.27,5.32-.19,1.78-.18,3.57,0,5.35.14,1.4.16,2.82,0,4.21-.09.74.01,1.37.15,2.08.8-.67.09-1.77.81-2.4-.06.65-.22,1.31-.15,1.94.1.87-.27,1.19-1.04,1.24-.33.02-.66.03-.98.04-.14-.08-.41-.03-.35-.33.3-.42.05-.48-.31-.49-1.09,0-2.18,0-3.27,0-.37,0-.78.07-1.08-.26,1.42-.21,2.85-.09,4.28-.08.65,0,.78-.22.8-.8.2-4.47.42-8.94.66-13.41.04-.8.15-1.6.23-2.4Z"/>
      <path class="cls-148" d="M37.77,105.36c1.72-.14,3.46.17,5.17-.19.41-.08.62.16.69.52.1.49.1.97-.42,1.25-.64.34-1.33.52-2.04.61-2.98.38-5.93.39-8.78-.78-.16-.34-.52-.68-.18-1.06.31-.34.73-.12,1.1-.02,2.31.65,4.64.82,7.01.43.12-.02.23-.05.38-.23-.63-.23-1.26-.06-1.85-.13-.38-.04-.87.14-1.07-.4Z"/>
      <path class="cls-149" d="M66.15,104.43c.56,1.56.3,2.14-1.2,2.6-3.06.94-6.17.9-9.27.25-.69-.15-1.54-.3-1.46-1.36.04-.45.24-.75.74-.68,1.81.24,3.63.01,5.45.1-.16.51-.61.39-.96.4-1,.03-2,0-3,.07,2.06.55,4.14.64,6.24.27.26-.05.53-.09.8-.11,1.15-.07,2.18-.34,2.66-1.55Z"/>
      <path class="cls-115" d="M37.27,32.91c.48.34.56.83.51,1.35-.22,2.04-.46,4.07-.69,6.1-.09.75.28,1.17,1.06,1.17,1.67,0,3.35-.02,5.02.01.8.02,1-.4,1.1-1.09.33-2.22.47-4.47,1.05-6.66.1,2.3-.04,4.59-.17,6.88-.04.68-.26,1.04-1.06,1.09-2.5.16-4.99.18-7.49-.02-.79-.07-.89-.5-.78-1.08.37-1.86.57-3.76,1.16-5.57.24-.73.24-1.46.29-2.2Z"/>
      <path class="cls-95" d="M36.14,33.8c.07,1.98-.69,3.8-1.12,5.67-.55,2.39-.02,2.13-2.79,2.08-.82-.01-.99-.32-.72-1.05.37-.97.7-1.96,1.05-2.94.27.09.49.61.81.08.85-.96,1.67-1.94,2.11-3.17.24-.2.25-.63.66-.68Z"/>
      <path class="cls-80" d="M65.76,3.84c-.57-.7-.93-1.51-1.22-2.35.36-.34.7-.23,1.04.03,4.47,3.51,7.79,7.96,10.55,12.87.06.1.07.22.11.34-.48-.09-1.13-.63-1.49-1.27-1.78-3.15-4.03-5.94-6.62-8.46-.47-.46-1-.84-1.46-1.3-.41-.42-.62.02-.91.15Z"/>
      <path class="cls-150" d="M80.54,67.95c-.02.17-.05.34-.09.66-3.44-5.21-8.51-7.35-14.53-8.12,1.01-.47,1.91-.04,2.74-.24,3.74.41,7,1.85,9.74,4.45.97.92,1.69,1.99,2.14,3.25Z"/>
      <path class="cls-70" d="M61.15,88.46h-4.94c-.01-.08-.02-.16-.03-.24,1.2-.61,2.41-1.22,3.61-1.82.25-.13.52-.15.78-.04,1.21.51,2.39.3,3.57-.08.32-.11.78-.35.88.18.09.46.36,1.09-.42,1.34-.33.11-.65.28-.97.43-.83.08-1.65.16-2.48.25Z"/>
      <path class="cls-103" d="M29.67,60.74c-1.8.52-3.63.96-5.34,1.78-2.66,1.29-4.78,3.13-6.25,5.71-.12.21-.12.66-.58.43.04-1.32.65-2.42,1.47-3.37,2.21-2.57,4.99-4.18,8.36-4.75.5-.08,1-.09,1.5-.18.31-.05.73-.14.84.37Z"/>
      <path class="cls-40" d="M65.98,46.21c-.27.28-.62.17-.93.17-2.06.01-4.12-.08-6.17.03-1.87.1-3.73-.05-5.59-.02-1.17.02-1.17,0-.97,1.08-.36.67-.15,1.4-.17,2.1-.04,1.61-1.38,3.47-2.89,3.95-.3.1-.53,0-.74-.19-.78-.69-1.55-1.38-2.33-2.07.61-.06,1.07.16,1.45.66.54.72.96.76,1.61.15.55-.52,1.31-.8,1.65-1.54.35-.99.15-2.01.13-3.01-.02-.83.27-1.22,1.06-1.29.15-.01.3-.04.44-.04,4.48,0,8.96.01,13.43.02Z"/>
      <path class="cls-102" d="M27.88,92.22c-1.23-.88-2.29-1.97-3.63-2.71-.38-.21-.71-.56-.66-1.08.91-.28,1.83-.08,2.75-.08,1.04,0,2.09-.19,3.11.17.39,1.2.13,2.35-.35,3.45-.22.51-.72.57-1.22.26Z"/>
      <path class="cls-135" d="M87.65,111.08c-2.14-3.89-2.92-8.17-3.54-12.5-.07-.5-.14-1.01-.2-1.51-.07-.14-.09-.3.05-.37.15-.08.25.04.3.19,1.18,5.13,2.22,10.32,4.92,14.97-.92.33-1.09-.44-1.52-.78Z"/>
      <path class="cls-153" d="M23.77,86.11c-.4-.5-.08-.76.34-.95,2.26-.99,4.53-1.97,6.8-2.94.43-.18.65-.12.64.44-.02,1.19-.33,2.29-.84,3.35-.21.45-.59.57-1.02.59-.65.03-1.31,0-1.96.01.06-.43.43-.33.69-.38.3-.05.64-.05.63-.47-.01-.44-.15-.82-.62-.98-.14-.05-.3-.06-.44,0-1.38.51-2.86.71-4.21,1.32Z"/>
      <path class="cls-146" d="M32.93,88.07v-1.88c.55-.04.94.23,1.37.32.78.16,1.55.41,2.37.14,1.1-.36,2.11.01,3.08.53.55.29,1.09.61,1.72.96-1.07.42-2.13.22-3.15.31-1.66-.07-3.32-.14-4.98-.23-.14,0-.27-.1-.4-.15Z"/>
      <path class="cls-155" d="M41,42.42c1.51.01,3.02.01,4.53.04.29,0,.72-.22.84.25.15.58-.52.33-.69.61-.46.36-.93.36-1.42.05-.36-.02-.71-.03-1.07-.05-2.3.24-4.61.08-6.92.1-.24,0-.47-.04-.66-.21-1.36-.07-2.72-.13-4.08-.21-.3-.02-.69.09-.78-.37.14-.5.55-.37.89-.36,3.12.05,6.25.11,9.37.16Z"/>
      <path class="cls-25" d="M69.21,86.61c-.36,0-.71-.02-1.07-.02-.62,0-1.04-.32-1.2-.89-.27-.92-.41-1.87-.47-2.82-.02-.34,0-.85.57-.58,2.29,1.08,4.78,1.73,6.94,3.1.05.03.08.09.12.13-.44.44-.94.22-1.42.09-.75-.2-1.45-.57-2.22-.66-.54-.07-1.16-.25-1.58.3-.41.54.21.9.32,1.36Z"/>
      <path class="cls-138" d="M37.77,105.36c.92.34,1.88.06,2.82.18.25.03.58-.06.59.35.01.33-.2.47-.5.51-2.47.3-4.92.3-7.32-.41-1.16-.35-1.16-.36-.97.79-.55-.19-.72-.69-.86-1.16-.11-.39-.2-.85.11-1.2.36-.4.72,0,1.05.11,1.66.53,3.36.74,5.09.84Z"/>
      <path class="cls-158" d="M18.38,80c-.74,3.2-1.52,6.39-2.06,9.63-.37,2.18-.74,4.36-1.12,6.53-.29.56-.37,1.24-1,1.86.05-.55.05-.93.12-1.29.93-5.04,1.91-10.07,3.03-15.07.14-.64.31-1.27.69-1.82.11.05.22.1.33.15Z"/>
      <path class="cls-64" d="M66.15,104.43c.09.88-.41,1.38-1.17,1.54-3.02.64-6.05.92-9.08.02-.08-.02-.14-.1-.24-.18.2-.4.56-.25.85-.26,1.3-.07,2.62.15,3.9-.2,1.7-.16,3.4-.39,5.04-.91.21-.07.47-.35.7-.01Z"/>
      <path class="cls-76" d="M27.88,92.22c.84.13,1.11-.33,1.3-1.08.21-.84,0-1.73.34-2.54-.13-.54-.54-.63-1.02-.63-1.15,0-2.3,0-3.45,0-.38,0-.78.06-1.09-.25.27-.29.62-.17.93-.17,1.73-.01,3.46,0,5.2,0,.38,0,.75,0,.68.55-.23,1.91-.47,3.83-.69,5.74-.05.47-.2.82-.71.87-.5.05-.56-.38-.65-.71-.17-.64-.58-1.17-.84-1.77Z"/>
      <path class="cls-55" d="M45.87,25.02c-1.6.44-3.25.73-4.76,1.47-.29.14-.57.32-.85.47-2.29.91-4.25,2.33-6.08,3.95-.21,0-.41,0-.74,0,1.2-1.47,2.55-2.6,4.07-3.53,2.33-1.43,4.84-2.39,7.54-2.84.21-.03,1.12-.64.81.47Z"/>
      <path class="cls-133" d="M67.27,42.59c-.37.57-1,.25-1.48.43-2.86.17-5.71.57-8.59.4-1.65-.02-3.3,0-4.96-.02-.24,0-.46-.06-.63-.25-.03-.71.44-.7.96-.7,4.32,0,8.65,0,12.97-.02.32,0,.66.11.95-.12.31-.04.63-.11.78.29Z"/>
      <path class="cls-90" d="M27.22,93.09c1.1,1.06,1.34,2.42,1.28,3.85-.05,1.28-1.55,2.15-2.82,1.68,1.55-1.44,1.6-3.19.13-4.83-.24-.26-.55-.47-.62-.85.72-.55,1.36-.05,2.02.15Z"/>
      <path class="cls-108" d="M57.36,26.8c-1.67-.71-3.34-1.44-5.17-1.65-.22-.43-.28-.8.39-.66,4.55.95,8.62,2.79,11.77,6.35.01.01-.01.06-.02.1-.28.21-.56-.01-.84-.02-1.75-1.45-3.63-2.7-5.65-3.73-.18-.09-.38-.18-.48-.39Z"/>
      <path class="cls-43" d="M69.21,86.61c-.67-.2-.83-.68-.71-1.3.13-.68.66-.64,1.18-.67.83-.05,1.58.25,2.34.51.67.23,1.34.53,2.08.38.67.38.43.66-.12.86-.77.29-1.57.24-2.37.24-.8,0-1.6-.01-2.4-.02Z"/>
      <path class="cls-24" d="M23.77,86.11c.04-.34.22-.56.57-.59,1.27-.1,2.4-.68,3.6-1,.53-.14.99-.02,1.23.58.4.99.21,1.32-.86,1.36-.21,0-.42-.03-.59.15-1.34-.02-2.69.1-3.96-.51Z"/>
      <path class="cls-20" d="M53.05,88.42c-.66.1-1.44-.1-1.81.74-.24.11-.46,0-.69-.07-.91-.31-1.81-.56-2.77-.21-.17.06-.35.05-.5-.09-.22-.57-.8-.37-1.2-.56-.27,0-.46-.11-.58-.36.45-1.13.94-1.32,1.86-.63,1.05.8,2.09.89,3.25.27,1.28-.69,1.77-.49,2.43.9Z"/>
      <path class="cls-89" d="M45.51,87.87c.27-.01.45.14.58.36-1.1,1.33-1.9,2.84-2.74,4.33-.82.3-1.59.09-2.12-.57-.16-.52.04-.79.57-.85.76-.09,1.3-.54,1.72-1.14.57-.8,1.24-1.5,1.99-2.13Z"/>
      <path class="cls-18" d="M78.17,59.83c.65-.02,2.05.87,2.15,1.38.08.38-.88,1.98-1.3,2.15-.1.04-.26.09-.34.05-.73-.39-1.33-.95-1.9-1.54-.02-.02.08-.14.12-.22.79-.35,1.08-1.05,1.27-1.82Z"/>
      <path class="cls-156" d="M80.85,57.18l1.06.36c.14-.08.21-.03.21.13-.16.08-.08.16-.01.27.22.32.81.47.65.97-.18.56-.49,1.09-.94,1.49-.36.31-.78.26-1.16.03-.51-.3-1.03-.6-1.39-1.09.44-.78,1.12-1.39,1.58-2.15Z"/>
      <path class="cls-33" d="M57.36,26.8c2.11.8,3.9,2.13,5.7,3.46.22.17.36.39.43.66-.56-.01-.88.65-1.47.55,0-.86-.98-.95-1.26-1.6-1.14-.86-2.27-1.73-3.4-2.59-.2-.15-.6-.32,0-.47Z"/>
      <path class="cls-88" d="M37.05,111.81c.17.23.34.46.61.82-1.29-.18-2.42-.32-3.56-.32-.92,0-1.69.27-2.4.82-.17.14-.33.41-.58.1.85-1.9,2.3-2.62,4.27-2.06.57.16,1.11.43,1.67.65Z"/>
      <path class="cls-141" d="M41.23,91.99c.66.37,1.37.53,2.12.57.68.96,1.37,1.92,2.04,2.88.1.14.34.35.05.5-.19.1-.42.02-.55-.18-.21-.32-.41-.65-.6-.98-.1-.17-.2-.45-.44-.33-.24.12-.07.36,0,.55.09.21.24.42.18.67-.76-.76-1.46-1.54-2.5-1.99-.72-.31-.28-1.11-.3-1.7Z"/>
      <path class="cls-11" d="M35.63,34.53c-.34,1.33-1.22,2.29-2.12,3.25-.28-.28-.44-.66-.75-.91.36-1.14.72-2.28,1.08-3.41.79.04,1.37.42,1.8,1.07Z"/>
      <path class="cls-145" d="M66.84,113.21c-.25.05-.46-.04-.66-.2-1.41-1.13-2.97-1.02-4.59-.56-.41.12-.81.41-1.28.14-.01-.34.4-.35.45-.62.85-.58,1.78-.99,2.82-.98,1.56.02,2.65.78,3.25,2.22Z"/>
      <path class="cls-109" d="M53.8,96.02c-.05-1.27-.24-2.59,1.05-3.46.57-.44,1.47-.3,1.84-1.08.34.62.15,1.27.11,1.91,0,.13-.13.34-.22.36-1.36.23-1.86,1.5-2.77,2.27Z"/>
      <path class="cls-31" d="M20.72,62.39c-.97.88-1.8.98-2.49.29-.81-.82-.77-1.49.13-2.19.25-.2.43-.5.77-.59.71.72,1.1,1.64,1.59,2.5Z"/>
      <path class="cls-42" d="M64.36,33.28c-.65.66-1.45,1.03-2.37,1.11-.49-1.55-.2-2.06,1.36-2.37.41-.08.83-.09,1.25-.11.27-.01.56,0,.67.31.12.35-.14.47-.39.59-.21.1-.42.23-.51.47Z"/>
      <path class="cls-47" d="M56.48,89.57c.21-.34.47-.38.74-.4,1.13-.07,2.26-.22,3.38-.17,1.33.07,2.59-.34,3.89-.38.24,0,.62-.15.71.18.12.44-.38.35-.6.49-.17.11-.39.2-.58.2-2.41,0-4.81.34-7.22.19-.08,0-.16-.05-.31-.11Z"/>
      <path class="cls-41" d="M39.2,89.69c-2.12-.06-4.22-.25-6.32-.51-.25-.03-.56-.05-.56-.32,0-.36.37-.22.57-.22,1.9.07,3.78.41,5.69.44.8.01,1.61.06,2.41.09.19,0,.49-.08.48.23,0,.24-.26.29-.49.29-.6,0-1.19,0-1.79,0Z"/>
      <path class="cls-86" d="M23.96,87.72c1.66,0,3.32.01,4.98.01.34,0,.66.02.84.37.14.27-.16.34-.26.5-1.54,0-3.08,0-4.61.01-.45,0-.88-.08-1.31-.18-.34-.47-.09-.64.36-.72Z"/>
      <path class="cls-116" d="M56.69,91.48c-.05,1.33-1.14.86-1.84,1.08-.71-1.09-1.26-2.26-1.73-3.47-.07-.18-.08-.35.08-.48.35.19.6.47.81.79.59.87,1.24,1.66,2.4,1.77.1,0,.19.2.28.31Z"/>
      <path class="cls-111" d="M35.63,34.53c-.6-.36-1.2-.72-1.8-1.07-.2-.37-.58-.5-.92-.68-.17-.09-.32-.19-.26-.41.05-.18.17-.33.37-.34.9-.08,1.8-.12,2.62.35.55.32.56.87.5,1.43-.21.22-.14.62-.51.72Z"/>
      <path class="cls-68" d="M32.15,36.15c-.98-1.46-1.98-2.9-2.9-4.39-.17-.27-.69-.84.07-1.18.71,1.31,1.5,2.53,2.8,3.36.69.44.64,1.03.02,2.21Z"/>
      <path class="cls-15" d="M23.41,91.67c-.49.1-.97.21-1.36.55-.45.4-.88.09-1.32-.02-.15-.44.14-.74.33-1.06.37-.64.8-1.26.92-2.02,1.04-.18,1.26.78,1.8,1.28-.35.36-.34.81-.37,1.26Z"/>
      <path class="cls-75" d="M29.88,50.35c-.25-.01-.48.04-.69.19,0-.06-.03-.13-.01-.18.25-.65-.03-1.65.7-1.93.94-.35,2.03-.17,3,.05.7.16.45.83.25,1.34-.8.16-1.57-.31-2.36-.08-.39.06-.54.47-.89.59Z"/>
      <path class="cls-152" d="M30.59,49.62c.89-.39,1.71-.05,2.54.22-.09,1.45-.17,2.9-.55,4.31-.07-.62-.35-1.15-.72-1.64-.32-.32-.38-.76-.37-1.16,0-.76-.33-1.29-.9-1.73Z"/>
      <path class="cls-65" d="M69.27,29.14c.34,0,.48.08.35.47-.55,1.74-1.15,3.43-2.85,4.44-.58.34-.62,1.05-.97,1.55-.6-.36-.74-.83-.36-1.43,2.08-1.07,3-3.02,3.82-5.04Z"/>
      <path class="cls-132" d="M68.31,88.43c-.32-.22-.5-.55-.71-.86.17,0,.34,0,.5,0,.24.11.52.04.76.13,1.85.19,3.72.04,5.57.16.04,0,.09,0,.13.01.19.06.46.07.48.32.02.31-.29.24-.46.27-1.61.32-3.24.16-4.86.08-.46-.02-.94-.1-1.41-.12Z"/>
      <path class="cls-36" d="M23.41,91.67c-.4-.57-.42-1.04.37-1.26,1.32.68,2.5,1.53,3.45,2.69-.69.19-1.32-.4-2.02-.15-.6-.42-1.2-.85-1.8-1.27Z"/>
      <path class="cls-118" d="M14.27,56.81c.28-.57.74-.99,1.21-1.39.94-.81,1.79-.53,2.17.68-.24.47-.71.65-1.12.91-.48.26-.98.45-1.54.36-.34-.05-.64-.17-.72-.56Z"/>
      <path class="cls-58" d="M33.43,99.58c-.03.79.32,1.16,1.13,1.28,1.59.25,3.16.61,4.74.93.04,0,.07.08.19.22-1.07.14-2.04-.05-3.01-.18-.89-.11-1.75-.36-2.64-.5-.86-.14-1.29-.52-1.05-1.45.06-.22-.06-.48.12-.68.04.3.01.7.51.37Z"/>
      <path class="cls-81" d="M68.5,49.44c-1.02.06-2.04.14-3.06.16-.45,0-.54.24-.57.59-.43-1.58-.29-1.78,1.27-1.8.38,0,.77-.03,1.15-.04,1.07-.05,1.16.03,1.21,1.1Z"/>
      <path class="cls-50" d="M39.92,91.29c-2.6.05-5.19-.05-7.69-.89.03-.58.47-.38.73-.32,2.01.44,4.05.59,6.1.72.32.02.84-.14.87.48Z"/>
      <path class="cls-28" d="M34.74,80.34c.53,0,.52-.38.52-.75,0-.94,0-1.88,0-3.08.57,1.01,1.22,1.66,1.45,2.57-.5-.04-.45.38-.53.66-.08.28-.1.59-.2.86-.12.32-.04.89-.36.92-.44.05-.59-.48-.75-.86-.05-.11-.09-.22-.13-.33Z"/>
      <path class="cls-157" d="M81.42,56.99c-.15-.09-.31-.18-.46-.27-.36-.2-.96-.21-.66-.89.3-.67.91-.97,1.5-.7.49.23.88.61,1.24,1-.07.96-.61,1.24-1.62.85Z"/>
      <path class="cls-87" d="M21.97,89.12c.44.41.02.76-.13,1.08-.33.69-.74,1.33-1.12,2-.2.16-.4.33-.61.49-.67-1.23.08-2.66,1.86-3.57Z"/>
      <path class="cls-30" d="M80.85,57.18c-.18.97-.87,1.56-1.58,2.15-.85-.59-.82-1.07,0-2.19.58-.79,1.07-.48,1.58.04Z"/>
      <path class="cls-57" d="M56.49,108.9c.45,1.48.3,2.99.15,4.49-.04.41-.23.44-.51.17-.2-1.39-.12-2.78-.16-4.18-.01-.39.02-.68.52-.48Z"/>
      <path class="cls-154" d="M18,59.86c-.17.15-.35.31-.52.47-.56.54-1.03.42-1.44-.18-.23-.34-.48-.66-.73-.99-.24-.63.09-.95.64-1.15.78.51,1.57,1.01,2.05,1.85Z"/>
      <path class="cls-136" d="M61.32,79.28c.24-.75.85-1.24,1.44-1.86,0,.77,0,1.55,0,2.32,0,.3-.14.69.35.79,0,.44-.15.79-.59,1.13-.23-.64-.45-1.23-.64-1.83-.09-.29-.15-.59-.56-.54Z"/>
      <path class="cls-12" d="M45.9,98.13c1.23-.04,2.44-.33,3.68-.38.9-.03,1.72.23,2.58.39-.08.23-.26.33-.48.32-1.86-.01-3.73.15-5.58-.17-.07-.01-.13-.11-.2-.17Z"/>
      <path class="cls-62" d="M18,59.86c-.68-.57-1.45-1.04-1.96-1.79-.04-.3.13-.4.39-.4.88.31,1.91.12,2.7.76.08.84-.77.94-1.13,1.43Z"/>
      <path class="cls-92" d="M48.91,55.37c-.34.31-.71.14-.99-.04-1.04-.67-2.06-1.4-2.87-2.35-.28-.33-.5-.74-.41-1.23,1.29,1.36,2.75,2.53,4.27,3.62Z"/>
      <path class="cls-93" d="M63.66,101.22c-1.85.67-3.77.82-5.72.73,1.87-.53,3.77-.88,5.7-1.09-.05.12-.2.25.02.36Z"/>
      <path class="cls-97" d="M20.72,62.39c-.82-.65-1.15-1.6-1.59-2.5.51-.41.9-.3,1.23.24.21.35.44.7.66,1.04.33.51.3.94-.3,1.21Z"/>
      <path class="cls-94" d="M62.55,90.58c.2.03.39.06.59.09-1.63.66-3.34.73-5.05.81-.13-.75.47-.64.85-.67,1.2-.11,2.41-.16,3.61-.23Z"/>
      <path class="cls-48" d="M19.14,58.42c-.89-.29-1.88-.17-2.72-.66.38-.6.81-1.14,1.59-1.21.55.52,1.06,1.06,1.13,1.87Z"/>
      <path class="cls-27" d="M29.67,60.74c-.74-.55-1.57.04-2.34-.19,1.66-.41,3.33-.71,5.04-.31-.06.55-.55.41-.84.45-.61.08-1.24.04-1.86.05Z"/>
      <path class="cls-51" d="M65.45,34.18c-.11.53,0,1.01.36,1.43.02.36.25.7.16,1.08-.16,0-.3.04-.37.2-.54-1.09-.93-2.22-1.06-3.43.96-.58.55.56.91.73Z"/>
      <path class="cls-112" d="M66.54,58.03c.83.08,1.65.29,2.49.17.72-.1,1.14.2,1.28.91-.91-.12-1.83-.22-2.73-.35-.45-.07-.86-.25-1.03-.74Z"/>
      <path class="cls-5" d="M32.94,99.04c-.01-.24,0-.51-.24-.64-.28-.16-.31.2-.47.28-.09-.83.34-1.55.52-2.32.05-.21.2-.4.45-.32.23.07.32.3.25.51-.26.81,0,1.73-.5,2.49Z"/>
      <path class="cls-9" d="M41.88,112.36c-.01.41-.11.79-.49,1.13,0-1.44-.01-2.88.01-4.32,0-.27.29-.24.5-.25.04.81.06,1.62-.14,2.43-.08.31-.11.7.12,1.01Z"/>
      <path class="cls-99" d="M18.01,56.55c-.53.4-1.06.81-1.59,1.21-.12.1-.25.2-.37.3-.41.25-.75.55-.73,1.09-.24-.29-.47-.59-.71-.88.61-.55,1.36-.91,1.98-1.47.29-.33.65-.56,1.07-.7,0,.25.23.31.36.45Z"/>
      <path class="cls-142" d="M16.58,56.8c-.48.73-1.11,1.25-1.98,1.47-.53-.39-.78-.84-.34-1.45.78.66,1.55.32,2.32-.01Z"/>
      <path class="cls-117" d="M18.73,72.75c.3.08.34.31.26.55-.25.81-.48,1.63-.78,2.42-.19.48-.21-.09-.33-.1-.07-.01-.1-.04-.08-.07.01-.04.03-.06.05-.06.08-.99.32-1.92.89-2.75Z"/>
      <path class="cls-19" d="M81.42,56.99c.68-.01,1.42.07,1.62-.85.42.22.68.54.73,1.03-.32.64-.92.57-1.48.6-.05-.03-.11-.07-.16-.1-.07-.04-.14-.08-.22-.13-.25-.1-.44-.27-.49-.55Z"/>
      <path class="cls-49" d="M65.4,97.98c-.5-.41-.5.11-.65.35-.09-.52-.16-1.05-.29-1.57-.08-.33-.11-.64.27-.71.47-.1.52.28.52.63,0,.45.31.85.15,1.31Z"/>
      <path class="cls-56" d="M33.81,60.22c.05.23.11.46.16.69.05.63.06,1.22.58,1.77.43.44-.15.64-.52.79-.29-1.07-.58-2.13-.22-3.25Z"/>
      <path class="cls-78" d="M84.26,96.89c-.23-.16-.32-.04-.35.18-.26-1.24-.81-2.44-.36-3.75.23,1.19.47,2.38.7,3.57Z"/>
      <path class="cls-17" d="M17.84,75.5s.05.08.04.13c0,.84-.02,1.67-.03,2.51,0,.23-.04.49.29.57.72.17.24.47.08.74-.58-.03-.86-.25-.65-.89.23-.69.05-1.42.1-2.13.03-.32-.11-.66.17-.93Z"/>
      <path class="cls-77" d="M78.17,59.83c.2.96-.5,1.97-1.27,1.82.26-.73.57-1.41,1.27-1.82Z"/>
      <path class="cls-156" d="M82.29,57.77c.42-.39,1.06-.23,1.48-.6.37.54,0,.86-.39,1.08-.52.3-.82-.1-1.09-.48Z"/>
      <path class="cls-127" d="M32.75,36.87c.68-.05.73.42.75.91-.06.24-.14.51-.44.46-.35-.05-.43-.37-.5-.67.04-.24-.05-.52.2-.7Z"/>
      <path class="cls-38" d="M32.77,108.2c-.05.52-.06,1.06-.54,1.41-.13-.43-.26-.85-.22-1.31.02-.24.04-.54.28-.6.38-.1.37.28.48.5Z"/>
      <path class="cls-52" d="M74.44,87.86c-1.76.01-3.53.03-5.29.04-.18,0-.36-.03-.49-.17.54-.17,1.09-.13,1.64-.02,1.38.1,2.77-.15,4.14.15Z"/>
      <path class="cls-147" d="M80.18,74.77c-.73-.16-1.05-1.11-.59-1.75.26.56.51,1.13.59,1.75Z"/>
      <path class="cls-29" d="M50.91,30.6c0-1.57,0-3.14,0-4.71.3.24.17.58.19.88-.01,1-.02,1.99-.04,2.99,0,.29.07.59-.15.84Z"/>
      <path class="cls-101" d="M65.78,109.08c-.46,0-.51-.42-.7-.7,0-.3-.05-.62.41-.6.42.02.32.35.33.59,0,.23-.02.47-.04.71Z"/>
      <path class="cls-130" d="M70.3,87.7c-.55,0-1.09.01-1.64.02-.19-.03-.4.01-.55-.16.73.02,1.48-.19,2.19.14Z"/>
      <path class="cls-44" d="M40.87,61.85c1.23-2.09,2.63-3.98,5.07-4.8,4.68-1.57,9.51.53,11.38,4.95.04.54.51,1.08.03,1.64-2.09,1.59-4.4,1.84-6.78.89-1.19-.48-2.19-.42-3.33.09-2.2.97-4.26.31-6.24-.78-.67-.62-.25-1.31-.13-1.99Z"/>
      <path class="cls-106" d="M41.01,63.84c.62.2,1.25.37,1.86.59,1.72.61,3.39.55,5.02-.3.8-.42,1.51-.4,2.36,0,1.99.97,4.04.85,6.05-.04.35-.16.7-.31,1.05-.47-.88,1.43-2.38,1.58-3.81,1.79-1.14.17-2.24.03-3.25-.66-.95-.65-1.92-.45-2.86.09-1.89,1.09-4.93.59-6.42-1.03Z"/>
      <path class="cls-129" d="M37.42,53.2c-.18-.63-.39-1.27.19-1.82,1.85.81,3.69,1.65,5.56,2.43.77.32.96.77.64,1.54-.3.72-.63,1.42-1.23,1.94-1.58,1.35-3.82.74-4.48-1.22-.21-.63-.3-1.28-.22-1.93.05-.42.01-.78-.45-.94Z"/>
      <path class="cls-122" d="M60.22,51.37c1.05.43.35,1.19.36,1.82-.4.2-.55.5-.48.95.11.66-.02,1.31-.22,1.94-.64,2.01-3.14,2.6-4.61,1.09-.14-.15-.29-.31-.4-.48-1.24-2.11-.92-2.47.87-3.28,1.49-.67,2.98-1.35,4.47-2.03Z"/>
      <path class="cls-35" d="M35.6,43.21c2.4-.01,4.79-.03,7.19-.03.13,0,.27.09.4.14-.48.38-.42.8-.24,1.34.34,1,.81,1.66,2.03,1.41.31-.06.76.03,1.05.34-2.74-.02-5.48.03-8.22-.08-1.67-.07-3.33-.1-5-.11-.63,0-.82-.21-.67-.88.32-1.38.63-1.7,2.07-1.85.47-.05.92-.19,1.38-.29Z"/>
      <path class="cls-39" d="M47.66,45.25c0,1.75,0,3.5,0,5.24,0,.3-.12.55-.46.53-.34-.01-.44-.28-.42-.57.05-.71.12-1.42.19-2.12.1-1.04.1-2.1.44-3.1.08,0,.17.01.25.02Z"/>
      <path class="cls-23" d="M44.26,43.37c.47-.02.95-.03,1.42-.05.11.06.23.13.34.19-.4.18-.78.35-1.04.77-.32.52-.93.4-1.38.27-.43-.13-.29-.52-.02-.76.19-.17.45-.28.68-.41Z"/>
      <path class="cls-85" d="M51.61,43.15c.17.01.35.02.52.03,1.68.11,3.37.11,5.05,0,2.87-.06,5.74-.11,8.6-.17-.83.12-1.66.24-2.53.37.14.11.26.2.39.3-3.84,0-7.68.02-11.52.01-.33,0-.89.13-.51-.55Z"/>
      <path class="cls-71" d="M47.29,88.79c1.38-.56,2.69-.31,3.95.37.72.73,1.32,1.54,1.83,2.43.2.34.35.69.32,1.1-.09,1.25-2.19,3.66-3.42,3.94-2.8.62-5.5-1.97-4.99-4.8.14-.8.72-1.36,1.23-1.95.33-.39.72-.72,1.08-1.08Z"/>
      <path class="cls-119" d="M69.02,51.97c-.05,1.26-.48,1.77-1.5,1.8-.62.02-1.11-.19-1.36-.8-.27-.65-.3-1.29.22-1.84.46-.49,1.05-.51,1.66-.36.63.15.53.9.98,1.2h0Z"/>
      <path class="cls-73" d="M33.83,92.22c-.01.26-.12.51-.41.45-.31-.06-.48-.33-.47-.66,0-.26.11-.51.4-.45.31.07.48.32.48.66Z"/>
      <path class="cls-74" d="M38.12,92.8c-.03.32-.21.48-.52.48-.31,0-.53-.15-.5-.48.03-.33.28-.42.58-.42.28,0,.45.11.44.42Z"/>
      <path class="cls-46" d="M64.7,92.18c.03.5-.14.75-.59.75-.32,0-.65-.06-.55-.47.09-.36-.03-.92.58-.94.49-.02.51.39.57.67Z"/>
      <path class="cls-91" d="M59.5,92.5c0,.39-.16.6-.53.59-.37,0-.52-.23-.53-.58,0-.32.06-.64.45-.63.37.01.56.28.61.61Z"/>
      <path class="cls-104" d="M30.59,49.62c.75.07,1.07.47,1.08,1.23,0,.55.13,1.1.19,1.66-.67,1.15-1.35,1.51-2.38,1.22-.44-.12-.69-.3-.57-.89.18-.9.77-1.61.96-2.48.13-.35.28-.67.71-.73Z"/>
      <path class="cls-22" d="M65.41,37.36c-.08.28-.22.74-.44.67-.3-.09-.6-.46-.72-.77-.11-.32.25-.41.53-.41.33,0,.58.11.63.51Z"/>
      <path class="cls-137" d="M57.19,43.19c-1.68.23-3.37.26-5.05,0,1.68,0,3.37,0,5.05,0Z"/>
      <path class="cls-14" d="M42.26,61.83c.7-1.43,1.78-2.52,3.13-3.34.88-.54,1.82-.88,2.88-.52.43.14.89.11,1.33,0,2.76-.61,4.69,1.12,6.2,3.64.16.51-.2.7-.57.85-.97.41-1.97.45-2.98.17-.55-.15-1.07-.37-1.58-.63-1.17-.6-2.36-.64-3.51.01-1.15.65-2.39.7-3.65.56-.49-.06-1.11-.05-1.26-.75Z"/>
      <path class="cls-96" d="M42.26,61.83c1.45.91,3,.83,4.42.12,1.6-.8,3.02-.81,4.57.05,1.21.67,2.54.8,3.88.26.32-.13.61-.24.65-.63.65.86.58,1.18-.38,1.59-1.64.7-3.28.72-4.79-.29-1.05-.7-1.98-.71-3.06-.04-1.67,1.04-3.43,1.12-5.16.06-.52-.32-.67-.66-.15-1.11Z"/>
      <path class="cls-61" d="M46.06,92.91c-.37-.61-.04-.83.51-.84.5,0,1,.08,1.53.13-.02-.49-.38-.8-.51-1.21-.13-.43-.21-.86.28-1.07.56-.25.59.28.76.6.11.21.13.59.47.55.25-.04.28-.36.34-.58.08-.33.11-.69.58-.61.5.08.52.48.53.89,0,.5-.49.73-.59,1.22.66.22,1.45-.15,2.02.42.02.45-.32.57-.64.58-1.75.04-3.51.15-5.26-.06Z"/>
      <path class="cls-84" d="M46.06,92.91c1.62-.36,3.26-.08,4.89-.17.37-.02.8.12,1.01-.35.37.53.18.81-.41.9-.21.03-.42.03-.63.01-.64-.05-.95.11-.57.79.07.13.14.28.14.42,0,.31.21.72-.19.88-.38.15-.61-.23-.76-.49-.29-.52-.51-.78-.83-.03-.13.31-.38.46-.72.36-.37-.11-.45-.46-.34-.73.49-1.17-.12-1.31-1.06-1.21-.25.03-.46-.11-.54-.38Z"/>
    </g>
  </g>
</svg>